SplineFontDB: 3.0
FontName: PochaevskUnicode
FullName: Pochaevsk Unicode
FamilyName: Pochaevsk Unicode
Weight: Normal
Copyright: Copyright 2019 Aleksandr Andreev (Slavonic Computing Initiative). Licensed under the SIL OFL. Based on Pochaevsk Copyright 1996 by Starina/Russian Antiquities; developed by Nikita Simmons.
Version: 1.1
ItalicAngle: 0
UnderlinePosition: -100
UnderlineWidth: 50
Ascent: 800
Descent: 200
InvalidEm: 0
LayerCount: 2
Layer: 0 0 "Back" 1
Layer: 1 0 "Fore" 0
UniqueID: 4777017
FSType: 0
OS2Version: 0
OS2_WeightWidthSlopeOnly: 0
OS2_UseTypoMetrics: 0
CreationTime: 1291789194
ModificationTime: 1561889662
PfmFamily: 17
TTFWeight: 400
TTFWidth: 5
LineGap: 90
VLineGap: 0
OS2TypoAscent: 0
OS2TypoAOffset: 1
OS2TypoDescent: 0
OS2TypoDOffset: 1
OS2TypoLinegap: 90
OS2WinAscent: 0
OS2WinAOffset: 1
OS2WinDescent: 0
OS2WinDOffset: 1
HheadAscent: 0
HheadAOffset: 1
HheadDescent: 0
HheadDOffset: 1
OS2Vendor: 'PfEd'
Lookup: 4 0 0 "'ccmp' Canonical Composition and Precomposed Glyphs" { "'ccmp' Canonical Composition and Precomposed Glyphs-1"  } ['ccmp' ('DFLT' <'dflt' > 'cyrl' <'dflt' > ) ]
Lookup: 4 0 0 "'ccmp' Second Round of Precomposed Glyphs" { "'ccmp' Second Round of Precomposed Glyphs-1"  } ['ccmp' ('DFLT' <'dflt' > 'cyrl' <'dflt' > ) ]
Lookup: 1 0 0 "'ss01' Church Slavonic Hyphenation" { "'ss01' Church Slavonic Hyphenation-1"  } ['ss01' ('DFLT' <'dflt' > 'cyrl' <'dflt' > ) ]
Lookup: 5 0 0 "Contextual Titlo Replacement" { "Contextual Titlo Replacement-1"  } ['ccmp' ('DFLT' <'dflt' > 'cyrl' <'dflt' > ) ]
Lookup: 1 0 0 "Tiny Titlo" { "Tiny Titlo-1"  } []
Lookup: 1 0 0 "Short Titlo" { "Short Titlo-1"  } []
Lookup: 1 0 0 "Long Titlo" { "Long Titlo-1"  } []
Lookup: 260 0 0 "'mark' Diacritical Marks" { "'mark' Diacritical Marks-1"  } ['mark' ('DFLT' <'dflt' > 'cyrl' <'dflt' > ) ]
MarkAttachClasses: 1
DEI: 91125
ContextSub2: class "Contextual Titlo Replacement-1" 5 5 5 3
  Class: 7 uni0483
  Class: 59 afii10055 afii10068 afii10070 afii10082 afii10083 afii10103

StartChar: .notdef
Encoding: 1114112 -1 0
Width: 751
LayerCount: 2
Fore
SplineSet
46 0 m 1
 705 0 l 1
 705 751 l 1
 46 751 l 1
 46 0 l 1
659 46 m 1
 92 46 l 1
 92 705 l 1
 659 705 l 1
 659 46 l 1
EndSplineSet
EndChar

StartChar: .null
Encoding: 0 0 1
Width: 751
Flags: W
LayerCount: 2
Fore
SplineSet
46 0 m 1
 705 0 l 1
 705 751 l 1
 46 751 l 1
 46 0 l 1
659 46 m 1
 92 46 l 1
 92 705 l 1
 659 705 l 1
 659 46 l 1
EndSplineSet
EndChar

StartChar: percent
Encoding: 57348 57348 3
Width: 1
GlyphClass: 4
Flags: HW
AnchorPoint: "Above" -213 656 mark 0
LayerCount: 2
Fore
SplineSet
-347 840 m 0
 -380 840 -409 827 -433 800 c 0
 -457 774 -469 754 -469 740 c 0
 -469 733 -466 730 -460 730 c 0
 -455 730 -445 737 -428 751 c 0
 -412 766 -395 773 -376 773 c 0
 -345 773 -323 751 -323 727 c 0
 -324 696 -343 690 -340 674 c 0
 -340 667 -337 664 -330 664 c 0
 -320 664 -307 675 -291 698 c 0
 -276 721 -268 744 -268 765 c 0
 -268 808 -307 840 -347 840 c 0
-175 836 m 2
 -183 847 -184 847 -213 847 c 2
 -224 847 l 2
 -248 847 -250 847 -250 840 c 0
 -250 835 -245 828 -241 824 c 2
 -226 806 l 1
 -159 726 l 2
 -134 697 -117 676 -101 676 c 0
 -86 676 -66 679 -66 687 c 0
 -66 690 -83 714 -99 737 c 2
 -152 806 l 1
 -175 836 l 2
EndSplineSet
EndChar

StartChar: afii10103
Encoding: 1110 1110 4
Width: 278
Flags: HW
LayerCount: 2
Fore
SplineSet
198 0 m 1
 198 11 197 37 195 79 c 0
 193 121 192 162 192 202 c 0
 192 269 193 318 194 349 c 0
 196 381 199 415 203 451 c 1
 92 451 l 1
 88 407 85 365 83 326 c 0
 81 287 80 238 80 179 c 0
 80 148 81 112 82 73 c 0
 83 34 84 9 84 0 c 1
 198 0 l 1
EndSplineSet
EndChar

StartChar: uni2DF1
Encoding: 11761 11761 5
Width: 2
Flags: HW
AnchorPoint: "Above" -163 511 mark 0
LayerCount: 2
Fore
SplineSet
-100 513 m 1
 -107 544 -106 569 -106 597 c 0
 -106 599 -106 612 -105 635 c 0
 -104 659 -103 678 -101 693 c 1
 -144 693 l 1
 -145 689 -146 684 -147 677 c 2
 -147 642 l 2
 -147 633 -149 628 -153 628 c 0
 -161 626 -199 634 -198 693 c 1
 -245 693 l 1
 -245 632 -203 616 -147 616 c 1
 -147 579 l 1
 -147 513 l 1
 -100 513 l 1
EndSplineSet
EndChar

StartChar: comma
Encoding: 44 44 6
Width: 352
Flags: W
LayerCount: 2
Fore
SplineSet
139 -159 m 1
 196 -118 236 -83 259 -54 c 0
 282 -25 294 5 294 38 c 0
 294 97 253 140 192 140 c 0
 157 140 127 125 101 94 c 0
 75 63 60 27 56 -14 c 1
 69 -14 l 1
 101 37 123 54 155 54 c 0
 192 54 215 30 215 -10 c 0
 215 -55 183 -99 118 -159 c 1
 139 -159 l 1
EndSplineSet
EndChar

StartChar: hyphen
Encoding: 45 45 7
Width: 352
Flags: HW
LayerCount: 2
Fore
SplineSet
325 229 m 5
 325 283 l 5
 25 283 l 5
 25 229 l 5
 325 229 l 5
EndSplineSet
Substitution2: "'ss01' Church Slavonic Hyphenation-1" underscore
EndChar

StartChar: period
Encoding: 46 46 8
Width: 259
Flags: W
LayerCount: 2
Fore
SplineSet
186 44 m 0
 186 76 160 102 128 102 c 0
 95 102 69 76 69 44 c 0
 69 12 95 -14 128 -14 c 0
 160 -14 186 12 186 44 c 0
EndSplineSet
EndChar

StartChar: bracketright
Encoding: 93 93 9
Width: 352
Flags: W
LayerCount: 2
Fore
SplineSet
19 -144 m 1
 294 -148 l 1
 294 713 l 1
 20 709 l 1
 20 667 l 1
 166 669 l 2
 210 669 212 664 212 620 c 2
 212 -63 l 2
 212 -102 209 -104 173 -104 c 2
 19 -103 l 1
 19 -144 l 1
EndSplineSet
EndChar

StartChar: acutecomb
Encoding: 769 769 10
Width: 2
Flags: HW
AnchorPoint: "Above" -213 622 mark 0
LayerCount: 2
Fore
SplineSet
-232 637 m 1
 -234 630 l 2
 -234 625 -229 623 -218 623 c 0
 -202 623 -190 626 -183 633 c 0
 -176 640 -163 658 -144 687 c 2
 -98 761 l 2
 -96 764 -91 773 -83 786 c 0
 -75 799 -71 807 -71 810 c 0
 -71 813 -74 815 -81 817 c 0
 -113 813 -140 816 -151 795 c 2
 -166 767 l 1
 -183 734 l 1
 -190 720 l 1
 -232 637 l 1
EndSplineSet
EndChar

StartChar: gravecomb
Encoding: 768 768 11
Width: 2
Flags: HW
AnchorPoint: "Above" -177 622 mark 0
LayerCount: 2
Fore
SplineSet
-247 687 m 2
 -228 656 -215 638 -208 632 c 0
 -201 626 -190 623 -174 623 c 0
 -163 623 -158 625 -158 630 c 2
 -160 637 l 1
 -179 673 l 1
 -193 703 l 1
 -202 720 l 1
 -241 795 l 2
 -249 810 -252 811 -285 815 c 2
 -310 817 l 2
 -317 817 -321 816 -321 809 c 0
 -321 806 -311 789 -294 761 c 2
 -247 687 l 2
EndSplineSet
EndChar

StartChar: uniE001
Encoding: 57345 57345 12
Width: 0
GlyphClass: 4
Flags: HW
AnchorPoint: "Above" -203 546 mark 0
LayerCount: 2
Fore
SplineSet
-274 759 m 0
 -299 759 -324 748 -347 725 c 0
 -370 702 -382 681 -382 660 c 0
 -382 651 -378 647 -369 647 c 0
 -364 647 -359 650 -354 657 c 0
 -331 680 -317 695 -288 695 c 0
 -260 695 -236 676 -236 645 c 0
 -237 634 -237 621 -244 608 c 0
 -251 596 -262 573 -262 568 c 0
 -262 561 -258 558 -250 558 c 0
 -237 558 -222 571 -205 598 c 0
 -188 625 -180 651 -180 678 c 0
 -180 730 -219 759 -274 759 c 0
-25 794 m 0
 -25 798 -27 800 -31 800 c 0
 -46 800 -88 792 -92 783 c 2
 -97 769 l 1
 -169 570 l 1
 -175 550 l 2
 -175 549 -173 547 -168 544 c 2
 -145 547 l 2
 -133 549 -126 551 -124 552 c 0
 -122 554 -118 561 -112 574 c 0
 -107 587 -103 597 -100 606 c 0
 -93 621 -79 656 -57 709 c 0
 -36 763 -25 791 -25 794 c 0
EndSplineSet
LCarets2: 1 0
Ligature2: "'ccmp' Canonical Composition and Precomposed Glyphs-1" uni0486 acutecomb
EndChar

StartChar: uniE003
Encoding: 57347 57347 13
Width: 0
GlyphClass: 4
Flags: HW
AnchorPoint: "Above" -177 610 mark 0
LayerCount: 2
Fore
SplineSet
-310 784 m 0
 -343 784 -371 771 -395 744 c 0
 -419 718 -431 698 -431 684 c 0
 -431 677 -428 674 -423 674 c 0
 -420 674 -416 676 -410 680 c 0
 -381 705 -357 717 -339 717 c 0
 -308 717 -285 696 -285 671 c 0
 -286 649 -305 629 -302 619 c 0
 -302 612 -299 608 -292 608 c 0
 -283 608 -270 620 -254 643 c 0
 -239 666 -231 688 -231 709 c 0
 -231 752 -270 784 -310 784 c 0
-136 778 m 2
 -144 789 -145 789 -174 789 c 2
 -185 789 l 2
 -201 789 -212 789 -212 782 c 0
 -212 778 -209 773 -202 766 c 2
 -187 749 l 1
 -120 668 l 2
 -89 632 -84 623 -61 618 c 1
 -45 619 -27 621 -27 629 c 0
 -27 633 -44 656 -60 679 c 2
 -113 748 l 1
 -136 778 l 2
EndSplineSet
LCarets2: 1 0
Ligature2: "'ccmp' Canonical Composition and Precomposed Glyphs-1" uni0486 gravecomb
EndChar

StartChar: asterisk
Encoding: 42 42 14
Width: 444
Flags: W
LayerCount: 2
Fore
SplineSet
198 260 m 1
 222 258 l 1
 247 260 l 1
 259 297 l 1
 230 427 l 1
 237 430 l 1
 335 342 l 1
 373 332 l 1
 382 343 387 350 389 353 c 0
 391 357 394 365 398 376 c 1
 372 404 l 1
 244 446 l 1
 244 453 l 1
 373 494 l 1
 398 521 l 1
 393 534 390 542 388 545 c 0
 386 549 381 556 373 566 c 1
 337 557 l 1
 235 468 l 1
 230 472 l 1
 260 600 l 1
 249 637 l 1
 222 640 l 1
 196 637 l 1
 185 600 l 1
 215 472 l 2
 214 470 212 469 209 468 c 2
 107 557 l 1
 72 566 l 1
 57 547 55 544 47 521 c 1
 71 494 l 1
 200 453 l 1
 201 446 l 1
 73 404 l 1
 46 376 l 1
 53 361 61 347 72 332 c 1
 110 342 l 1
 207 430 l 1
 214 427 l 1
 185 297 l 1
 198 260 l 1
EndSplineSet
EndChar

StartChar: bracketleft
Encoding: 91 91 15
Width: 352
Flags: W
LayerCount: 2
Fore
SplineSet
334 -103 m 1
 180 -104 l 2
 143 -104 140 -102 140 -63 c 2
 140 620 l 2
 140 642 142 656 146 661 c 0
 151 666 164 669 187 669 c 2
 333 667 l 1
 333 709 l 1
 59 713 l 1
 59 -148 l 1
 334 -144 l 1
 334 -103 l 1
EndSplineSet
EndChar

StartChar: colon
Encoding: 58 58 16
Width: 296
Flags: W
LayerCount: 2
Fore
SplineSet
210 384 m 1
 145 458 l 1
 81 384 l 1
 145 312 l 1
 210 384 l 1
211 56 m 1
 145 128 l 1
 81 56 l 1
 145 -16 l 1
 211 56 l 1
EndSplineSet
EndChar

StartChar: semicolon
Encoding: 59 59 17
Width: 352
Flags: W
LayerCount: 2
Fore
SplineSet
140 -160 m 1
 175 -135 209 -107 242 -76 c 0
 276 -45 293 -8 293 37 c 0
 293 93 251 138 192 138 c 0
 124 138 77 84 56 -15 c 1
 69 -15 l 1
 94 30 111 51 148 51 c 0
 189 51 213 21 213 -15 c 0
 213 -48 191 -88 120 -160 c 1
 140 -160 l 1
261 384 m 1
 195 458 l 1
 131 384 l 1
 195 312 l 1
 261 384 l 1
EndSplineSet
EndChar

StartChar: afii10017
Encoding: 1040 1040 18
Width: 463
Flags: W
LayerCount: 2
Fore
SplineSet
189 0 m 1
 189 21 l 1
 159 21 139 29 129 46 c 0
 119 63 114 81 114 98 c 1
 151 106 170 126 170 157 c 0
 170 184 156 214 115 221 c 1
 115 228 l 1
 150 233 179 241 208 272 c 0
 239 304 256 337 275 388 c 1
 275 21 l 1
 225 21 l 1
 225 0 l 1
 437 0 l 1
 437 21 l 1
 387 21 l 1
 387 607 l 1
 437 607 l 1
 438 628 l 1
 224 628 l 1
 224 607 l 1
 273 607 l 1
 273 575 275 542 280 508 c 1
 272 507 l 1
 256 552 229 576 190 576 c 0
 155 576 132 550 132 518 c 0
 132 489 151 465 184 465 c 0
 207 465 221 478 234 493 c 0
 239 500 243 503 247 503 c 0
 256 503 261 496 261 482 c 0
 261 429 213 410 137 387 c 0
 62 364 29 341 29 297 c 0
 29 268 48 241 88 230 c 1
 88 221 l 1
 47 214 33 184 33 157 c 0
 33 117 61 105 89 98 c 1
 89 81 84 64 73 47 c 0
 63 30 43 21 14 21 c 1
 14 0 l 1
 189 0 l 1
85 287 m 0
 85 301 89 312 97 319 c 0
 105 326 127 339 162 357 c 0
 197 375 223 395 240 416 c 2
 248 427 l 2
 251 431 254 433 258 433 c 0
 264 433 267 429 267 421 c 0
 267 398 253 365 224 322 c 0
 196 279 163 258 125 258 c 0
 102 258 85 275 85 287 c 0
EndSplineSet
EndChar

StartChar: afii10018
Encoding: 1041 1041 19
Width: 481
Flags: W
LayerCount: 2
Fore
SplineSet
195 21 m 1
 195 377 l 1
 199 382 l 1
 231 357 265 338 306 323 c 2
 324 317 l 2
 340 312 339 299 339 264 c 2
 339 244 l 1
 339 21 l 1
 195 21 l 1
454 0 m 1
 447 45 446 107 446 191 c 0
 446 255 450 317 450 325 c 1
 412 325 371 330 328 340 c 0
 285 350 252 363 229 380 c 0
 207 397 196 411 195 422 c 2
 195 455 l 1
 195 606 l 1
 199 607 204 607 211 607 c 0
 268 607 307 561 324 508 c 0
 333 481 341 468 346 468 c 0
 352 468 355 474 355 486 c 0
 369 595 415 607 424 620 c 0
 424 625 420 628 411 628 c 2
 31 628 l 1
 31 607 l 1
 81 607 l 1
 81 21 l 1
 31 21 l 1
 31 0 l 1
 454 0 l 1
EndSplineSet
EndChar

StartChar: afii10040
Encoding: 1062 1062 20
Width: 556
Flags: W
LayerCount: 2
Fore
SplineSet
522 628 m 1
 297 628 l 1
 297 607 l 1
 352 607 l 1
 352 21 l 1
 197 21 l 1
 197 607 l 1
 252 607 l 1
 252 628 l 1
 28 628 l 1
 28 607 l 1
 83 607 l 1
 83 21 l 1
 28 21 l 1
 28 0 l 1
 423 0 l 1
 435 -111 l 2
 435 -124 425 -135 406 -145 c 0
 387 -155 372 -160 361 -160 c 0
 353 -160 343 -154 330 -142 c 0
 324 -137 306 -122 277 -99 c 0
 248 -76 229 -62 222 -57 c 0
 215 -53 209 -50 206 -48 c 0
 203 -47 199 -46 194 -46 c 0
 181 -46 159 -58 129 -82 c 0
 100 -107 73 -131 50 -154 c 1
 68 -172 l 1
 92 -141 108 -124 135 -124 c 0
 176 -125 258 -210 278 -219 c 1
 293 -222 l 2
 306 -222 332 -212 371 -191 c 0
 411 -170 443 -151 468 -134 c 0
 493 -117 509 -104 514 -95 c 0
 519 -86 522 -71 522 -49 c 0
 522 -25 519 8 512 15 c 0
 505 22 489 21 466 21 c 1
 466 607 l 1
 522 607 l 1
 522 628 l 1
EndSplineSet
EndChar

StartChar: afii10021
Encoding: 1044 1044 21
Width: 574
Flags: W
LayerCount: 2
Fore
SplineSet
370 607 m 1
 370 520 l 2
 370 493 367 492 360 492 c 0
 349 492 332 557 284 552 c 1
 245 552 219 517 219 482 c 0
 219 446 246 421 275 421 c 0
 295 421 309 430 317 448 c 2
 322 460 l 2
 323 467 329 471 336 471 c 0
 345 471 350 465 350 454 c 0
 350 428 336 403 307 378 c 0
 278 354 243 327 202 296 c 0
 121 235 88 188 88 121 c 0
 88 88 100 52 116 21 c 1
 47 21 l 2
 26 21 15 19 15 14 c 0
 16 11 12 13 31 -3 c 0
 41 -11 51 -26 60 -47 c 0
 79 -90 83 -130 94 -130 c 0
 101 -130 105 -123 116 -87 c 0
 127 -52 134 -29 142 0 c 1
 375 0 l 1
 412 -1 l 2
 419 -2 422 -15 426 -30 c 0
 428 -38 435 -57 446 -86 c 0
 457 -115 467 -130 474 -130 c 0
 478 -130 477 -133 484 -97 c 0
 488 -80 495 -63 504 -46 c 0
 537 7 546 7 545 12 c 0
 545 21 544 21 513 21 c 2
 483 21 l 1
 483 607 l 1
 535 607 l 1
 535 628 l 1
 322 628 l 1
 322 607 l 1
 370 607 l 1
252 20 m 2
 232 20 212 20 200 25 c 0
 189 30 177 65 177 104 c 0
 177 184 215 236 270 300 c 0
 297 332 316 355 327 369 c 0
 350 398 358 416 363 416 c 0
 368 416 370 412 370 403 c 2
 370 20 l 1
 252 20 l 2
EndSplineSet
EndChar

StartChar: afii10022
Encoding: 1045 1045 22
Width: 536
Flags: W
LayerCount: 2
Fore
SplineSet
457 100 m 1
 426 109 394 120 362 133 c 0
 331 146 307 156 290 165 c 1
 281 144 l 1
 288 140 l 2
 301 133 315 124 315 120 c 0
 315 107 301 86 273 57 c 0
 246 28 210 13 166 13 c 0
 150 13 140 14 128 17 c 1
 157 61 175 100 175 173 c 0
 175 189 172 226 169 245 c 2
 166 268 l 2
 166 274 167 279 170 284 c 2
 206 325 l 2
 231 350 266 380 307 380 c 0
 348 380 377 347 377 286 c 1
 374 245 l 1
 335 245 l 1
 334 223 l 1
 510 223 l 1
 510 245 l 1
 476 245 l 1
 476 376 435 432 344 432 c 0
 263 432 213 383 160 311 c 1
 156 336 l 2
 153 352 148 372 142 395 c 0
 138 416 136 439 136 465 c 0
 136 525 151 566 180 587 c 0
 210 609 239 620 268 620 c 0
 325 620 354 594 362 527 c 1
 323 519 l 1
 327 497 l 1
 354 502 378 506 406 506 c 0
 423 506 449 504 484 499 c 2
 500 496 l 1
 501 518 l 1
 470 524 l 1
 449 596 392 639 279 639 c 0
 184 639 119 612 84 559 c 0
 49 506 31 452 31 397 c 0
 31 361 35 331 44 307 c 0
 53 284 65 254 80 217 c 0
 112 145 121 102 121 78 c 0
 121 53 110 26 82 5 c 1
 113 -7 140 -15 193 -15 c 0
 269 -15 348 9 380 48 c 0
 413 88 414 89 419 89 c 0
 422 89 439 83 451 79 c 1
 457 100 l 1
EndSplineSet
EndChar

StartChar: afii10038
Encoding: 1060 1060 23
Width: 657
Flags: W
LayerCount: 2
Fore
SplineSet
292 477 m 1
 260 509 242 521 198 521 c 0
 147 521 95 498 62 457 c 0
 29 416 21 371 21 307 c 0
 21 237 40 186 77 154 c 0
 114 122 154 106 197 106 c 0
 232 106 256 114 292 150 c 1
 298 148 l 1
 298 96 282 53 242 32 c 0
 223 21 213 13 213 8 c 0
 213 1 217 0 233 0 c 2
 423 0 l 2
 437 0 444 2 444 7 c 0
 444 14 442 17 413 32 c 0
 385 48 359 79 359 148 c 1
 365 150 l 1
 397 118 415 106 459 106 c 0
 510 106 562 129 595 170 c 0
 628 211 636 256 636 320 c 0
 636 390 617 441 580 473 c 0
 543 505 502 521 459 521 c 0
 432 521 412 517 401 508 c 0
 390 500 378 490 365 477 c 1
 359 479 l 1
 359 531 375 574 414 595 c 0
 434 606 444 614 444 619 c 0
 444 625 437 628 423 628 c 2
 233 628 l 2
 220 628 213 627 213 620 c 0
 213 612 213 610 242 594 c 0
 273 579 298 548 298 479 c 1
 292 477 l 1
297 376 m 1
 256 367 245 335 245 314 c 0
 245 282 265 258 297 251 c 1
 297 219 293 192 285 170 c 0
 277 148 258 137 229 137 c 0
 192 137 167 155 154 191 c 0
 141 228 135 269 135 314 c 0
 135 357 141 397 154 434 c 0
 167 471 192 490 229 490 c 0
 289 490 297 443 297 376 c 1
360 376 m 1
 360 408 364 435 372 457 c 0
 380 479 398 490 427 490 c 0
 465 490 490 472 502 435 c 0
 515 398 521 358 521 314 c 0
 521 268 515 227 502 191 c 0
 489 155 464 137 427 137 c 0
 398 137 379 148 371 169 c 0
 364 190 360 218 360 251 c 1
 401 260 412 291 412 314 c 0
 412 345 392 369 360 376 c 1
EndSplineSet
EndChar

StartChar: afii10020
Encoding: 1043 1043 24
Width: 407
Flags: W
LayerCount: 2
Fore
SplineSet
270 607 m 1
 279 583 294 553 315 518 c 0
 336 483 350 466 356 466 c 0
 359 466 361 470 361 478 c 0
 361 483 362 497 365 520 c 0
 368 543 371 559 373 568 c 0
 377 587 384 605 397 628 c 1
 42 628 l 1
 42 607 l 1
 95 607 l 1
 95 21 l 1
 42 21 l 1
 42 0 l 1
 260 0 l 1
 260 21 l 1
 209 21 l 1
 209 607 l 1
 270 607 l 1
EndSplineSet
EndChar

StartChar: afii10039
Encoding: 1061 1061 25
Width: 556
Flags: W
LayerCount: 2
Fore
SplineSet
198 0 m 1
 198 20 l 1
 142 20 l 1
 180 104 l 2
 183 104 186 104 190 103 c 0
 219 103 238 123 238 148 c 0
 238 167 233 173 220 188 c 1
 259 272 l 1
 394 20 l 1
 335 20 l 1
 335 0 l 1
 548 0 l 1
 548 20 l 1
 513 20 l 1
 313 390 l 1
 363 484 l 2
 388 531 406 548 429 548 c 0
 448 548 473 528 482 517 c 0
 493 506 503 496 511 496 c 0
 516 496 519 499 519 505 c 2
 518 511 l 1
 510 527 497 546 497 569 c 0
 497 596 515 612 524 625 c 0
 524 632 512 641 481 641 c 0
 424 641 363 567 299 418 c 1
 198 606 l 1
 257 606 l 1
 257 627 l 1
 27 627 l 1
 27 606 l 1
 79 606 l 1
 244 300 l 1
 196 198 l 2
 193 199 189 199 184 199 c 0
 156 199 134 182 134 153 c 0
 134 134 144 123 157 112 c 1
 114 20 l 1
 58 20 l 1
 58 0 l 1
 198 0 l 1
EndSplineSet
EndChar

StartChar: afii10026
Encoding: 1048 1048 26
Width: 556
Flags: W
LayerCount: 2
Fore
SplineSet
31 0 m 1
 255 0 l 1
 255 21 l 1
 200 21 l 1
 200 305 l 1
 355 391 l 1
 355 21 l 1
 300 21 l 1
 300 0 l 1
 525 0 l 1
 525 21 l 1
 469 21 l 1
 469 607 l 1
 525 607 l 1
 525 628 l 1
 300 628 l 1
 300 607 l 1
 355 607 l 1
 355 415 l 1
 200 329 l 1
 200 607 l 1
 255 607 l 1
 255 628 l 1
 31 628 l 1
 31 607 l 1
 86 607 l 1
 86 21 l 1
 31 21 l 1
 31 0 l 1
EndSplineSet
EndChar

StartChar: afii10024
Encoding: 1046 1046 27
Width: 741
Flags: W
LayerCount: 2
Fore
SplineSet
270 0 m 1
 468 0 l 1
 468 21 l 1
 423 21 l 1
 423 336 l 1
 429 340 l 1
 482 311 517 273 533 224 c 0
 550 176 558 118 558 51 c 0
 558 22 556 21 517 21 c 1
 517 0 l 1
 725 0 l 1
 725 21 l 1
 718 21 l 2
 703 21 693 24 690 29 c 0
 687 35 683 56 678 92 c 0
 674 128 663 163 645 196 c 0
 610 264 556 314 512 334 c 0
 491 344 466 353 439 360 c 1
 464 381 490 418 518 474 c 0
 533 503 544 520 553 527 c 0
 562 534 572 537 584 537 c 0
 603 537 616 533 641 517 c 1
 640 522 640 528 640 536 c 0
 640 588 661 607 689 626 c 1
 676 634 669 637 642 637 c 0
 558 637 522 588 491 499 c 0
 476 454 466 425 459 411 c 0
 453 397 443 384 430 373 c 1
 423 376 l 1
 423 607 l 1
 468 607 l 1
 468 628 l 1
 270 628 l 1
 270 607 l 1
 315 607 l 1
 315 376 l 1
 308 373 l 1
 295 384 285 397 278 412 c 0
 271 427 261 456 246 499 c 0
 217 587 177 637 97 637 c 0
 70 637 65 635 49 626 c 1
 78 607 98 589 98 537 c 0
 98 534 98 526 97 517 c 1
 116 529 125 537 154 537 c 0
 166 537 176 534 185 527 c 0
 194 521 205 503 220 473 c 0
 251 414 271 384 299 360 c 1
 243 344 205 330 156 282 c 0
 131 258 110 229 93 196 c 0
 76 163 65 134 62 109 c 0
 57 58 52 32 44 25 c 0
 40 22 30 21 13 21 c 1
 13 0 l 1
 221 0 l 1
 221 21 l 1
 204 21 l 2
 187 21 180 26 180 50 c 0
 180 115 188 173 205 222 c 0
 222 272 256 311 309 340 c 1
 315 336 l 1
 315 21 l 1
 270 21 l 1
 270 0 l 1
EndSplineSet
EndChar

StartChar: afii10028
Encoding: 1050 1050 28
Width: 556
Flags: W
LayerCount: 2
Fore
SplineSet
198 21 m 1
 198 328 l 1
 267 328 313 313 336 283 c 0
 359 254 371 197 371 114 c 0
 371 87 370 47 367 34 c 0
 366 28 361 24 354 22 c 2
 306 21 l 1
 306 0 l 1
 534 0 l 1
 534 21 l 1
 508 21 l 2
 485 21 486 22 486 62 c 0
 486 174 476 244 456 272 c 0
 436 300 388 321 311 336 c 1
 311 345 l 1
 377 356 419 376 436 406 c 0
 454 436 463 498 463 592 c 0
 463 601 469 606 480 607 c 2
 520 607 l 1
 520 628 l 1
 303 628 l 1
 303 607 l 1
 329 607 l 2
 356 607 357 605 357 580 c 0
 357 488 352 432 323 397 c 0
 308 380 293 368 276 361 c 0
 260 354 234 351 198 351 c 1
 198 607 l 1
 248 607 l 1
 248 628 l 1
 34 628 l 1
 34 607 l 1
 84 607 l 1
 84 21 l 1
 34 21 l 1
 34 0 l 1
 248 0 l 1
 248 21 l 1
 198 21 l 1
EndSplineSet
EndChar

StartChar: afii10029
Encoding: 1051 1051 29
Width: 500
Flags: W
LayerCount: 2
Fore
SplineSet
19 0 m 1
 199 0 l 1
 199 17 l 1
 164 24 141 67 141 114 c 0
 141 135 146 154 153 175 c 0
 157 186 171 216 196 264 c 0
 245 361 266 401 275 418 c 0
 280 427 287 444 298 469 c 1
 303 469 l 1
 303 21 l 1
 248 21 l 1
 248 0 l 1
 468 0 l 1
 468 21 l 1
 417 21 l 1
 417 607 l 1
 468 607 l 1
 468 628 l 1
 248 628 l 1
 248 607 l 1
 303 607 l 1
 303 570 l 2
 303 529 292 490 271 455 c 0
 250 420 215 375 165 318 c 0
 115 262 81 219 63 188 c 0
 46 158 37 131 37 107 c 0
 37 70 52 48 72 21 c 1
 19 21 l 1
 19 0 l 1
EndSplineSet
EndChar

StartChar: afii10030
Encoding: 1052 1052 30
Width: 759
Flags: W
LayerCount: 2
Fore
SplineSet
22 0 m 1
 213 0 l 1
 213 21 l 1
 170 30 151 67 151 115 c 0
 151 159 167 214 208 290 c 0
 251 366 272 400 281 400 c 0
 288 400 289 397 289 368 c 2
 289 354 l 1
 289 334 l 1
 289 21 l 1
 246 21 l 1
 246 0 l 1
 450 0 l 1
 450 21 l 1
 408 21 l 1
 408 90 l 1
 407 119 l 2
 407 124 409 129 412 136 c 2
 420 153 l 1
 423 160 l 1
 555 432 l 1
 563 430 l 1
 563 21 l 1
 513 21 l 1
 513 0 l 1
 725 0 l 1
 725 21 l 1
 677 21 l 1
 677 607 l 1
 725 607 l 1
 725 628 l 1
 508 628 l 1
 508 607 l 1
 563 607 l 1
 563 500 l 1
 415 191 l 1
 408 195 l 1
 408 607 l 1
 454 607 l 1
 454 628 l 1
 242 628 l 1
 242 607 l 1
 289 607 l 1
 289 503 l 2
 289 473 284 448 273 427 c 0
 262 406 233 373 186 327 c 0
 139 282 104 245 80 218 c 0
 57 191 45 157 45 118 c 0
 45 74 52 56 67 21 c 1
 22 21 l 1
 22 0 l 1
EndSplineSet
EndChar

StartChar: afii10031
Encoding: 1053 1053 31
Width: 556
Flags: W
LayerCount: 2
Fore
SplineSet
31 0 m 1
 255 0 l 1
 255 21 l 1
 200 21 l 1
 200 315 l 1
 355 272 l 1
 355 21 l 1
 300 21 l 1
 300 0 l 1
 525 0 l 1
 525 21 l 1
 469 21 l 1
 469 607 l 1
 525 607 l 1
 525 628 l 1
 300 628 l 1
 300 607 l 1
 355 607 l 1
 355 297 l 1
 200 339 l 1
 200 607 l 1
 255 607 l 1
 255 628 l 1
 31 628 l 1
 31 607 l 1
 86 607 l 1
 86 21 l 1
 31 21 l 1
 31 0 l 1
EndSplineSet
EndChar

StartChar: afii10032
Encoding: 1054 1054 32
Width: 481
Flags: W
LayerCount: 2
Fore
SplineSet
277 640 m 0
 226 640 172 615 115 566 c 0
 58 517 30 445 30 352 c 0
 30 321 34 293 42 266 c 0
 50 240 69 204 100 159 c 0
 131 114 150 86 157 73 c 0
 164 60 168 47 168 32 c 0
 168 26 167 20 164 14 c 2
 157 -3 l 2
 157 -9 162 -12 173 -12 c 0
 188 -12 226 -7 305 21 c 0
 345 35 381 66 413 114 c 0
 445 163 461 213 461 265 c 0
 461 325 442 374 413 411 c 0
 398 430 378 455 352 487 c 0
 301 551 291 574 291 597 c 2
 294 628 l 2
 294 636 292 640 277 640 c 0
152 293 m 2
 131 358 128 396 128 431 c 0
 128 490 143 536 173 569 c 0
 203 602 237 619 275 619 c 1
 267 587 266 581 266 562 c 0
 266 548 268 533 271 516 c 0
 275 499 285 469 300 424 c 0
 316 379 328 343 337 315 c 0
 346 287 350 254 350 216 c 0
 350 156 333 106 298 67 c 0
 263 28 224 9 181 9 c 1
 202 46 208 57 208 90 c 0
 208 115 201 144 196 161 c 2
 152 293 l 2
EndSplineSet
EndChar

StartChar: afii10033
Encoding: 1055 1055 33
Width: 556
Flags: W
LayerCount: 2
Fore
SplineSet
31 0 m 1
 255 0 l 1
 255 21 l 1
 200 21 l 1
 200 607 l 1
 355 607 l 1
 355 21 l 1
 300 21 l 1
 300 0 l 1
 525 0 l 1
 525 21 l 1
 469 21 l 1
 469 607 l 1
 525 607 l 1
 525 628 l 1
 31 628 l 1
 31 607 l 1
 86 607 l 1
 86 21 l 1
 31 21 l 1
 31 0 l 1
EndSplineSet
EndChar

StartChar: afii10044
Encoding: 1066 1066 34
Width: 515
Flags: W
LayerCount: 2
Fore
SplineSet
495 0 m 1
 495 21 l 1
 463 21 453 23 437 70 c 2
 379 244 l 1
 427 244 l 1
 427 266 l 1
 278 266 l 1
 271 247 l 1
 346 20 l 1
 183 20 l 1
 374 607 l 1
 420 607 l 1
 420 628 l 1
 34 628 l 1
 51 579 63 530 69 481 c 0
 72 468 75 462 79 462 c 0
 86 462 93 481 113 538 c 0
 123 567 133 585 143 593 c 0
 153 602 174 606 205 606 c 2
 254 606 l 1
 57 0 l 1
 495 0 l 1
EndSplineSet
EndChar

StartChar: afii10034
Encoding: 1056 1056 35
Width: 519
Flags: W
LayerCount: 2
Fore
SplineSet
27 0 m 1
 241 0 l 1
 241 21 l 1
 193 21 l 1
 193 203 l 2
 193 234 194 254 195 263 c 0
 196 272 200 281 206 288 c 2
 233 322 l 1
 265 362 l 1
 276 374 l 2
 277 375 279 377 283 379 c 2
 299 375 l 2
 323 366 357 351 389 351 c 0
 424 351 451 365 471 392 c 0
 491 420 501 451 501 486 c 0
 501 537 484 575 451 600 c 0
 418 625 379 637 334 637 c 0
 286 637 237 626 186 603 c 0
 135 581 105 562 95 546 c 0
 85 530 80 518 79 510 c 0
 78 502 78 477 78 436 c 2
 78 21 l 1
 27 21 l 1
 27 0 l 1
193 483 m 2
 193 516 193 538 194 547 c 0
 195 556 199 565 205 572 c 0
 217 588 261 611 308 611 c 0
 330 611 351 603 371 587 c 0
 391 572 401 543 401 502 c 0
 401 481 397 459 389 436 c 0
 382 413 367 402 345 402 c 0
 337 402 333 403 306 410 c 2
 284 415 l 2
 281 415 278 413 275 409 c 2
 241 366 l 1
 214 332 l 2
 203 321 201 320 198 320 c 0
 196 320 194 323 193 329 c 2
 193 483 l 2
EndSplineSet
EndChar

StartChar: afii10035
Encoding: 1057 1057 36
Width: 499
Flags: W
LayerCount: 2
Fore
SplineSet
482 411 m 1
 482 432 l 1
 444 432 l 1
 433 480 424 510 388 554 c 0
 353 598 298 636 243 636 c 0
 191 636 142 606 95 546 c 0
 49 487 26 422 26 351 c 0
 26 324 31 297 40 270 c 0
 50 243 70 208 99 167 c 0
 128 126 148 96 159 77 c 0
 170 58 175 38 175 17 c 0
 175 4 173 -3 170 -12 c 1
 194 -12 l 2
 217 -12 240 -10 262 -5 c 0
 284 -1 313 13 350 36 c 0
 425 84 453 168 453 248 c 1
 493 248 l 1
 493 270 l 1
 307 270 l 1
 307 248 l 1
 349 248 l 1
 349 217 348 192 346 172 c 0
 344 153 337 129 325 100 c 0
 302 44 256 7 216 7 c 2
 195 9 l 1
 197 45 l 2
 197 74 191 105 170 176 c 0
 149 247 136 299 136 367 c 0
 136 436 148 494 171 541 c 0
 194 588 218 611 241 611 c 0
 276 611 334 554 336 432 c 1
 293 432 l 1
 293 411 l 1
 482 411 l 1
EndSplineSet
EndChar

StartChar: afii10036
Encoding: 1058 1058 37
Width: 611
Flags: W
LayerCount: 2
Fore
SplineSet
177 607 m 1
 246 607 l 1
 246 21 l 1
 187 21 l 1
 187 0 l 1
 419 0 l 1
 419 21 l 1
 360 21 l 1
 360 607 l 1
 436 607 l 1
 481 481 l 2
 492 449 497 437 505 437 c 0
 511 437 514 442 514 451 c 0
 514 475 520 499 532 524 c 0
 545 549 556 570 566 585 c 0
 586 616 589 621 589 626 c 0
 588 627 588 628 588 629 c 0
 587 631 585 632 582 632 c 2
 564 630 l 2
 557 630 530 628 510 628 c 2
 481 628 l 1
 140 628 l 2
 120 628 83 631 54 634 c 2
 32 637 l 2
 25 637 22 634 22 628 c 0
 22 621 24 619 45 594 c 0
 56 581 65 566 73 548 c 0
 81 531 87 510 90 486 c 0
 93 463 96 449 97 445 c 0
 99 442 102 440 105 440 c 0
 114 440 116 443 121 458 c 2
 129 482 l 1
 177 607 l 1
EndSplineSet
EndChar

StartChar: uniA64A
Encoding: 42570 42570 38
Width: 528
Flags: W
LayerCount: 2
Fore
SplineSet
292 224 m 1
 288 165 l 1
 234 165 197 155 177 136 c 0
 157 117 147 96 147 73 c 0
 147 16 201 -14 301 -14 c 0
 400 -14 456 21 456 73 c 0
 456 130 408 165 315 165 c 1
 315 196 318 236 324 287 c 0
 331 338 337 377 343 406 c 0
 356 463 387 498 434 498 c 0
 452 501 478 485 493 483 c 0
 499 486 502 488 502 491 c 2
 499 501 l 2
 490 518 485 543 485 559 c 0
 485 584 498 618 503 623 c 0
 506 628 508 633 508 636 c 0
 508 640 505 642 499 642 c 0
 450 642 410 625 367 566 c 0
 346 537 330 499 320 451 c 0
 311 403 302 335 294 248 c 1
 234 248 l 1
 232 282 l 1
 232 393 213 513 182 628 c 1
 50 628 l 1
 78 560 97 504 108 460 c 0
 119 417 125 338 125 224 c 1
 292 224 l 1
385 56 m 1
 385 78 l 1
 337 78 316 90 316 145 c 1
 346 145 373 139 398 128 c 0
 423 117 436 99 436 74 c 0
 436 30 382 4 301 4 c 0
 268 4 237 9 208 20 c 0
 180 31 166 49 166 73 c 0
 166 109 204 145 288 145 c 1
 285 114 280 94 273 87 c 0
 267 80 250 77 222 77 c 1
 222 56 l 1
 385 56 l 1
EndSplineSet
EndChar

StartChar: afii10019
Encoding: 1042 1042 39
Width: 519
Flags: W
LayerCount: 2
Fore
SplineSet
29 0 m 1
 489 0 l 1
 489 21 l 1
 446 21 l 1
 446 208 l 1
 347 225 283 268 207 328 c 1
 288 459 l 1
 323 438 335 435 366 435 c 0
 397 435 420 445 435 466 c 0
 450 487 458 509 458 530 c 0
 458 602 394 637 293 637 c 0
 225 637 153 619 117 571 c 0
 99 548 88 525 84 503 c 0
 81 482 79 451 79 411 c 2
 79 21 l 1
 29 21 l 1
 29 0 l 1
194 351 m 1
 194 465 l 2
 194 510 199 546 209 573 c 0
 220 600 245 614 285 614 c 0
 342 614 374 576 374 535 c 0
 374 499 357 472 318 472 c 0
 303 472 289 477 277 482 c 1
 200 350 l 1
 194 351 l 1
342 21 m 1
 265 21 l 2
 234 21 214 23 206 27 c 0
 198 31 194 43 194 63 c 2
 194 309 l 1
 198 312 l 1
 245 269 297 240 342 219 c 1
 342 21 l 1
EndSplineSet
EndChar

StartChar: afii10042
Encoding: 1064 1064 40
Width: 796
Flags: W
LayerCount: 2
Fore
SplineSet
36 0 m 1
 763 0 l 1
 763 21 l 1
 714 21 l 1
 714 607 l 1
 763 607 l 1
 763 628 l 1
 550 628 l 1
 550 607 l 1
 601 607 l 1
 601 21 l 1
 457 21 l 1
 457 607 l 1
 508 607 l 1
 508 628 l 1
 292 628 l 1
 292 607 l 1
 343 607 l 1
 343 21 l 1
 199 21 l 1
 199 607 l 1
 250 607 l 1
 250 628 l 1
 36 628 l 1
 36 607 l 1
 85 607 l 1
 85 21 l 1
 36 21 l 1
 36 0 l 1
EndSplineSet
EndChar

StartChar: afii10045
Encoding: 1067 1067 41
Width: 741
Flags: W
LayerCount: 2
Fore
SplineSet
189 21 m 1
 189 377 l 1
 193 382 l 1
 225 357 259 338 300 323 c 2
 318 317 l 2
 334 312 333 299 333 264 c 2
 333 244 l 1
 333 21 l 1
 189 21 l 1
666 21 m 1
 666 607 l 1
 721 607 l 1
 721 628 l 1
 497 628 l 1
 497 607 l 1
 552 607 l 1
 552 21 l 1
 497 21 l 1
 497 0 l 1
 721 0 l 1
 721 21 l 1
 666 21 l 1
189 607 m 1
 244 607 l 1
 244 628 l 1
 20 628 l 1
 20 607 l 1
 75 607 l 1
 75 21 l 1
 20 21 l 1
 20 0 l 1
 451 0 l 1
 446 19 442 39 441 60 c 0
 440 81 440 131 440 208 c 0
 440 209 440 225 441 256 c 0
 442 287 443 311 443 329 c 1
 351 329 268 344 189 409 c 1
 189 607 l 1
EndSplineSet
EndChar

StartChar: afii10025
Encoding: 1047 1047 42
Width: 601
Flags: W
LayerCount: 2
Fore
SplineSet
255 251 m 1
 307 306 331 319 363 319 c 0
 386 319 407 309 427 290 c 0
 447 271 457 237 457 189 c 0
 457 93 413 20 322 20 c 0
 286 20 239 36 179 65 c 0
 150 80 130 89 119 92 c 0
 109 95 99 97 89 97 c 0
 48 97 19 63 19 27 c 0
 19 -12 49 -37 84 -37 c 0
 117 -37 137 -13 137 12 c 1
 134 28 l 1
 132 38 l 2
 133 45 135 51 147 51 c 0
 154 51 169 44 194 31 c 0
 219 18 245 8 272 -1 c 0
 299 -10 331 -14 368 -14 c 0
 423 -14 471 3 511 37 c 0
 551 72 571 117 571 174 c 0
 571 266 513 315 408 334 c 1
 408 342 l 1
 442 355 471 371 494 390 c 0
 518 409 530 438 530 477 c 0
 530 517 514 554 481 587 c 0
 448 620 400 637 335 637 c 0
 287 637 227 624 192 605 c 0
 175 596 161 589 152 586 c 0
 140 586 134 592 123 609 c 2
 108 630 l 2
 107 633 104 635 100 637 c 0
 89 637 89 635 89 591 c 2
 90 474 l 2
 90 449 91 443 98 443 c 0
 102 443 108 455 117 478 c 0
 126 501 144 528 169 558 c 0
 194 588 233 603 284 603 c 0
 329 603 364 588 388 559 c 0
 413 530 425 495 425 455 c 0
 425 391 386 348 346 348 c 0
 315 348 291 368 252 407 c 1
 166 328 l 1
 255 251 l 1
EndSplineSet
EndChar

StartChar: afii10094
Encoding: 1100 1100 43
Width: 463
Flags: W
LayerCount: 2
Fore
SplineSet
94 451 m 1
 87 400 80 326 73 230 c 0
 66 135 63 58 63 0 c 1
 441 0 l 1
 445 7 l 1
 432 42 413 88 388 146 c 0
 363 204 347 240 339 253 c 0
 332 266 325 273 319 273 c 0
 316 273 305 269 288 262 c 0
 271 255 258 249 250 246 c 2
 179 215 l 1
 179 235 182 273 187 328 c 0
 193 384 198 425 202 451 c 1
 94 451 l 1
210 204 m 2
 217 207 223 211 230 211 c 0
 241 211 247 199 252 187 c 0
 255 181 260 168 268 148 c 0
 277 129 284 112 289 97 c 2
 307 51 l 1
 311 34 l 2
 311 22 311 21 264 21 c 2
 172 21 l 2
 172 23 173 41 174 74 c 0
 176 107 177 140 177 173 c 0
 177 183 183 191 194 196 c 2
 210 204 l 2
EndSplineSet
EndChar

StartChar: uni0486
Encoding: 1158 1158 44
Width: 2
Flags: HW
AnchorPoint: "Above" -203 570 mark 0
LayerCount: 2
Fore
SplineSet
-196 782 m 0
 -223 782 -249 770 -274 746 c 0
 -299 722 -312 700 -312 681 c 0
 -312 673 -308 669 -300 669 c 0
 -286 669 -263 719 -218 715 c 0
 -194 715 -166 697 -166 665 c 0
 -166 641 -179 613 -187 601 c 0
 -195 589 -197 584 -197 580 c 0
 -197 573 -194 570 -187 570 c 0
 -174 570 -158 584 -139 613 c 0
 -120 642 -110 672 -110 703 c 0
 -110 748 -147 782 -196 782 c 0
EndSplineSet
EndChar

StartChar: afii10065
Encoding: 1072 1072 45
Width: 370
Flags: W
LayerCount: 2
Fore
SplineSet
340 -1 m 1
 326 49 313 124 300 225 c 0
 288 326 282 401 282 451 c 1
 182 451 l 1
 184 402 l 2
 184 371 179 345 168 326 c 0
 158 307 137 271 106 220 c 0
 75 169 54 134 43 113 c 0
 32 92 26 72 26 52 c 0
 26 12 48 -6 81 -6 c 0
 105 -6 129 7 141 30 c 0
 158 55 179 98 184 114 c 0
 189 130 195 138 200 138 c 0
 208 138 208 127 209 118 c 2
 216 71 l 1
 226 -1 l 1
 340 -1 l 1
194 309 m 1
 202 197 l 2
 202 182 201 180 186 157 c 2
 181 150 l 1
 160 114 l 2
 143 83 127 76 111 76 c 0
 92 76 82 87 82 108 c 0
 82 117 83 126 86 133 c 0
 89 140 97 154 110 175 c 2
 135 216 l 1
 187 309 l 1
 194 309 l 1
EndSplineSet
EndChar

StartChar: afii10066
Encoding: 1073 1073 46
Width: 481
Flags: W
LayerCount: 2
Fore
SplineSet
61 0 m 1
 437 0 l 1
 416 57 396 102 377 135 c 0
 358 168 337 201 314 233 c 1
 173 187 l 1
 182 361 l 2
 182 416 184 422 191 426 c 0
 194 428 204 429 221 429 c 2
 265 429 l 1
 276 429 l 2
 299 429 309 428 316 427 c 0
 325 420 343 385 355 352 c 0
 368 319 368 321 373 321 c 0
 380 321 380 320 392 361 c 0
 399 382 409 405 423 431 c 1
 427 444 l 2
 427 449 424 451 417 451 c 2
 82 451 l 1
 61 0 l 1
172 159 m 1
 235 180 l 1
 276 121 301 72 322 20 c 1
 166 20 l 1
 172 159 l 1
EndSplineSet
EndChar

StartChar: afii10088
Encoding: 1094 1094 47
Width: 556
Flags: W
LayerCount: 2
Fore
SplineSet
74 451 m 2
 74 449 73 402 70 310 c 0
 68 218 67 126 67 33 c 0
 67 2 76 0 116 0 c 2
 390 0 l 2
 418 0 434 -3 439 -8 c 0
 444 -13 446 -31 446 -60 c 0
 446 -175 457 -249 477 -249 c 0
 481 -249 484 -246 487 -241 c 2
 502 -162 l 2
 507 -141 514 -110 523 -68 c 0
 532 -26 537 -3 537 1 c 0
 537 16 523 18 512 18 c 2
 475 18 l 2
 416 18 426 25 426 112 c 0
 426 223 428 343 443 451 c 1
 330 451 l 1
 326 411 323 375 321 343 c 0
 320 311 319 270 319 219 c 0
 319 194 320 167 320 139 c 2
 320 127 l 1
 320 113 l 1
 320 98 l 1
 320 81 l 1
 320 64 l 2
 320 24 318 18 290 18 c 2
 231 18 l 2
 200 18 194 21 186 30 c 0
 178 41 174 98 174 193 c 0
 175 234 177 279 178 328 c 0
 180 377 183 418 187 451 c 1
 74 451 l 2
EndSplineSet
EndChar

StartChar: afii10069
Encoding: 1076 1076 48
Width: 500
Flags: W
LayerCount: 2
Fore
SplineSet
355 0 m 1
 364 -139 l 2
 364 -168 368 -182 376 -182 c 0
 380 -182 385 -175 391 -160 c 2
 407 -124 l 1
 456 -10 l 1
 470 21 l 1
 429 21 404 22 396 23 c 0
 389 25 382 34 375 51 c 0
 368 68 356 125 338 222 c 0
 320 320 311 396 311 451 c 1
 198 451 l 1
 204 388 l 1
 216 300 l 1
 189 234 l 2
 166 177 150 139 143 118 c 0
 136 98 129 79 122 61 c 0
 109 25 110 26 102 23 c 2
 21 21 l 1
 34 -2 44 -24 51 -46 c 0
 59 -68 70 -102 84 -149 c 2
 90 -169 l 2
 92 -178 95 -182 100 -182 c 0
 108 -182 108 -177 113 -149 c 2
 117 -124 l 1
 139 0 l 1
 355 0 l 1
136 21 m 1
 187 158 l 1
 224 251 l 1
 234 204 l 1
 245 151 l 1
 253 115 l 1
 260 85 l 1
 275 21 l 1
 136 21 l 1
EndSplineSet
EndChar

StartChar: afii10070
Encoding: 1077 1077 49
Width: 315
Flags: W
LayerCount: 2
Fore
SplineSet
62 -1 m 1
 95 -3 l 2
 139 -3 174 10 199 35 c 0
 225 61 238 83 238 100 c 0
 238 109 234 114 227 114 c 0
 224 114 218 111 207 106 c 2
 199 102 l 1
 151 78 l 1
 151 172 l 1
 216 195 l 2
 251 208 255 213 255 237 c 2
 255 299 l 1
 150 259 l 1
 150 287 l 2
 150 350 171 380 224 385 c 0
 251 388 264 393 265 399 c 2
 265 462 l 1
 228 462 200 461 182 458 c 0
 165 455 144 449 121 438 c 0
 74 418 62 374 62 265 c 2
 62 -1 l 1
EndSplineSet
EndChar

StartChar: afii10086
Encoding: 1092 1092 50
Width: 704
Flags: W
LayerCount: 2
Fore
SplineSet
292 590 m 2
 241 585 236 584 236 568 c 0
 236 556 241 554 269 554 c 2
 282 554 l 2
 295 554 297 548 297 517 c 0
 297 477 292 445 281 422 c 0
 271 399 244 372 200 339 c 2
 135 292 l 2
 63 239 27 185 27 128 c 0
 27 49 82 -12 169 -12 c 0
 220 -12 254 6 301 38 c 1
 290 -137 l 2
 290 -185 285 -195 262 -200 c 0
 241 -207 235 -208 235 -219 c 0
 235 -227 240 -232 251 -233 c 2
 278 -233 l 1
 422 -233 l 2
 462 -233 470 -231 470 -219 c 0
 470 -212 463 -206 448 -202 c 0
 433 -198 424 -192 420 -184 c 0
 417 -177 415 -161 415 -137 c 2
 404 38 l 1
 431 20 453 7 470 0 c 0
 487 -8 509 -12 535 -12 c 0
 578 -12 613 2 638 29 c 0
 664 57 677 90 677 128 c 0
 677 159 668 187 651 212 c 0
 634 238 596 272 537 315 c 0
 478 358 442 391 428 413 c 0
 415 436 408 482 408 553 c 0
 408 564 416 570 433 573 c 0
 450 576 460 578 464 579 c 0
 468 581 470 585 470 592 c 0
 470 602 465 607 455 607 c 2
 433 605 l 1
 417 604 l 1
 292 590 l 2
313 159 m 2
 313 87 298 44 231 44 c 0
 206 44 183 51 162 65 c 0
 141 80 130 104 130 137 c 0
 130 177 148 204 191 253 c 0
 213 278 233 302 252 326 c 0
 291 374 307 411 312 411 c 0
 313 410 319 406 319 399 c 2
 317 334 l 1
 313 159 l 2
386 402 m 2
 386 404 388 407 392 411 c 1
 402 405 393 408 448 331 c 0
 467 306 489 280 513 253 c 0
 537 226 553 205 562 190 c 0
 571 175 575 157 575 136 c 0
 575 104 564 81 543 66 c 0
 522 51 499 44 474 44 c 0
 447 44 426 51 412 66 c 0
 398 81 391 112 391 159 c 2
 386 402 l 2
EndSplineSet
EndChar

StartChar: afii10068
Encoding: 1075 1075 51
Width: 389
Flags: W
LayerCount: 2
Fore
SplineSet
176 0 m 1
 163 79 157 155 157 229 c 0
 157 281 158 320 160 345 c 0
 162 370 165 398 169 427 c 1
 238 427 l 2
 244 427 248 425 251 422 c 0
 254 419 261 406 272 383 c 0
 293 336 309 308 325 308 c 0
 330 308 332 313 332 324 c 0
 332 348 342 388 357 417 c 2
 369 444 l 2
 369 449 364 451 353 451 c 2
 297 451 l 1
 62 451 l 1
 58 406 55 372 54 349 c 0
 53 326 52 289 52 239 c 0
 52 159 56 71 65 0 c 1
 176 0 l 1
EndSplineSet
EndChar

StartChar: afii10087
Encoding: 1093 1093 52
Width: 426
Flags: W
LayerCount: 2
Fore
SplineSet
153 177 m 1
 35 -162 l 2
 30 -179 21 -198 21 -213 c 0
 21 -233 40 -237 55 -237 c 0
 90 -237 90 -220 99 -183 c 2
 103 -163 l 1
 173 131 l 1
 302 -191 l 1
 362 -191 l 2
 402 -191 408 -189 408 -180 c 0
 408 -177 406 -170 401 -157 c 2
 394 -141 l 1
 392 -135 l 1
 222 278 l 1
 235 329 255 373 288 373 c 0
 301 376 351 344 353 343 c 0
 356 343 358 347 359 354 c 2
 353 405 l 2
 353 412 365 421 377 438 c 0
 383 447 386 453 386 455 c 0
 386 462 380 466 367 466 c 0
 307 466 267 451 248 422 c 0
 229 393 216 356 210 309 c 1
 202 309 l 1
 170 405 l 1
 162 427 l 2
 153 454 152 451 139 451 c 2
 122 451 l 1
 87 451 l 2
 52 451 50 448 50 437 c 0
 50 432 56 415 64 394 c 2
 70 379 l 1
 75 368 l 1
 153 177 l 1
EndSplineSet
EndChar

StartChar: afii10074
Encoding: 1080 1080 53
Width: 500
Flags: W
LayerCount: 2
Fore
SplineSet
173 0 m 1
 171 67 l 2
 171 81 171 110 172 153 c 0
 173 196 173 225 173 239 c 1
 321 307 l 1
 317 169 l 2
 317 153 318 126 321 88 c 0
 324 50 325 21 325 0 c 1
 433 0 l 1
 428 38 425 66 424 84 c 0
 423 102 423 143 423 208 c 0
 423 249 424 292 425 337 c 0
 426 383 429 421 432 451 c 1
 329 451 l 1
 329 432 328 408 325 381 c 0
 323 354 322 338 322 332 c 1
 173 264 l 1
 173 301 174 330 176 349 c 0
 178 368 182 402 188 451 c 1
 89 451 l 1
 73 378 69 315 69 235 c 2
 68 0 l 1
 173 0 l 1
EndSplineSet
EndChar

StartChar: afii10072
Encoding: 1078 1078 54
Width: 741
Flags: W
LayerCount: 2
Fore
SplineSet
133 0 m 1
 133 127 201 217 310 262 c 1
 310 238 311 213 311 186 c 2
 311 174 l 1
 311 159 l 1
 311 142 l 1
 311 122 l 2
 311 74 310 25 307 0 c 1
 422 0 l 1
 415 72 417 125 417 190 c 0
 417 209 421 224 434 224 c 0
 463 224 494 203 526 160 c 0
 558 117 579 64 589 0 c 1
 712 0 l 1
 697 73 671 131 635 176 c 0
 600 221 565 252 531 270 c 0
 497 288 462 303 425 315 c 1
 470 370 513 405 540 405 c 0
 557 405 572 396 591 372 c 0
 610 349 624 331 633 331 c 0
 646 331 646 355 657 395 c 0
 662 415 666 429 669 437 c 2
 674 458 l 2
 674 470 669 470 638 470 c 0
 562 470 494 433 425 352 c 1
 416 354 l 1
 416 382 420 422 420 451 c 1
 307 451 l 1
 310 428 312 406 312 386 c 2
 312 373 l 1
 312 355 l 1
 307 352 l 1
 240 415 186 459 119 459 c 0
 78 459 54 448 47 426 c 0
 41 404 38 385 38 370 c 0
 38 333 49 278 60 242 c 1
 159 271 l 1
 151 303 147 321 147 348 c 0
 147 369 152 386 176 386 c 0
 192 386 213 376 238 356 c 0
 264 337 287 317 308 296 c 1
 224 260 161 227 102 159 c 0
 73 126 55 98 47 75 c 0
 39 52 33 27 30 0 c 1
 133 0 l 1
EndSplineSet
EndChar

StartChar: afii10076
Encoding: 1082 1082 55
Width: 537
Flags: W
LayerCount: 2
Fore
SplineSet
172 0 m 1
 170 113 l 2
 170 123 170 140 171 165 c 0
 172 190 172 210 172 225 c 2
 179 397 l 1
 181 451 l 1
 74 451 l 1
 70 268 l 2
 69 209 68 154 67 103 c 0
 66 52 66 18 66 0 c 1
 172 0 l 1
504 0 m 1
 483 100 451 166 409 197 c 0
 368 228 318 244 261 244 c 1
 252 247 l 1
 266 276 283 305 302 334 c 0
 321 363 345 377 372 377 c 0
 393 377 414 372 435 361 c 2
 452 354 l 2
 457 354 459 356 459 361 c 2
 457 371 l 2
 453 380 451 391 451 402 c 0
 445 431 488 464 489 476 c 0
 489 483 480 487 463 487 c 0
 387 487 347 446 306 389 c 0
 286 360 268 330 252 298 c 0
 237 267 229 243 229 227 c 0
 229 216 237 215 281 199 c 0
 303 192 326 177 349 154 c 0
 373 131 385 93 385 39 c 2
 383 9 l 2
 383 4 387 1 395 0 c 2
 504 0 l 1
EndSplineSet
EndChar

StartChar: afii10077
Encoding: 1083 1083 56
Width: 444
Flags: W
LayerCount: 2
Fore
SplineSet
242 451 m 1
 244 434 l 1
 248 400 l 2
 248 395 253 361 253 348 c 0
 253 343 241 328 218 301 c 0
 195 275 159 224 109 148 c 0
 60 72 35 27 35 12 c 0
 35 4 40 0 49 0 c 2
 151 0 l 1
 144 15 141 31 141 47 c 0
 141 80 150 117 168 158 c 0
 186 200 207 238 230 272 c 2
 242 289 l 1
 251 298 l 1
 257 296 l 1
 276 160 l 2
 279 137 283 106 290 66 c 0
 297 26 302 5 305 3 c 0
 312 -1 357 -1 394 -1 c 0
 405 -1 411 4 411 13 c 0
 410 16 410 19 409 23 c 0
 409 28 404 52 394 96 c 0
 385 140 376 195 369 260 c 0
 362 326 358 390 358 451 c 1
 242 451 l 1
EndSplineSet
EndChar

StartChar: afii10078
Encoding: 1084 1084 57
Width: 722
Flags: W
LayerCount: 2
Fore
SplineSet
193 451 m 1
 200 431 204 409 204 386 c 0
 204 356 181 307 134 238 c 0
 88 170 59 121 46 91 c 0
 34 62 28 31 28 0 c 1
 162 0 l 1
 149 19 140 41 140 89 c 0
 140 119 145 150 156 182 c 0
 167 214 189 261 223 323 c 1
 229 323 l 1
 281 0 l 1
 410 0 l 1
 397 23 391 37 391 61 c 0
 391 84 405 130 432 199 c 0
 459 269 483 320 504 353 c 1
 510 354 l 1
 519 263 527 193 536 144 c 0
 545 96 555 48 568 0 c 1
 683 0 l 1
 660 73 642 148 629 223 c 0
 616 299 609 359 609 404 c 2
 611 451 l 1
 484 451 l 1
 484 422 484 403 483 394 c 0
 482 385 475 368 462 341 c 0
 449 314 437 287 424 259 c 0
 412 231 397 191 378 139 c 1
 370 138 l 1
 357 187 345 240 336 297 c 0
 327 354 322 406 322 451 c 1
 193 451 l 1
EndSplineSet
EndChar

StartChar: afii10079
Encoding: 1085 1085 58
Width: 500
Flags: W
LayerCount: 2
Fore
SplineSet
171 0 m 1
 169 99 l 2
 169 120 170 154 172 202 c 0
 175 250 176 286 176 310 c 1
 319 242 l 1
 319 224 320 189 321 137 c 0
 323 86 324 40 324 0 c 1
 432 0 l 1
 427 57 425 98 424 122 c 2
 424 207 l 2
 424 278 424 327 425 354 c 0
 426 381 429 413 433 451 c 1
 330 451 l 1
 325 406 322 375 321 358 c 0
 320 342 320 311 320 266 c 1
 178 333 l 1
 178 364 178 383 179 392 c 0
 180 401 184 420 189 451 c 1
 90 451 l 1
 83 390 77 328 73 266 c 0
 69 204 67 115 67 0 c 1
 171 0 l 1
EndSplineSet
EndChar

StartChar: afii10080
Encoding: 1086 1086 59
Width: 482
Flags: W
LayerCount: 2
Fore
SplineSet
32 200 m 0
 32 161 49 115 82 64 c 0
 115 13 154 -13 199 -13 c 0
 260 -13 324 25 375 64 c 0
 427 104 450 144 450 212 c 0
 450 267 432 321 396 376 c 0
 361 431 325 459 288 459 c 0
 256 459 197 433 126 385 c 0
 57 337 32 280 32 200 c 0
114 278 m 0
 114 323 123 341 148 361 c 0
 175 382 195 388 214 388 c 0
 251 388 285 358 317 299 c 0
 350 240 366 190 366 149 c 0
 366 115 355 89 334 71 c 0
 313 54 292 45 271 45 c 0
 233 45 197 74 164 133 c 0
 131 192 114 241 114 278 c 0
EndSplineSet
EndChar

StartChar: afii10081
Encoding: 1087 1087 60
Width: 519
Flags: W
LayerCount: 2
Fore
SplineSet
181 0 m 1
 175 41 171 77 168 108 c 0
 165 139 164 183 164 242 c 0
 164 322 168 365 175 425 c 1
 343 425 l 1
 336 357 333 310 333 237 c 0
 333 194 334 157 335 125 c 0
 337 94 340 52 345 0 c 1
 460 0 l 1
 452 43 447 82 444 115 c 0
 442 149 441 189 441 234 c 0
 441 293 442 337 444 364 c 0
 447 391 450 420 455 451 c 1
 67 451 l 1
 67 441 65 411 62 361 c 0
 59 312 58 267 58 228 c 0
 58 195 59 157 61 114 c 0
 63 72 66 34 69 0 c 1
 181 0 l 1
EndSplineSet
EndChar

StartChar: afii10092
Encoding: 1098 1098 61
Width: 463
Flags: W
LayerCount: 2
Fore
SplineSet
64 265 m 1
 166 265 l 1
 170 390 l 2
 170 427 172 430 205 430 c 2
 305 430 l 1
 46 8 l 1
 46 0 l 1
 430 0 l 1
 429 11 l 1
 373 208 l 1
 287 179 l 1
 313 61 l 1
 318 30 l 2
 318 19 317 20 286 20 c 2
 213 20 l 2
 195 20 186 23 186 29 c 2
 190 41 l 1
 428 440 l 1
 428 451 l 1
 75 451 l 1
 64 265 l 1
EndSplineSet
EndChar

StartChar: afii10082
Encoding: 1088 1088 62
Width: 352
Flags: W
LayerCount: 2
Fore
SplineSet
289 457 m 1
 277 457 l 2
 236 457 206 452 158 408 c 0
 111 365 63 286 63 167 c 0
 63 149 65 122 69 86 c 0
 74 50 77 23 80 5 c 0
 85 -31 87 -56 87 -112 c 0
 87 -159 83 -195 68 -215 c 0
 55 -235 56 -237 56 -238 c 0
 56 -245 60 -249 67 -249 c 0
 82 -249 111 -226 139 -181 c 0
 168 -137 175 -94 175 -27 c 0
 175 -14 175 -6 176 -3 c 0
 177 0 190 3 213 8 c 0
 237 13 257 32 272 64 c 0
 287 96 295 133 295 174 c 0
 295 175 292 204 287 260 c 0
 282 317 280 352 280 367 c 0
 280 404 284 428 289 457 c 1
232 240 m 2
 239 223 245 203 245 179 c 0
 245 120 205 106 157 99 c 1
 152 127 148 136 139 161 c 0
 131 186 123 212 123 231 c 0
 123 287 155 304 206 319 c 1
 232 240 l 2
EndSplineSet
EndChar

StartChar: afii10083
Encoding: 1089 1089 63
Width: 333
Flags: W
LayerCount: 2
Fore
SplineSet
279 461 m 1
 212 461 160 450 124 428 c 0
 89 406 71 357 71 280 c 2
 75 101 l 2
 75 88 74 68 72 42 c 0
 71 16 70 -3 70 -14 c 1
 108 -14 138 -12 159 -8 c 0
 180 -4 201 7 220 25 c 0
 259 61 281 117 281 141 c 0
 281 154 276 161 267 161 c 0
 258 161 250 152 229 129 c 0
 208 106 191 95 182 95 c 0
 163 95 167 128 167 159 c 0
 167 238 172 288 182 309 c 0
 192 330 210 342 235 345 c 0
 261 348 275 352 276 355 c 0
 278 358 279 368 279 384 c 2
 279 399 l 1
 279 461 l 1
EndSplineSet
EndChar

StartChar: afii10084
Encoding: 1090 1090 64
Width: 630
Flags: W
LayerCount: 2
Fore
SplineSet
157 199 m 2
 157 200 156 216 155 246 c 0
 154 276 154 300 154 319 c 2
 154 427 l 1
 279 427 l 1
 277 240 l 2
 277 202 278 157 279 105 c 0
 281 54 282 19 282 0 c 1
 391 0 l 1
 387 32 384 59 383 81 c 0
 382 103 382 152 382 227 c 0
 382 246 383 278 384 322 c 0
 385 367 386 402 386 427 c 1
 460 427 l 2
 470 427 477 425 481 420 c 0
 486 416 493 401 504 374 c 0
 525 321 533 302 544 302 c 0
 552 302 557 312 561 320 c 2
 594 394 l 2
 609 426 612 433 612 440 c 0
 612 451 610 451 565 451 c 2
 32 451 l 2
 24 451 19 450 19 442 c 0
 19 433 43 426 48 421 c 0
 51 418 52 413 52 406 c 2
 52 199 l 1
 157 199 l 2
EndSplineSet
EndChar

StartChar: uniA64B
Encoding: 42571 42571 65
Width: 507
Flags: W
LayerCount: 2
Fore
SplineSet
153 659 m 1
 95 630 58 609 43 595 c 0
 28 582 20 569 20 556 c 0
 20 533 38 498 74 451 c 0
 111 404 155 352 208 293 c 1
 165 244 136 205 123 177 c 0
 110 149 103 123 103 100 c 0
 103 28 154 -13 257 -13 c 0
 370 -13 428 43 428 118 c 0
 428 159 416 196 393 230 c 0
 370 264 336 305 291 352 c 1
 356 441 414 523 465 598 c 0
 516 674 542 725 542 750 c 0
 542 765 535 772 522 772 c 0
 514 772 499 767 476 757 c 0
 454 748 436 739 421 731 c 0
 406 724 390 715 373 704 c 0
 356 693 348 686 348 681 c 0
 348 675 352 672 359 672 c 0
 368 672 410 686 426 686 c 0
 441 686 449 679 449 665 c 0
 449 652 428 613 388 549 c 0
 369 518 352 491 338 469 c 0
 324 447 303 415 274 373 c 1
 169 489 114 562 114 585 c 0
 114 602 125 609 170 642 c 1
 153 659 l 1
228 274 m 1
 288 206 332 160 332 92 c 0
 332 44 293 14 240 14 c 0
 183 14 133 46 133 99 c 0
 133 152 177 215 228 274 c 1
EndSplineSet
EndChar

StartChar: afii10067
Encoding: 1074 1074 66
Width: 500
Flags: W
LayerCount: 2
Fore
SplineSet
67 451 m 1
 68 306 l 1
 66 123 l 1
 67 32 l 2
 67 13 71 3 78 2 c 0
 86 1 101 0 122 0 c 2
 400 0 l 1
 459 1 l 2
 465 2 468 5 468 11 c 0
 468 15 465 23 460 34 c 2
 455 44 l 1
 387 212 l 1
 379 230 l 2
 363 262 360 267 341 267 c 0
 330 267 286 260 261 258 c 1
 259 265 l 1
 389 415 l 2
 397 426 409 439 409 444 c 0
 409 449 405 451 398 451 c 2
 67 451 l 1
172 382 m 2
 172 423 173 424 180 427 c 0
 187 431 212 430 232 430 c 2
 338 430 l 1
 309 369 279 321 247 284 c 0
 215 247 193 229 181 229 c 0
 175 229 172 232 172 239 c 2
 171 279 l 1
 172 382 l 2
171 148 m 2
 171 167 172 178 173 183 c 0
 174 188 180 195 190 203 c 0
 211 220 240 244 251 244 c 0
 262 244 272 221 284 192 c 2
 352 24 l 1
 250 22 l 2
 213 22 182 22 177 30 c 0
 172 39 171 68 171 81 c 2
 171 148 l 2
EndSplineSet
EndChar

StartChar: afii10090
Encoding: 1096 1096 67
Width: 833
Flags: W
LayerCount: 2
Fore
SplineSet
75 451 m 1
 73 373 l 2
 73 323 72 261 70 187 c 0
 69 114 68 51 68 0 c 1
 771 0 l 1
 768 17 763 43 763 98 c 2
 764 318 l 2
 765 357 767 399 767 451 c 1
 652 451 l 1
 651 323 l 2
 652 244 654 160 654 91 c 2
 656 44 l 2
 656 25 651 23 619 23 c 2
 525 23 l 2
 499 23 483 26 476 31 c 0
 470 37 467 54 467 83 c 0
 467 226 473 344 478 451 c 1
 361 451 l 1
 358 82 l 2
 358 26 357 23 324 23 c 2
 303 23 l 1
 210 23 l 2
 191 23 180 25 177 28 c 0
 174 31 173 43 172 64 c 2
 172 121 l 2
 172 237 176 354 185 451 c 1
 75 451 l 1
EndSplineSet
EndChar

StartChar: afii10093
Encoding: 1099 1099 68
Width: 667
Flags: W
LayerCount: 2
Fore
SplineSet
444 0 m 1
 385 139 345 233 332 254 c 0
 320 277 319 276 315 276 c 2
 302 273 l 1
 197 227 l 1
 173 216 l 1
 173 275 181 334 192 419 c 2
 195 451 l 1
 88 451 l 1
 69 292 59 137 59 0 c 1
 444 0 l 1
172 191 m 1
 194 202 l 2
 205 206 218 212 223 212 c 0
 230 212 238 203 247 185 c 0
 256 167 263 150 269 134 c 0
 276 118 282 104 287 91 c 0
 298 67 305 47 305 39 c 0
 305 24 293 20 270 20 c 2
 250 20 l 1
 180 21 l 2
 167 24 165 32 165 47 c 2
 168 125 l 2
 168 134 169 170 172 191 c 1
476 451 m 1
 480 281 l 2
 480 221 481 171 483 131 c 0
 485 92 488 48 493 0 c 1
 603 0 l 1
 595 52 589 99 586 142 c 0
 583 185 581 256 581 355 c 0
 581 356 582 368 583 392 c 0
 584 416 585 436 585 451 c 1
 476 451 l 1
EndSplineSet
EndChar

StartChar: afii10073
Encoding: 1079 1079 69
Width: 618
Flags: W
LayerCount: 2
Fore
SplineSet
171 262 m 1
 170 274 166 290 166 305 c 0
 166 381 219 434 303 434 c 0
 379 434 440 394 440 311 c 0
 440 252 416 208 372 215 c 1
 285 248 l 1
 197 122 l 1
 187 108 l 1
 179 97 l 2
 178 96 175 91 174 87 c 0
 175 84 175 82 184 77 c 2
 243 38 l 2
 248 33 252 31 255 31 c 0
 259 31 263 34 266 40 c 2
 273 49 l 1
 283 64 l 1
 287 69 l 1
 325 122 l 1
 368 102 403 79 429 54 c 0
 456 29 469 -9 469 -59 c 0
 469 -143 419 -188 366 -188 c 0
 330 -188 281 -158 226 -122 c 0
 171 -86 139 -63 87 -63 c 0
 28 -63 0 -109 0 -153 c 0
 0 -182 16 -209 25 -209 c 0
 29 -209 34 -206 40 -200 c 0
 76 -170 105 -155 128 -155 c 0
 177 -155 214 -173 266 -205 c 0
 318 -238 343 -247 387 -247 c 0
 444 -247 490 -226 523 -184 c 0
 557 -142 574 -90 574 -29 c 0
 574 27 558 73 526 108 c 0
 495 143 470 165 451 173 c 0
 414 190 409 192 409 200 c 0
 409 202 412 204 417 206 c 2
 435 205 l 2
 462 205 488 215 512 236 c 0
 536 257 548 284 548 317 c 0
 548 408 457 462 309 462 c 0
 248 462 192 449 142 424 c 0
 92 399 64 348 57 272 c 1
 171 262 l 1
EndSplineSet
EndChar

StartChar: afii10046
Encoding: 1068 1068 70
Width: 500
Flags: W
LayerCount: 2
Fore
SplineSet
196 21 m 1
 196 377 l 1
 200 382 l 1
 232 357 266 338 307 323 c 2
 325 317 l 2
 341 312 340 299 340 264 c 2
 340 244 l 1
 340 21 l 1
 196 21 l 1
196 607 m 1
 243 607 l 1
 243 628 l 1
 31 628 l 1
 31 607 l 1
 82 607 l 1
 82 21 l 1
 31 21 l 1
 31 0 l 1
 457 0 l 1
 453 19 450 39 449 60 c 0
 448 81 447 131 447 208 c 2
 449 329 l 1
 357 329 275 344 196 409 c 1
 196 607 l 1
EndSplineSet
EndChar

StartChar: uniE000
Encoding: 57344 57344 71
Width: 2
GlyphClass: 4
Flags: HW
AnchorPoint: "Above" -194 688 mark 0
LayerCount: 2
Fore
SplineSet
-134 790 m 0
 -134 835 -169 867 -224 867 c 0
 -253 867 -278 854 -299 827 c 0
 -320 800 -331 781 -331 769 c 0
 -331 761 -327 757 -319 757 c 0
 -315 757 -312 758 -287 782 c 0
 -274 795 -257 801 -236 801 c 0
 -205 801 -186 782 -186 757 c 1
 -182 742 -204 717 -206 702 c 0
 -206 694 -202 690 -194 690 c 0
 -181 690 -168 701 -154 722 c 0
 -141 744 -134 767 -134 790 c 0
EndSplineSet
EndChar

StartChar: uniA656
Encoding: 42582 42582 72
Width: 778
Flags: W
LayerCount: 2
Fore
SplineSet
248 0 m 1
 248 21 l 1
 199 21 l 1
 199 484 l 1
 311 483 l 1
 318 459 331 438 367 438 c 0
 403 438 412 455 421 483 c 1
 570 482 l 1
 570 438 539 401 470 370 c 0
 436 355 409 342 390 331 c 0
 371 320 362 303 362 279 c 0
 362 247 380 237 400 230 c 1
 400 221 l 1
 357 214 344 184 344 157 c 0
 344 126 362 106 401 98 c 1
 401 81 396 64 385 47 c 0
 375 30 355 21 326 21 c 1
 326 0 l 1
 500 0 l 1
 500 21 l 1
 455 21 432 46 425 98 c 1
 464 106 482 126 482 157 c 0
 482 182 466 214 426 221 c 1
 427 228 l 1
 488 228 532 285 565 350 c 1
 570 350 l 1
 570 21 l 1
 530 21 l 1
 530 0 l 1
 734 0 l 1
 734 21 l 1
 683 21 l 1
 683 607 l 1
 734 607 l 1
 734 628 l 1
 519 628 l 1
 519 607 l 1
 570 607 l 1
 570 505 l 1
 421 504 l 1
 412 531 401 552 365 552 c 0
 330 552 320 533 311 506 c 1
 199 507 l 1
 199 607 l 1
 249 607 l 1
 249 628 l 1
 33 628 l 1
 33 607 l 1
 85 607 l 1
 85 21 l 1
 33 21 l 1
 33 0 l 1
 248 0 l 1
566 417 m 0
 572 414 575 411 575 408 c 0
 575 390 560 360 529 317 c 0
 499 275 471 254 446 254 c 0
 430 254 422 261 422 275 c 0
 422 284 432 294 451 307 c 0
 470 320 489 334 506 351 c 0
 524 368 536 380 543 389 c 2
 556 409 l 2
 561 414 564 417 566 417 c 0
EndSplineSet
EndChar

StartChar: afii10041
Encoding: 1063 1063 73
Width: 537
Flags: W
LayerCount: 2
Fore
SplineSet
334 268 m 1
 297 284 266 294 229 302 c 0
 192 310 181 312 178 321 c 2
 177 378 l 1
 177 607 l 1
 229 607 l 1
 229 628 l 1
 23 628 l 1
 23 607 l 1
 73 607 l 1
 75 412 l 1
 73 332 l 1
 71 312 l 1
 220 283 300 263 313 254 c 0
 326 245 333 236 333 228 c 0
 334 220 334 212 334 204 c 2
 334 189 l 1
 334 21 l 1
 279 21 l 1
 279 0 l 1
 503 0 l 1
 503 21 l 1
 448 21 l 1
 448 607 l 1
 503 607 l 1
 503 628 l 1
 284 628 l 1
 284 607 l 1
 334 607 l 1
 334 268 l 1
EndSplineSet
EndChar

StartChar: uniA657
Encoding: 42583 42583 74
Width: 667
Flags: W
LayerCount: 2
Fore
SplineSet
631 0 m 1
 575 159 566 311 566 451 c 1
 455 451 l 1
 461 370 l 2
 460 366 440 365 431 365 c 0
 374 365 333 364 309 362 c 0
 285 360 249 356 200 350 c 1
 211 451 l 1
 102 451 l 1
 63 0 l 1
 173 0 l 1
 175 39 l 1
 175 132 181 209 189 269 c 0
 194 299 199 316 204 321 c 0
 209 326 224 328 247 328 c 0
 262 328 291 330 336 333 c 0
 381 337 422 339 458 339 c 1
 357 205 l 2
 325 162 302 127 282 96 c 0
 263 65 259 53 259 34 c 0
 259 -2 288 -8 317 -8 c 0
 358 -8 384 -2 397 10 c 0
 410 23 430 59 457 118 c 2
 470 145 l 2
 474 156 478 161 481 161 c 0
 488 161 489 139 501 75 c 0
 507 44 512 19 517 0 c 1
 631 0 l 1
473 245 m 1
 475 211 l 2
 475 201 473 192 469 184 c 0
 465 177 450 154 423 117 c 0
 396 80 374 62 355 62 c 0
 339 62 325 74 325 90 c 0
 325 102 340 130 370 174 c 2
 468 311 l 1
 473 245 l 1
EndSplineSet
EndChar

StartChar: afii10089
Encoding: 1095 1095 75
Width: 444
Flags: W
LayerCount: 2
Fore
SplineSet
397 0 m 1
 390 32 386 63 384 94 c 0
 383 125 382 163 382 210 c 0
 382 293 385 384 396 451 c 1
 287 451 l 1
 284 425 282 409 281 403 c 2
 281 322 l 2
 281 301 281 287 264 287 c 0
 233 287 199 305 172 346 c 0
 159 367 153 402 153 451 c 1
 35 451 l 1
 35 390 45 339 100 299 c 0
 128 280 155 268 181 263 c 0
 208 259 241 257 281 257 c 1
 281 238 279 197 279 165 c 2
 281 0 l 1
 397 0 l 1
EndSplineSet
EndChar

StartChar: uniE8E3
Encoding: 59619 59619 76
Width: 507
Flags: W
LayerCount: 2
Fore
SplineSet
213 665 m 2
 226 644 240 622 256 598 c 0
 272 575 282 562 285 560 c 0
 292 556 322 551 329 551 c 0
 336 551 339 553 339 558 c 0
 338 561 336 569 333 574 c 2
 296 638 l 2
 289 652 273 680 249 721 c 0
 225 763 212 785 209 787 c 0
 206 789 196 792 179 796 c 0
 162 800 151 802 145 802 c 0
 138 802 134 800 134 795 c 0
 134 790 140 780 147 769 c 2
 213 665 l 2
136 653 m 1
 87 628 55 608 41 595 c 0
 27 582 20 570 20 559 c 0
 20 526 65 463 118 398 c 0
 145 365 176 331 209 294 c 1
 146 225 103 167 103 102 c 0
 103 33 156 -13 255 -13 c 0
 298 -13 338 -3 374 17 c 0
 410 37 428 72 428 122 c 0
 428 199 376 264 291 355 c 1
 315 384 343 423 376 472 c 2
 391 493 l 2
 438 562 469 608 483 629 c 0
 498 651 511 674 524 698 c 0
 537 722 543 740 543 753 c 0
 543 767 537 774 524 774 c 0
 522 774 518 773 512 771 c 0
 506 770 487 762 456 748 c 0
 393 720 372 709 372 696 c 0
 372 687 377 682 387 682 c 2
 408 686 l 2
 409 686 417 690 428 690 c 0
 442 690 449 683 449 670 c 0
 449 657 437 631 413 591 c 0
 390 552 364 511 337 470 c 2
 274 375 l 1
 184 480 l 1
 177 490 l 1
 173 494 l 1
 154 518 l 2
 138 539 116 569 116 584 c 0
 116 604 132 618 155 634 c 1
 136 653 l 1
228 277 m 1
 308 185 334 135 334 95 c 0
 334 56 303 17 240 17 c 0
 169 17 134 58 134 107 c 0
 134 150 161 205 228 277 c 1
EndSplineSet
Ligature2: "'ccmp' Canonical Composition and Precomposed Glyphs-1" uniA64B gravecomb
EndChar

StartChar: uniA67C
Encoding: 42620 42620 77
Width: 0
Flags: HW
AnchorPoint: "Above" -167 590 mark 0
LayerCount: 2
Fore
SplineSet
-73 765 m 1
 -73 684 -115 654 -167 654 c 0
 -216 654 -261 685 -261 765 c 1
 -321 765 l 1
 -321 657 -270 590 -167 590 c 0
 -114 590 -63 613 -42 653 c 0
 -19 694 -13 717 -13 765 c 1
 -73 765 l 1
EndSplineSet
EndChar

StartChar: uni2DEC
Encoding: 11756 11756 78
Width: 2
Flags: HW
AnchorPoint: "Above" -243 503 mark 0
LayerCount: 2
Fore
SplineSet
-325 505 m 1
 -272 505 l 1
 -272 586 l 1
 -217 586 -176 595 -176 639 c 0
 -176 666 -197 692 -246 692 c 0
 -281 692 -302 684 -311 668 c 0
 -320 652 -325 631 -325 606 c 2
 -325 505 l 1
-272 640 m 2
 -272 657 -265 674 -245 674 c 0
 -230 674 -216 665 -216 645 c 0
 -216 614 -240 609 -272 609 c 1
 -272 640 l 2
EndSplineSet
EndChar

StartChar: uni2DE2
Encoding: 11746 11746 79
Width: 2
Flags: HW
AnchorPoint: "Above" -217 506 mark 0
LayerCount: 2
Fore
SplineSet
-250 509 m 1
 -251 538 -254 564 -254 592 c 0
 -254 628 -251 641 -250 661 c 1
 -215 661 l 2
 -206 661 -192 662 -187 653 c 0
 -176 640 -157 615 -152 615 c 0
 -148 616 -144 619 -139 638 c 0
 -135 658 -121 666 -121 674 c 0
 -121 677 -125 679 -133 681 c 2
 -301 681 l 1
 -301 674 -302 661 -303 643 c 0
 -304 625 -305 610 -305 598 c 0
 -305 592 -304 578 -303 555 c 0
 -302 533 -301 518 -301 509 c 1
 -250 509 l 1
EndSplineSet
EndChar

StartChar: afii10075
Encoding: 1081 1081 80
Width: 500
Flags: W
LayerCount: 2
Fore
SplineSet
266 541 m 4
 286 541 307 551 328 571 c 4
 350 592 361 623 361 665 c 4
 361 682 357 715 344 715 c 4
 336 715 332 706 332 688 c 4
 332 636 299 609 270 609 c 4
 250 609 232 621 232 648 c 4
 232 657 234 666 238 675 c 6
 248 697 l 5
 251 707 l 6
 251 714 246 716 241 717 c 4
 231 717 218 705 203 682 c 4
 188 659 181 636 181 613 c 4
 181 572 205 541 266 541 c 4
173 0 m 1
 171 67 l 1
 173 239 l 1
 321 307 l 1
 317 169 l 2
 317 153 318 126 321 88 c 0
 324 50 325 21 325 0 c 1
 433 0 l 1
 430 30 427 57 426 80 c 0
 425 103 424 146 424 208 c 0
 424 316 425 380 432 451 c 1
 330 451 l 1
 325 400 323 360 323 332 c 1
 173 264 l 1
 173 301 174 330 176 349 c 0
 178 368 182 402 188 451 c 1
 90 451 l 1
 82 412 76 377 73 346 c 0
 70 315 69 278 69 235 c 2
 68 0 l 1
 173 0 l 1
EndSplineSet
Ligature2: "'ccmp' Canonical Composition and Precomposed Glyphs-1" afii10074 uni0308
EndChar

StartChar: uni2DE3
Encoding: 11747 11747 81
Width: 2
Flags: HW
AnchorPoint: "Above" -267 516 mark 0
LayerCount: 2
Fore
SplineSet
-380 571 m 1
 -411 571 l 1
 -449 570 l 2
 -450 570 -452 568 -454 565 c 0
 -454 560 -451 551 -444 537 c 0
 -438 523 -433 516 -429 516 c 0
 -424 516 -420 521 -418 531 c 2
 -411 551 l 1
 -128 551 l 1
 -123 534 l 2
 -122 527 -119 514 -112 514 c 0
 -107 514 -98 531 -95 535 c 0
 -92 540 -81 559 -81 563 c 0
 -81 570 -89 571 -109 571 c 2
 -158 571 l 1
 -252 770 l 2
 -263 793 -266 796 -277 801 c 0
 -283 804 -297 808 -319 812 c 0
 -341 816 -362 818 -383 818 c 0
 -408 818 -415 814 -428 769 c 2
 -437 738 l 1
 -394 734 l 1
 -378 786 -374 795 -345 795 c 0
 -324 795 -309 782 -288 729 c 1
 -380 571 l 1
-356 571 m 1
 -278 702 l 1
 -217 571 l 1
 -356 571 l 1
EndSplineSet
EndChar

StartChar: afii10091
Encoding: 1097 1097 82
Width: 778
Flags: W
LayerCount: 2
Fore
SplineSet
69 451 m 1
 67 402 65 357 63 314 c 0
 62 271 61 220 61 160 c 0
 62 112 64 67 64 0 c 1
 268 0 l 2
 293 0 310 -2 318 -5 c 0
 327 -8 335 -19 344 -37 c 0
 363 -73 368 -136 368 -191 c 2
 365 -236 l 2
 365 -245 368 -249 375 -249 c 0
 391 -249 402 -224 415 -184 c 0
 428 -145 434 -85 434 -30 c 0
 434 -19 435 -6 444 -3 c 0
 455 0 489 0 512 0 c 2
 702 0 l 1
 696 70 693 111 692 124 c 0
 691 137 691 163 691 203 c 0
 691 275 695 332 706 393 c 2
 715 443 l 2
 715 448 710 451 700 451 c 2
 606 451 l 1
 591 352 587 278 587 193 c 0
 587 173 588 151 589 127 c 0
 590 103 591 88 591 82 c 2
 594 37 l 2
 594 27 590 21 581 20 c 2
 557 20 l 1
 480 20 l 2
 455 20 440 23 437 28 c 0
 434 33 432 49 431 74 c 0
 430 100 430 123 430 143 c 0
 430 250 434 358 442 451 c 1
 338 451 l 1
 338 400 336 329 331 239 c 0
 326 150 324 91 324 64 c 0
 324 24 324 21 308 20 c 2
 211 20 l 2
 174 20 170 22 170 51 c 2
 168 102 l 2
 168 118 166 165 166 189 c 0
 166 242 167 288 170 326 c 0
 173 365 176 406 181 451 c 1
 69 451 l 1
EndSplineSet
EndChar

StartChar: afii10102
Encoding: 1109 1109 83
Width: 574
Flags: W
LayerCount: 2
Fore
SplineSet
384 422 m 2
 390 429 393 435 393 440 c 0
 393 453 349 462 288 462 c 0
 211 462 155 448 121 420 c 0
 87 393 70 360 70 322 c 0
 70 287 81 253 104 222 c 0
 127 191 152 175 180 175 c 0
 200 175 226 183 270 203 c 0
 315 223 337 230 365 230 c 0
 420 230 448 191 448 139 c 0
 448 87 413 44 344 44 c 0
 331 44 317 45 302 46 c 0
 287 48 262 52 226 58 c 2
 146 73 l 2
 142 73 126 77 106 77 c 0
 70 77 56 47 56 24 c 0
 56 1 69 -13 89 -13 c 0
 108 -13 111 -5 118 18 c 0
 121 30 128 36 137 36 c 0
 142 36 146 36 195 21 c 0
 244 6 316 -12 369 -12 c 0
 430 -12 476 4 506 37 c 0
 536 70 551 108 551 152 c 0
 551 189 540 221 518 248 c 0
 497 275 467 289 428 289 c 0
 405 289 377 283 343 271 c 0
 309 260 286 253 275 250 c 0
 264 247 253 246 242 246 c 0
 197 246 158 293 158 345 c 0
 158 392 190 424 230 424 c 0
 254 424 273 416 288 400 c 0
 303 384 313 372 316 365 c 0
 323 350 327 347 332 347 c 0
 337 347 340 350 342 357 c 2
 349 368 l 1
 384 422 l 2
EndSplineSet
EndChar

StartChar: afii10048
Encoding: 1070 1070 84
Width: 761
Flags: W
LayerCount: 2
Fore
SplineSet
252 0 m 1
 252 21 l 1
 195 21 l 1
 195 281 l 1
 309 337 l 1
 309 308 314 281 324 256 c 0
 335 231 354 199 381 159 c 0
 409 119 427 91 435 76 c 0
 443 61 447 46 447 33 c 0
 444 -3 434 4 436 -4 c 0
 436 -9 441 -12 452 -12 c 0
 517 -12 582 13 645 62 c 0
 708 112 740 180 740 267 c 0
 740 332 723 377 671 441 c 2
 609 520 l 2
 593 541 571 575 571 602 c 2
 574 631 l 2
 574 638 566 641 551 641 c 0
 482 641 425 613 378 558 c 0
 332 503 309 438 309 361 c 1
 195 305 l 1
 195 607 l 1
 251 607 l 1
 251 628 l 1
 31 628 l 1
 31 607 l 1
 82 607 l 1
 82 21 l 1
 32 21 l 1
 32 0 l 1
 252 0 l 1
459 7 m 1
 479 39 487 58 487 87 c 0
 487 106 483 137 475 161 c 2
 443 257 l 2
 426 305 408 364 408 428 c 0
 408 479 420 524 444 563 c 0
 469 603 506 623 557 623 c 1
 548 591 545 578 545 563 c 0
 545 551 548 535 553 515 c 0
 558 495 569 462 585 417 c 0
 617 326 629 276 629 217 c 0
 629 154 606 94 563 54 c 0
 542 35 526 23 513 18 c 0
 500 13 482 10 459 7 c 1
EndSplineSet
EndChar

StartChar: uni2DE4
Encoding: 11748 11748 85
Width: 2
Flags: HW
AnchorPoint: "Above" -212 622 mark 0
LayerCount: 2
Fore
SplineSet
-210 686 m 1
 -195 674 -179 661 -134 638 c 0
 -89 615 -61 616 -37 617 c 1
 -27 641 l 1
 -38 642 -63 643 -111 656 c 0
 -160 671 -184 691 -193 700 c 1
 -177 720 -159 740 -140 759 c 0
 -121 778 -103 788 -84 788 c 0
 -79 788 -59 785 -56 768 c 0
 -55 760 -54 752 -55 744 c 1
 -3 762 l 1
 -5 775 -10 788 -17 801 c 0
 -24 814 -43 820 -72 820 c 0
 -99 820 -121 810 -140 790 c 0
 -159 771 -176 751 -189 731 c 1
 -189 820 l 1
 -231 820 l 1
 -231 731 l 1
 -245 752 -261 772 -280 791 c 0
 -299 810 -322 820 -348 820 c 0
 -377 820 -395 814 -402 801 c 0
 -409 788 -414 775 -417 762 c 1
 -365 744 l 1
 -370 773 -353 789 -343 788 c 2
 -337 788 l 2
 -318 788 -299 778 -280 759 c 0
 -261 740 -243 720 -227 700 c 1
 -246 685 -270 668 -310 656 c 0
 -350 644 -373 642 -393 641 c 1
 -382 617 l 1
 -358 618 -330 619 -283 639 c 0
 -238 659 -222 674 -210 686 c 1
EndSplineSet
EndChar

StartChar: uni033E
Encoding: 830 830 87
Width: 2
Flags: W
AnchorPoint: "Yerik" 31 597 mark 0
LayerCount: 2
Fore
SplineSet
24 779 m 2
 43 694 l 2
 46 679 51 660 51 655 c 0
 51 644 45 636 34 629 c 0
 23 623 18 617 18 610 c 0
 18 602 23 598 33 598 c 0
 38 598 49 603 67 614 c 0
 86 625 101 635 114 642 c 0
 139 658 142 664 142 673 c 2
 139 694 l 1
 134 718 l 1
 130 736 l 1
 119 785 l 1
 117 801 l 2
 117 809 122 816 132 821 c 0
 145 830 147 833 147 838 c 0
 147 848 143 853 134 853 c 0
 127 853 83 830 44 807 c 0
 31 800 24 791 24 779 c 2
EndSplineSet
EndChar

StartChar: uni2E2F
Encoding: 11823 11823 88
Width: 180
Flags: HW
LayerCount: 2
Fore
SplineSet
38 729 m 2
 57 644 l 2
 60 629 65 610 65 605 c 0
 65 594 60 586 49 579 c 0
 38 573 32 567 32 560 c 0
 32 552 37 548 47 548 c 0
 52 548 63 553 82 564 c 0
 100 575 115 585 128 592 c 0
 153 608 156 614 156 623 c 2
 153 644 l 1
 148 668 l 1
 144 686 l 1
 133 735 l 1
 131 751 l 2
 131 759 136 766 146 771 c 0
 159 780 161 783 161 788 c 0
 161 798 157 803 148 803 c 0
 141 803 97 780 58 757 c 0
 45 750 38 741 38 729 c 2
EndSplineSet
EndChar

StartChar: uniE8E5
Encoding: 59621 59621 89
Width: 507
Flags: W
LayerCount: 2
Fore
SplineSet
123 669 m 1
 82 638 l 2
 30 599 20 580 20 556 c 0
 20 505 108 404 209 295 c 1
 140 218 105 152 105 99 c 0
 105 38 159 -13 255 -13 c 0
 301 -13 341 -2 376 21 c 0
 411 44 428 79 428 127 c 0
 428 167 414 206 387 244 c 0
 360 282 328 319 291 356 c 1
 308 379 l 2
 333 413 365 458 403 513 c 0
 442 568 474 617 499 660 c 0
 524 703 537 735 537 754 c 0
 537 770 526 773 514 773 c 0
 502 773 476 763 433 747 c 0
 392 731 390 727 390 719 c 0
 390 711 398 709 409 709 c 0
 432 709 454 702 454 683 c 0
 454 663 424 610 391 555 c 0
 358 500 309 428 272 376 c 1
 245 407 l 2
 226 428 212 445 202 456 c 0
 193 467 178 486 157 511 c 0
 137 536 125 553 120 562 c 0
 115 571 113 580 113 589 c 0
 113 606 128 636 141 656 c 1
 123 669 l 1
227 275 m 1
 284 211 331 150 331 94 c 0
 331 50 293 20 232 20 c 0
 169 20 134 51 134 106 c 0
 134 149 168 210 227 275 c 1
219 636 m 1
 219 677 235 705 268 705 c 0
 303 705 317 675 317 636 c 1
 365 636 l 1
 365 712 336 763 267 763 c 0
 216 763 171 723 171 636 c 1
 219 636 l 1
EndSplineSet
Ligature2: "'ccmp' Canonical Composition and Precomposed Glyphs-1" uniA64B uni0311
EndChar

StartChar: uni2DEA
Encoding: 11754 11754 90
Width: 2
Flags: HW
AnchorPoint: "Above" -151 512 mark 0
LayerCount: 2
Fore
SplineSet
-240 600 m 0
 -240 548 -200 515 -151 515 c 0
 -104 515 -66 550 -66 601 c 0
 -66 652 -102 690 -153 690 c 0
 -205 690 -240 651 -240 600 c 0
-204 600 m 0
 -204 644 -187 666 -152 666 c 0
 -119 666 -99 641 -99 605 c 0
 -99 568 -119 538 -152 538 c 0
 -187 538 -204 564 -204 600 c 0
EndSplineSet
EndChar

StartChar: afii10096
Encoding: 1102 1102 91
Width: 556
Flags: W
LayerCount: 2
Fore
SplineSet
187 0 m 1
 179 63 175 148 175 255 c 1
 297 284 l 1
 297 275 293 260 293 224 c 0
 293 164 303 110 324 62 c 0
 345 14 371 -10 403 -10 c 0
 436 -10 463 13 482 58 c 0
 502 103 512 162 512 235 c 0
 512 295 503 347 486 390 c 0
 469 433 444 455 409 455 c 0
 378 455 355 441 339 412 c 0
 324 384 311 351 301 312 c 1
 176 282 l 1
 176 329 183 383 196 451 c 1
 85 451 l 1
 79 408 75 369 73 333 c 0
 72 298 71 251 71 194 c 0
 71 166 72 133 73 94 c 0
 74 56 76 25 79 0 c 1
 187 0 l 1
444 241 m 0
 444 164 423 119 395 119 c 0
 376 119 364 129 358 149 c 0
 353 169 350 189 350 210 c 0
 350 271 372 322 405 322 c 0
 437 322 444 280 444 241 c 0
EndSplineSet
EndChar

StartChar: uni0311
Encoding: 785 785 92
Width: 2
Flags: HW
AnchorPoint: "Above" -236 618 mark 0
LayerCount: 2
Fore
SplineSet
-93 617 m 1
 -93 654 -99 685 -124 720 c 0
 -149 755 -189 776 -234 776 c 0
 -280 776 -313 762 -333 734 c 0
 -353 707 -365 685 -368 670 c 0
 -372 655 -374 638 -374 617 c 1
 -316 617 l 1
 -316 638 -310 660 -299 681 c 0
 -288 702 -267 713 -234 713 c 0
 -183 713 -152 678 -152 617 c 1
 -93 617 l 1
EndSplineSet
EndChar

StartChar: exclam
Encoding: 33 33 93
Width: 296
Flags: W
LayerCount: 2
Fore
SplineSet
139 179 m 1
 153 179 l 1
 212 568 l 1
 153 634 l 1
 138 634 l 1
 80 568 l 1
 139 179 l 1
146 -20 m 1
 209 53 l 1
 146 125 l 1
 83 53 l 1
 146 -20 l 1
EndSplineSet
EndChar

StartChar: uniE901
Encoding: 59649 59649 94
Width: 630
Flags: W
LayerCount: 2
Fore
SplineSet
27 451 m 1
 30 430 32 412 32 395 c 2
 32 369 l 2
 32 368 31 341 30 287 c 0
 29 234 28 199 28 184 c 1
 97 184 l 2
 112 185 113 185 124 186 c 0
 129 187 133 192 134 200 c 0
 135 209 136 233 136 273 c 2
 140 404 l 2
 140 433 150 430 181 430 c 2
 265 430 l 1
 265 420 261 354 253 233 c 0
 245 112 241 35 241 0 c 1
 274 -4 304 -7 331 -8 c 0
 358 -10 393 -11 434 -11 c 2
 562 -8 l 2
 575 -7 584 -3 584 6 c 0
 584 13 581 19 578 24 c 0
 577 27 572 38 563 57 c 0
 555 76 550 88 549 91 c 2
 542 108 l 1
 497 216 l 2
 496 220 492 226 483 226 c 2
 462 222 l 1
 353 188 l 1
 354 217 l 1
 364 381 l 1
 368 430 l 1
 420 430 l 2
 443 430 457 429 462 426 c 0
 468 424 473 417 477 406 c 2
 504 330 l 2
 509 314 514 306 518 306 c 0
 523 306 526 310 529 317 c 2
 545 358 l 2
 554 379 561 390 574 413 c 0
 581 424 586 434 588 441 c 0
 588 448 578 451 558 451 c 2
 371 451 l 1
 376 502 l 1
 389 627 l 1
 407 784 l 1
 302 784 l 1
 294 721 286 660 279 599 c 0
 272 539 269 490 269 451 c 1
 27 451 l 1
373 172 m 1
 381 175 l 1
 397 179 l 2
 409 179 416 165 443 98 c 0
 456 65 465 45 469 36 c 0
 470 33 470 29 470 26 c 0
 470 18 462 13 442 13 c 0
 409 13 365 13 356 16 c 0
 351 17 349 22 349 29 c 2
 349 79 l 1
 352 166 l 1
 373 172 l 1
582 744 m 2
 590 759 590 765 591 772 c 0
 591 777 589 779 584 779 c 0
 582 779 572 777 554 772 c 0
 537 767 527 764 524 762 c 0
 519 758 506 728 499 709 c 2
 446 580 l 2
 434 553 426 533 426 525 c 0
 426 521 430 519 437 519 c 0
 454 519 467 523 474 531 c 0
 482 540 493 559 508 589 c 2
 561 700 l 1
 582 744 l 2
EndSplineSet
Ligature2: "'ccmp' Canonical Composition and Precomposed Glyphs-1" afii10194 acutecomb
EndChar

StartChar: uniE903
Encoding: 59651 59651 95
Width: 630
Flags: W
LayerCount: 2
Fore
SplineSet
444 776 m 0
 444 766 454 739 473 694 c 0
 492 649 509 614 522 588 c 2
 542 548 l 2
 545 540 549 535 555 533 c 0
 567 526 582 521 594 521 c 0
 599 521 601 524 601 529 c 0
 600 536 599 540 594 552 c 2
 567 626 l 2
 555 659 548 678 531 715 c 2
 519 744 l 2
 515 755 514 756 487 768 c 2
 471 776 l 2
 464 779 458 783 451 783 c 0
 450 782 444 780 444 776 c 0
27 451 m 1
 31 418 32 411 32 384 c 2
 32 369 l 2
 32 366 31 339 29 288 c 0
 28 238 27 203 27 184 c 1
 96 184 l 2
 107 184 115 185 124 186 c 0
 129 187 133 192 134 200 c 0
 135 208 136 232 136 273 c 2
 139 404 l 2
 139 433 149 430 180 430 c 2
 265 430 l 1
 265 419 261 355 252 236 c 0
 244 117 240 39 240 0 c 1
 304 -8 352 -11 433 -11 c 2
 561 -8 l 2
 576 -7 583 -2 583 6 c 0
 583 13 580 18 576 25 c 0
 572 32 562 58 549 91 c 2
 542 108 l 1
 496 216 l 2
 492 221 488 226 483 226 c 2
 462 222 l 1
 352 188 l 1
 353 217 l 1
 364 381 l 1
 368 430 l 1
 419 430 l 2
 440 430 453 429 459 428 c 0
 466 427 472 420 477 406 c 2
 504 330 l 2
 512 306 512 306 517 306 c 0
 522 306 525 310 528 317 c 2
 545 358 l 2
 556 386 578 419 583 428 c 2
 588 441 l 2
 588 448 578 451 557 451 c 2
 370 451 l 1
 375 502 l 1
 388 627 l 2
 395 691 402 744 407 784 c 1
 301 784 l 1
 293 721 285 660 278 599 c 0
 271 539 268 490 268 451 c 1
 27 451 l 1
373 172 m 1
 381 175 l 1
 396 179 l 2
 408 179 415 163 442 98 c 0
 455 65 464 45 468 36 c 0
 469 33 469 29 469 26 c 0
 469 18 461 13 441 13 c 0
 408 13 364 13 355 16 c 0
 350 17 348 22 348 29 c 2
 348 79 l 1
 351 166 l 1
 373 172 l 1
EndSplineSet
Ligature2: "'ccmp' Canonical Composition and Precomposed Glyphs-1" afii10194 gravecomb
EndChar

StartChar: uniE904
Encoding: 59652 59652 96
Width: 630
Flags: W
LayerCount: 2
Fore
SplineSet
244 640 m 1
 244 708 286 749 343 749 c 0
 404 749 432 705 432 640 c 1
 492 640 l 1
 492 700 477 744 446 771 c 0
 415 799 380 813 339 813 c 0
 248 813 184 744 184 640 c 1
 244 640 l 1
31 451 m 2
 31 448 32 432 33 404 c 0
 35 377 36 349 36 322 c 0
 36 294 35 266 34 239 c 0
 33 212 32 193 32 184 c 1
 101 184 l 2
 116 185 117 185 128 186 c 0
 133 187 137 192 138 200 c 0
 139 209 140 233 140 273 c 2
 144 404 l 2
 144 433 154 430 185 430 c 2
 269 430 l 1
 269 419 265 353 257 233 c 0
 249 114 245 36 245 0 c 1
 278 -4 308 -7 335 -8 c 0
 362 -10 397 -11 438 -11 c 2
 566 -8 l 2
 579 -7 588 -3 588 6 c 0
 588 13 585 19 582 24 c 0
 581 27 576 38 567 57 c 0
 559 76 554 88 553 91 c 2
 546 108 l 1
 501 216 l 2
 500 220 496 226 487 226 c 2
 466 222 l 1
 357 188 l 1
 358 217 l 1
 368 381 l 1
 372 430 l 1
 424 430 l 2
 447 430 461 429 466 426 c 0
 472 424 477 417 481 406 c 2
 508 330 l 2
 513 314 518 306 522 306 c 0
 527 306 533 317 541 338 c 0
 550 359 556 374 560 383 c 0
 569 400 588 426 592 441 c 0
 592 448 582 451 562 451 c 2
 375 451 l 1
 380 502 l 1
 392 628 l 1
 289 628 l 1
 282 573 273 510 273 451 c 1
 31 451 l 2
377 172 m 1
 385 175 l 1
 401 179 l 2
 413 179 420 165 447 98 c 0
 460 65 469 45 473 36 c 0
 474 33 474 29 474 26 c 0
 474 18 466 13 446 13 c 0
 413 13 369 13 360 16 c 0
 355 17 353 22 353 29 c 2
 353 79 l 1
 356 166 l 1
 377 172 l 1
EndSplineSet
Ligature2: "'ccmp' Canonical Composition and Precomposed Glyphs-1" afii10194 uni0311
EndChar

StartChar: afii10043
Encoding: 1065 1065 97
Width: 796
Flags: W
LayerCount: 2
Fore
SplineSet
34 0 m 1
 342 0 l 1
 342 -60 333 -79 292 -103 c 1
 319 -112 339 -124 354 -137 c 0
 369 -150 383 -172 398 -202 c 1
 426 -142 451 -122 504 -103 c 1
 461 -79 455 -59 455 0 c 1
 762 0 l 1
 762 21 l 1
 712 21 l 1
 713 607 l 1
 762 607 l 1
 762 628 l 1
 548 628 l 1
 548 607 l 1
 599 607 l 1
 599 21 l 1
 455 21 l 1
 455 607 l 1
 506 607 l 1
 506 628 l 1
 290 628 l 1
 290 607 l 1
 342 607 l 1
 342 21 l 1
 197 21 l 1
 197 607 l 1
 248 607 l 1
 248 628 l 1
 34 628 l 1
 34 607 l 1
 84 607 l 1
 84 21 l 1
 34 21 l 1
 34 0 l 1
EndSplineSet
EndChar

StartChar: afii10101
Encoding: 1108 1108 98
Width: 556
Flags: W
LayerCount: 2
Fore
SplineSet
418 -127 m 1
 411 -133 l 2
 367 -169 331 -191 304 -191 c 0
 281 -191 254 -174 224 -140 c 0
 194 -106 169 -48 148 35 c 1
 149 35 171 49 215 78 c 0
 260 107 290 122 305 122 c 0
 321 122 334 110 361 73 c 0
 388 37 394 29 410 29 c 2
 429 31 l 2
 452 34 475 33 514 33 c 0
 527 33 540 36 540 45 c 0
 540 50 526 66 518 73 c 0
 515 76 503 89 484 112 c 0
 426 187 405 221 381 216 c 0
 365 216 353 211 320 191 c 0
 288 171 236 132 184 95 c 2
 142 65 l 1
 135 102 131 132 131 163 c 0
 131 229 147 284 180 327 c 0
 213 370 249 392 286 392 c 0
 325 392 363 366 363 329 c 0
 363 317 369 313 381 316 c 2
 507 344 l 2
 518 346 523 350 523 355 c 0
 523 359 518 365 508 372 c 2
 493 386 l 2
 462 418 415 452 339 452 c 0
 315 452 288 447 259 437 c 0
 230 428 195 405 152 370 c 0
 67 299 33 215 33 120 c 0
 33 75 41 27 56 -22 c 0
 72 -72 90 -113 110 -144 c 0
 150 -208 185 -244 249 -244 c 0
 293 -244 355 -221 435 -150 c 1
 418 -127 l 1
EndSplineSet
EndChar

StartChar: afii10027
Encoding: 1049 1049 99
Width: 556
Flags: W
LayerCount: 2
Fore
SplineSet
333 820 m 4
 333 793 316 765 279 765 c 4
 252 765 220 783 220 820 c 4
 224 857 238 861 235 863 c 4
 235 871 231 875 223 875 c 4
 215 875 206 865 195 846 c 4
 185 827 180 805 180 782 c 4
 180 729 225 693 272 693 c 4
 295 693 317 701 337 718 c 4
 358 735 368 758 368 788 c 4
 368 809 363 828 354 847 c 4
 345 866 337 876 330 876 c 4
 324 876 321 873 321 867 c 6
 325 851 l 6
 330 841 333 831 333 820 c 4
31 0 m 1
 255 0 l 1
 255 21 l 1
 200 21 l 1
 200 305 l 1
 355 391 l 1
 355 21 l 1
 300 21 l 1
 300 0 l 1
 525 0 l 1
 525 21 l 1
 469 21 l 1
 469 607 l 1
 525 607 l 1
 525 628 l 1
 300 628 l 1
 300 607 l 1
 355 607 l 1
 355 415 l 1
 200 329 l 1
 200 607 l 1
 255 607 l 1
 255 628 l 1
 31 628 l 1
 31 607 l 1
 86 607 l 1
 86 21 l 1
 31 21 l 1
 31 0 l 1
EndSplineSet
Ligature2: "'ccmp' Canonical Composition and Precomposed Glyphs-1" afii10026 uni0306
EndChar

StartChar: uniE8E1
Encoding: 59617 59617 100
Width: 507
Flags: W
LayerCount: 2
Fore
SplineSet
136 653 m 1
 87 628 55 608 41 595 c 0
 27 582 20 570 20 559 c 0
 20 526 65 463 118 398 c 0
 145 365 176 331 209 294 c 1
 146 225 103 167 103 102 c 0
 103 33 156 -13 255 -13 c 0
 298 -13 338 -3 374 17 c 0
 410 37 428 72 428 122 c 0
 428 199 376 264 291 355 c 1
 308 376 320 392 327 401 c 0
 334 411 351 435 376 472 c 2
 391 493 l 2
 437 560 468 605 483 629 c 0
 499 653 513 676 525 699 c 0
 538 722 544 740 544 753 c 0
 544 767 538 774 525 774 c 0
 520 774 515 773 510 771 c 0
 505 770 486 762 455 748 c 0
 394 720 372 709 372 696 c 0
 372 687 377 682 387 682 c 2
 408 686 l 2
 409 686 417 690 428 690 c 0
 442 690 449 683 449 670 c 0
 449 657 437 631 413 591 c 0
 390 552 364 511 337 470 c 2
 274 375 l 1
 177 490 l 1
 173 494 l 1
 154 518 l 2
 138 539 116 569 116 584 c 0
 116 604 132 618 155 634 c 1
 136 653 l 1
378 794 m 0
 378 799 374 801 366 801 c 0
 357 801 345 799 330 796 c 0
 315 793 305 787 301 780 c 2
 288 759 l 1
 269 726 l 1
 225 650 l 1
 186 581 l 2
 181 572 178 566 178 561 c 0
 178 552 186 551 191 550 c 0
 210 550 224 553 232 560 c 0
 240 567 254 586 273 617 c 2
 327 701 l 1
 361 756 l 2
 372 772 378 785 378 794 c 0
228 277 m 1
 291 205 335 146 335 95 c 0
 335 56 304 17 241 17 c 0
 170 17 134 59 134 107 c 0
 134 150 161 205 228 277 c 1
EndSplineSet
Ligature2: "'ccmp' Canonical Composition and Precomposed Glyphs-1" uniA64B acutecomb
EndChar

StartChar: uniE926
Encoding: 59686 59686 101
Width: 278
GlyphClass: 3
Flags: HW
LayerCount: 2
Back
SplineSet
198 0 m 1
 198 11 197 37 195 79 c 0
 193 121 192 162 192 202 c 0
 192 269 193 318 194 349 c 0
 196 381 199 415 203 451 c 1
 92 451 l 1
 88 407 85 365 83 326 c 0
 81 287 80 238 80 179 c 0
 80 148 81 112 82 73 c 0
 83 34 84 9 84 0 c 1
 198 0 l 1
200 782 m 0
 173 782 147 770 122 746 c 0
 97 722 84 700 84 681 c 0
 84 673 88 669 96 669 c 0
 110 669 133 719 178 715 c 0
 202 715 230 697 230 665 c 0
 230 641 217 613 209 601 c 0
 201 589 199 584 199 580 c 0
 199 573 202 570 209 570 c 0
 222 570 238 584 257 613 c 0
 276 642 286 672 286 703 c 0
 286 748 249 782 200 782 c 0
EndSplineSet
Fore
SplineSet
108 540 m 5
 197 540 l 5
 177 651 l 5
 90 651 l 5
 108 540 l 5
198 0 m 1
 198 11 197 37 195 79 c 0
 193 121 192 162 192 202 c 0
 192 269 193 318 194 349 c 0
 196 381 199 415 203 451 c 1
 92 451 l 1
 88 407 85 365 83 326 c 0
 81 287 80 238 80 179 c 0
 80 148 81 112 82 73 c 0
 83 34 84 9 84 0 c 1
 198 0 l 1
EndSplineSet
Ligature2: "'ccmp' Canonical Composition and Precomposed Glyphs-1" afii10103 uni0307
EndChar

StartChar: afii10054
Encoding: 1029 1029 102
Width: 593
Flags: W
LayerCount: 2
Fore
SplineSet
140 232 m 1
 162 204 l 1
 173 212 l 1
 211 240 l 2
 251 271 283 285 330 285 c 0
 405 285 453 237 453 162 c 0
 453 101 412 47 351 47 c 0
 322 47 287 58 244 81 c 0
 201 104 172 118 157 123 c 0
 142 128 128 130 116 130 c 0
 59 130 30 87 30 50 c 0
 30 11 59 -13 95 -13 c 0
 131 -13 158 13 158 44 c 0
 158 53 156 60 152 65 c 2
 143 78 l 2
 142 79 140 81 140 86 c 0
 140 93 144 96 152 96 c 0
 157 96 162 94 167 91 c 0
 172 88 188 75 214 53 c 0
 241 32 265 16 287 5 c 0
 309 -6 338 -11 373 -11 c 0
 432 -11 477 6 508 40 c 0
 539 74 555 113 555 156 c 0
 555 202 538 239 504 268 c 0
 471 297 432 312 387 312 c 0
 370 312 334 310 299 299 c 1
 294 306 l 1
 455 431 l 1
 434 456 l 1
 401 428 375 411 358 404 c 0
 341 397 323 394 306 394 c 0
 243 394 198 438 198 497 c 0
 198 552 239 601 304 601 c 0
 337 601 363 593 382 576 c 0
 401 559 415 544 423 529 c 0
 428 517 433 511 437 511 c 0
 444 511 445 520 445 540 c 2
 445 611 l 2
 445 628 443 636 440 636 c 0
 435 632 433 630 430 626 c 2
 423 617 l 1
 405 594 l 1
 375 610 350 621 331 628 c 0
 312 635 288 638 260 638 c 0
 203 638 161 623 134 592 c 0
 108 562 95 530 95 495 c 0
 95 426 146 367 239 367 c 0
 267 367 293 372 314 379 c 1
 322 369 l 1
 140 232 l 1
EndSplineSet
EndChar

StartChar: uni2DE9
Encoding: 11753 11753 103
Width: 2
Flags: HW
AnchorPoint: "Above" -273 508 mark 0
LayerCount: 2
Fore
SplineSet
-186 509 m 1
 -187 517 -188 527 -190 539 c 2
 -190 592 l 2
 -190 617 -188 647 -184 681 c 1
 -235 681 l 1
 -239 644 l 1
 -241 606 l 1
 -305 606 l 1
 -303 643 l 1
 -299 681 l 1
 -352 681 l 1
 -352 674 -353 661 -354 643 c 0
 -355 625 -356 610 -356 598 c 0
 -356 592 -355 578 -354 555 c 0
 -353 533 -352 518 -352 509 c 1
 -301 509 l 1
 -304 548 l 1
 -305 586 l 1
 -241 586 l 1
 -240 550 l 1
 -237 509 l 1
 -186 509 l 1
EndSplineSet
EndChar

StartChar: uni0483
Encoding: 1155 1155 104
Width: 2
GlyphClass: 4
Flags: HW
AnchorPoint: "Above" -249 706 mark 0
LayerCount: 2
Fore
SplineSet
-427 713 m 1
 -364 715 l 1
 -365 764 l 1
 -106 734 l 1
 -71 731 l 2
 -62 731 -58 735 -58 742 c 0
 -58 751 -65 757 -78 758 c 1
 -79 820 l 1
 -141 819 l 1
 -139 770 l 1
 -411 801 l 1
 -435 803 l 2
 -444 803 -448 799 -448 790 c 0
 -448 783 -442 778 -429 775 c 1
 -427 713 l 1
EndSplineSet
Substitution2: "Long Titlo-1" uni0483.long
Substitution2: "Short Titlo-1" uni0483.short
Substitution2: "Tiny Titlo-1" uni0483.tiny
EndChar

StartChar: uni0483.short
Encoding: 1114113 -1 105
Width: 0
Flags: HW
AnchorPoint: "Above" -235 584 mark 0
LayerCount: 2
Fore
SplineSet
-429 578 m 1
 -362 578 l 1
 -362 661 l 1
 -80 643 l 2
 -76 642 -70 642 -63 642 c 0
 -50 642 -43 646 -43 654 c 0
 -43 663 -51 668 -66 668 c 1
 -66 756 l 1
 -132 756 l 1
 -132 673 l 1
 -412 691 l 1
 -432 691 l 2
 -444 691 -450 688 -450 682 c 0
 -450 673 -442 668 -429 664 c 1
 -429 578 l 1
EndSplineSet
EndChar

StartChar: uni2DEF
Encoding: 11759 11759 106
Width: 2
Flags: HW
AnchorPoint: "Above" -227 622 mark 0
LayerCount: 2
Fore
SplineSet
-371 744 m 1
 -371 771 -363 788 -343 788 c 0
 -328 788 -310 779 -291 761 c 0
 -272 743 -255 725 -240 707 c 1
 -249 698 -273 676 -314 657 c 0
 -335 648 -358 641 -384 634 c 0
 -410 627 -423 623 -423 620 c 0
 -423 616 -416 614 -401 614 c 0
 -378 614 -350 620 -311 633 c 0
 -274 648 -242 672 -223 689 c 1
 -202 668 -174 641 -109 626 c 0
 -77 619 -50 615 -27 615 c 0
 -15 615 -9 617 -9 620 c 0
 -9 624 -23 629 -51 636 c 0
 -79 643 -102 650 -120 658 c 0
 -156 674 -177 698 -192 717 c 1
 -173 736 -153 753 -132 770 c 0
 -111 787 -93 792 -78 786 c 0
 -59 779 -60 760 -61 744 c 1
 -9 762 l 1
 -11 775 -16 788 -23 801 c 0
 -30 814 -49 820 -78 820 c 0
 -101 820 -123 811 -146 793 c 0
 -169 775 -190 757 -209 738 c 1
 -226 757 -245 775 -268 793 c 0
 -291 811 -320 820 -354 820 c 0
 -383 820 -401 814 -408 801 c 0
 -415 788 -420 775 -423 762 c 1
 -371 744 l 1
EndSplineSet
EndChar

StartChar: uni0483.tiny
Encoding: 1114114 -1 107
Width: 0
Flags: HW
AnchorPoint: "Above" -177 589 mark 0
LayerCount: 2
Fore
SplineSet
-313 581 m 1
 -246 581 l 1
 -246 664 l 1
 -59 654 l 2
 -55 653 -49 653 -42 653 c 0
 -29 653 -22 657 -22 665 c 0
 -22 674 -30 679 -45 679 c 1
 -45 767 l 1
 -111 767 l 1
 -111 684 l 1
 -296 694 l 1
 -316 694 l 2
 -328 694 -334 691 -334 685 c 0
 -334 676 -326 671 -313 667 c 1
 -313 581 l 1
EndSplineSet
EndChar

StartChar: uni2DE5
Encoding: 11749 11749 108
Width: 2
Flags: HW
AnchorPoint: "Above" -237 560 mark 0
LayerCount: 2
Fore
SplineSet
-136 559 m 0
 -136 556 -132 555 -125 555 c 0
 -93 555 -53 576 -53 621 c 0
 -53 642 -57 658 -64 670 c 0
 -71 683 -92 698 -127 715 c 0
 -198 750 -223 781 -236 821 c 1
 -262 810 -304 771 -315 745 c 1
 -319 746 -322 747 -329 747 c 0
 -353 747 -375 721 -375 700 c 0
 -375 679 -361 669 -350 662 c 1
 -357 650 -363 637 -371 608 c 0
 -375 593 -377 583 -377 578 c 0
 -377 564 -357 553 -354 553 c 0
 -345 553 -339 567 -334 596 c 0
 -330 625 -328 642 -328 645 c 0
 -328 648 -328 651 -329 652 c 1
 -328 651 -325 650 -316 650 c 0
 -291 650 -270 674 -270 699 c 0
 -270 715 -279 726 -295 735 c 1
 -293 748 -259 782 -243 790 c 1
 -226 745 -204 689 -171 669 c 0
 -152 660 -134 650 -115 641 c 0
 -97 632 -88 620 -88 607 c 0
 -88 587 -94 574 -106 569 c 0
 -118 564 -128 561 -136 559 c 0
EndSplineSet
EndChar

StartChar: uni2DE1
Encoding: 11745 11745 109
Width: 2
Flags: HW
AnchorPoint: "Above" -113 504 mark 0
LayerCount: 2
Fore
SplineSet
-29 681 m 1
 -197 681 l 1
 -197 674 -198 661 -199 643 c 0
 -200 625 -201 610 -201 598 c 0
 -201 592 -200 578 -199 555 c 0
 -198 533 -197 518 -197 509 c 1
 -31 509 l 1
 -32 517 -33 527 -35 539 c 2
 -35 592 l 2
 -35 617 -33 647 -29 681 c 1
-148 530 m 1
 -150 598 l 1
 -147 660 l 1
 -83 660 l 1
 -86 639 -87 618 -87 598 c 0
 -87 574 -86 553 -83 530 c 1
 -148 530 l 1
EndSplineSet
EndChar

StartChar: uni0483.long
Encoding: 1114115 -1 110
Width: 0
Flags: HW
AnchorPoint: "Above" -279 588 mark 0
LayerCount: 2
Fore
SplineSet
-541 581 m 1
 -474 581 l 1
 -474 664 l 1
 -43 651 l 2
 -39 650 -33 650 -26 650 c 0
 -13 650 -6 654 -6 662 c 0
 -6 671 -14 676 -29 676 c 1
 -29 764 l 1
 -95 764 l 1
 -95 681 l 1
 -524 694 l 1
 -544 694 l 2
 -556 694 -562 691 -562 685 c 0
 -562 676 -554 671 -541 667 c 1
 -541 581 l 1
EndSplineSet
EndChar

StartChar: uni2DED
Encoding: 11757 11757 111
Width: 2
Flags: HW
AnchorPoint: "Above" -297 671 mark 0
LayerCount: 2
Fore
SplineSet
-354 674 m 1
 -325 674 l 2
 -306 674 -297 675 -278 680 c 0
 -261 687 -242 713 -242 724 c 0
 -242 727 -244 730 -249 733 c 1
 -257 731 -283 702 -294 706 c 0
 -299 706 -301 710 -301 719 c 2
 -301 746 l 2
 -301 778 -295 780 -267 785 c 0
 -239 790 -244 791 -244 808 c 2
 -244 827 l 1
 -296 827 -327 821 -338 809 c 0
 -349 797 -354 771 -354 731 c 2
 -354 674 l 1
EndSplineSet
EndChar

StartChar: uniE002
Encoding: 57346 57346 112
Width: 1
GlyphClass: 4
Flags: HW
AnchorPoint: "Above" -243 686 mark 0
LayerCount: 2
Fore
SplineSet
-293 691 m 0
 -279 691 -265 701 -251 721 c 0
 -237 741 -230 763 -230 788 c 0
 -230 841 -273 867 -314 867 c 0
 -345 867 -371 854 -393 829 c 0
 -415 804 -426 785 -426 772 c 0
 -426 763 -422 759 -415 759 c 1
 -413 752 -367 806 -329 804 c 0
 -305 804 -281 786 -281 758 c 0
 -281 748 -284 737 -290 726 c 2
 -301 707 l 1
 -303 700 l 2
 -303 693 -298 692 -293 691 c 0
-154 711 m 1
 -88 852 l 1
 -83 866 l 2
 -83 871 -86 873 -91 873 c 2
 -138 868 l 2
 -143 867 -147 864 -150 857 c 2
 -161 828 l 1
 -173 795 l 1
 -199 723 l 1
 -210 694 l 1
 -212 686 l 2
 -212 684 -210 682 -206 680 c 0
 -185 680 -168 683 -161 698 c 2
 -154 711 l 1
EndSplineSet
EndChar

StartChar: afii10055
Encoding: 1030 1030 113
Width: 296
Flags: HW
LayerCount: 2
Fore
SplineSet
185 250 m 1
 221 259 237 290 237 315 c 0
 237 340 221 370 185 379 c 1
 185 431 l 2
 185 531 196 575 239 594 c 0
 260 604 271 613 271 620 c 0
 271 628 269 628 249 628 c 2
 58 628 l 1
 28 627 l 2
 25 626 24 624 24 619 c 0
 24 612 35 604 57 594 c 0
 79 585 93 568 100 544 c 0
 107 520 111 482 111 431 c 2
 111 379 l 1
 79 371 59 352 59 315 c 0
 59 288 74 259 111 250 c 1
 111 199 l 2
 111 100 100 54 56 34 c 0
 35 24 24 16 24 10 c 0
 24 1 25 0 52 0 c 2
 246 0 l 2
 269 0 271 1 271 10 c 0
 271 17 260 25 238 34 c 0
 217 44 202 61 195 85 c 0
 188 109 185 147 185 199 c 2
 185 250 l 1
EndSplineSet
EndChar

StartChar: parenleft
Encoding: 40 40 114
Width: 251
Flags: W
LayerCount: 2
Fore
SplineSet
275 -182 m 1
 143 -170 61 73 61 276 c 0
 60 475 125 731 275 747 c 1
 275 732 l 1
 161 696 147 461 149 276 c 0
 150 98 173 -130 275 -163 c 1
 275 -182 l 1
EndSplineSet
EndChar

StartChar: parenright
Encoding: 41 41 115
Width: 251
Flags: W
LayerCount: 2
Fore
SplineSet
-24 -182 m 1
 108 -170 190 73 190 276 c 0
 191 475 126 731 -24 747 c 1
 -24 732 l 1
 90 696 104 461 102 276 c 0
 101 98 78 -130 -24 -163 c 1
 -24 -182 l 1
EndSplineSet
EndChar

StartChar: guillemotleft
Encoding: 171 171 116
Width: 480
Flags: W
LayerCount: 2
Fore
SplineSet
255 -5 m 1
 229 -5 l 1
 48 218 l 1
 229 437 l 1
 255 437 l 1
 141 218 l 1
 255 -5 l 1
447 -5 m 1
 419 -5 l 1
 235 218 l 1
 419 437 l 1
 447 437 l 1
 334 218 l 1
 447 -5 l 1
EndSplineSet
EndChar

StartChar: guillemotright
Encoding: 187 187 117
Width: 480
Flags: W
LayerCount: 2
Fore
SplineSet
225 437 m 1
 251 437 l 1
 432 216 l 1
 251 -5 l 1
 225 -5 l 1
 339 216 l 1
 225 437 l 1
33 437 m 1
 61 437 l 1
 245 216 l 1
 61 -5 l 1
 33 -5 l 1
 146 216 l 1
 33 437 l 1
EndSplineSet
EndChar

StartChar: logicalnot
Encoding: 172 172 118
Width: 541
Flags: W
LayerCount: 2
Fore
SplineSet
17 412 m 1
 523 412 l 1
 523 221 l 1
 486 221 l 1
 486 373 l 1
 17 373 l 1
 17 412 l 1
EndSplineSet
EndChar

StartChar: endash
Encoding: 8211 8211 120
Width: 410
Flags: W
LayerCount: 2
Fore
SplineSet
383 229 m 1
 383 283 l 1
 25 283 l 1
 25 229 l 1
 383 229 l 1
EndSplineSet
EndChar

StartChar: emdash
Encoding: 8212 8212 121
Width: 543
Flags: W
LayerCount: 2
Fore
SplineSet
516 229 m 1
 516 283 l 1
 25 283 l 1
 25 229 l 1
 516 229 l 1
EndSplineSet
EndChar

StartChar: paragraph
Encoding: 182 182 122
Width: 441
Flags: W
LayerCount: 2
Fore
SplineSet
191 -146 m 1
 191 326 l 1
 148 327 113 341 87 368 c 0
 62 395 47 424 41 456 c 0
 41 465 39 495 41 489 c 1
 42 523 56 555 82 583 c 0
 108 612 144 627 191 630 c 2
 251 630 l 1
 251 -146 l 1
 191 -146 l 1
312 -146 m 1
 312 630 l 1
 373 630 l 1
 373 -146 l 1
 312 -146 l 1
EndSplineSet
EndChar

StartChar: periodcentered
Encoding: 183 183 123
Width: 159
Flags: W
LayerCount: 2
Fore
SplineSet
37 215 m 0
 37 240 57 260 81 260 c 0
 105 260 125 240 125 215 c 0
 125 190 105 170 81 170 c 0
 57 170 37 190 37 215 c 0
EndSplineSet
EndChar

StartChar: quotedblbase
Encoding: 8222 8222 124
Width: 480
Flags: W
LayerCount: 2
Fore
SplineSet
104 -119 m 1
 189 -59 220 -20 220 28 c 0
 220 72 189 105 144 105 c 0
 118 105 95 93 75 70 c 0
 56 47 45 20 42 -11 c 1
 52 -11 l 1
 76 28 92 40 116 40 c 0
 144 40 161 23 161 -8 c 0
 161 -41 137 -75 88 -119 c 1
 104 -119 l 1
314 -119 m 1
 399 -59 430 -20 430 28 c 0
 430 72 399 105 354 105 c 0
 328 105 305 93 285 70 c 0
 266 47 255 20 252 -11 c 1
 262 -11 l 1
 286 28 302 40 326 40 c 0
 354 40 371 23 371 -8 c 0
 371 -41 347 -75 298 -119 c 1
 314 -119 l 1
EndSplineSet
EndChar

StartChar: quotedblright
Encoding: 8221 8221 125
Width: 480
Flags: W
LayerCount: 2
Fore
SplineSet
104 407 m 1
 189 467 220 506 220 554 c 0
 220 598 189 631 144 631 c 0
 118 631 95 619 75 596 c 0
 56 573 45 546 42 515 c 1
 52 515 l 1
 76 554 92 566 116 566 c 0
 144 566 161 549 161 518 c 0
 161 485 137 451 88 407 c 1
 104 407 l 1
314 407 m 1
 399 467 430 506 430 554 c 0
 430 598 399 631 354 631 c 0
 328 631 305 619 285 596 c 0
 266 573 255 546 252 515 c 1
 262 515 l 1
 286 554 302 566 326 566 c 0
 354 566 371 549 371 518 c 0
 371 485 347 451 298 407 c 1
 314 407 l 1
EndSplineSet
EndChar

StartChar: quotedblleft
Encoding: 8220 8220 126
Width: 469
Flags: W
LayerCount: 2
Fore
SplineSet
365 718 m 1
 280 658 249 619 249 571 c 0
 249 527 280 494 325 494 c 0
 351 494 374 505 393 528 c 0
 413 551 424 579 427 610 c 1
 417 610 l 1
 393 571 377 559 353 559 c 0
 325 559 308 576 308 607 c 0
 308 640 332 674 381 718 c 1
 365 718 l 1
155 718 m 1
 70 658 39 619 39 571 c 0
 39 527 70 494 115 494 c 0
 141 494 164 505 183 528 c 0
 203 551 214 579 217 610 c 1
 207 610 l 1
 183 571 167 559 143 559 c 0
 115 559 98 576 98 607 c 0
 98 640 122 674 171 718 c 1
 155 718 l 1
EndSplineSet
EndChar

StartChar: quotesinglbase
Encoding: 8218 8218 127
Width: 270
Flags: W
LayerCount: 2
Fore
SplineSet
104 -119 m 1
 189 -59 220 -20 220 28 c 0
 220 72 189 105 144 105 c 0
 118 105 95 93 75 70 c 0
 56 47 45 20 42 -11 c 1
 52 -11 l 1
 76 28 92 40 116 40 c 0
 144 40 161 23 161 -8 c 0
 161 -41 137 -75 88 -119 c 1
 104 -119 l 1
EndSplineSet
EndChar

StartChar: quoteleft
Encoding: 8216 8216 128
Width: 259
Flags: W
LayerCount: 2
Fore
SplineSet
155 718 m 1
 70 658 39 619 39 571 c 0
 39 527 70 494 115 494 c 0
 141 494 164 505 183 528 c 0
 203 551 214 579 217 610 c 1
 207 610 l 1
 183 571 167 559 143 559 c 0
 115 559 98 576 98 607 c 0
 98 640 122 674 171 718 c 1
 155 718 l 1
EndSplineSet
EndChar

StartChar: quoteright
Encoding: 8217 8217 129
Width: 270
Flags: W
LayerCount: 2
Fore
SplineSet
104 407 m 1
 189 467 220 506 220 554 c 0
 220 598 189 631 144 631 c 0
 118 631 95 619 75 596 c 0
 56 573 45 546 42 515 c 1
 52 515 l 1
 76 554 92 566 116 566 c 0
 144 566 161 549 161 518 c 0
 161 485 137 451 88 407 c 1
 104 407 l 1
EndSplineSet
EndChar

StartChar: quotedbl
Encoding: 34 34 130
Width: 480
Flags: W
LayerCount: 2
Fore
SplineSet
104 407 m 1
 189 467 220 506 220 554 c 0
 220 598 189 631 144 631 c 0
 118 631 95 619 75 596 c 0
 56 573 45 546 42 515 c 1
 52 515 l 1
 76 554 92 566 116 566 c 0
 144 566 161 549 161 518 c 0
 161 485 137 451 88 407 c 1
 104 407 l 1
314 407 m 1
 399 467 430 506 430 554 c 0
 430 598 399 631 354 631 c 0
 328 631 305 619 285 596 c 0
 266 573 255 546 252 515 c 1
 262 515 l 1
 286 554 302 566 326 566 c 0
 354 566 371 549 371 518 c 0
 371 485 347 451 298 407 c 1
 314 407 l 1
EndSplineSet
EndChar

StartChar: quotesingle
Encoding: 39 39 131
Width: 270
Flags: W
LayerCount: 2
Fore
SplineSet
104 407 m 1
 189 467 220 506 220 554 c 0
 220 598 189 631 144 631 c 0
 118 631 95 619 75 596 c 0
 56 573 45 546 42 515 c 1
 52 515 l 1
 76 554 92 566 116 566 c 0
 144 566 161 549 161 518 c 0
 161 485 137 451 88 407 c 1
 104 407 l 1
EndSplineSet
EndChar

StartChar: grave
Encoding: 96 96 132
Width: 270
Flags: W
LayerCount: 2
Fore
SplineSet
163 407 m 1
 78 467 47 506 47 554 c 0
 47 598 78 631 123 631 c 0
 149 631 172 619 191 596 c 0
 211 573 222 546 225 515 c 1
 215 515 l 1
 191 554 175 566 151 566 c 0
 123 566 106 549 106 518 c 0
 106 485 130 451 179 407 c 1
 163 407 l 1
EndSplineSet
EndChar

StartChar: slash
Encoding: 47 47 133
Width: 323
Flags: W
LayerCount: 2
Fore
SplineSet
42 -149 m 1
 -17 -149 l 1
 259 711 l 1
 318 711 l 1
 42 -149 l 1
EndSplineSet
EndChar

StartChar: uni2027
Encoding: 8231 8231 134
Width: 159
Flags: W
LayerCount: 2
Fore
SplineSet
37 215 m 0
 37 240 57 260 81 260 c 0
 105 260 125 240 125 215 c 0
 125 190 105 170 81 170 c 0
 57 170 37 190 37 215 c 0
EndSplineSet
EndChar

StartChar: afii10194
Encoding: 1123 1123 135
Width: 630
Flags: HW
LayerCount: 2
Fore
SplineSet
36 451 m 1
 36 440 37 422 38 396 c 0
 39 370 40 345 40 322 c 0
 40 294 39 266 38 239 c 0
 37 212 36 193 36 184 c 1
 105 184 l 2
 116 184 124 184 133 187 c 0
 138 188 142 193 143 200 c 0
 144 208 145 232 145 273 c 2
 148 404 l 2
 148 433 158 430 189 430 c 2
 273 430 l 1
 273 420 269 354 261 233 c 0
 253 112 249 35 249 0 c 1
 282 -4 312 -7 339 -8 c 0
 366 -10 401 -11 442 -11 c 2
 570 -8 l 2
 585 -7 592 -2 592 6 c 0
 592 13 589 19 585 24 c 0
 584 27 579 38 572 55 c 0
 565 73 560 85 557 91 c 2
 551 108 l 1
 505 216 l 2
 504 220 500 226 491 226 c 2
 471 222 l 1
 361 188 l 1
 362 217 l 1
 373 381 l 1
 376 430 l 1
 428 430 l 2
 449 430 462 429 468 428 c 0
 475 427 481 420 486 406 c 2
 513 330 l 2
 521 306 521 306 526 306 c 0
 531 306 537 316 546 337 c 0
 555 358 561 373 565 382 c 0
 570 391 579 407 592 428 c 1
 597 441 l 2
 597 448 587 451 566 451 c 2
 379 451 l 1
 384 502 l 1
 397 627 l 2
 404 691 411 744 416 784 c 1
 310 784 l 1
 302 721 294 660 287 599 c 0
 280 539 277 490 277 451 c 1
 36 451 l 1
382 172 m 1
 390 175 l 1
 405 179 l 2
 417 179 424 163 451 98 c 0
 464 65 473 45 477 36 c 0
 478 33 478 29 478 26 c 0
 478 18 470 13 450 13 c 0
 417 13 373 13 364 16 c 0
 359 17 357 22 357 29 c 2
 357 79 l 1
 360 166 l 1
 382 172 l 1
EndSplineSet
EndChar

StartChar: afii10146
Encoding: 1122 1122 136
Width: 726
Flags: HW
LayerCount: 2
Fore
SplineSet
236 0 m 1
 680 0 l 1
 680 4 l 1
 672 15 l 2
 669 19 670 41 670 58 c 2
 670 297 l 1
 619 297 578 303 545 314 c 0
 512 326 469 347 416 377 c 1
 416 522 l 1
 483 522 l 2
 504 522 518 521 523 519 c 0
 529 517 534 510 539 498 c 0
 544 486 550 473 556 459 c 0
 569 431 582 397 593 397 c 0
 598 397 602 401 605 409 c 2
 627 470 l 2
 631 485 644 512 653 527 c 1
 656 538 l 2
 655 539 653 543 649 543 c 2
 416 543 l 1
 416 607 l 1
 469 607 l 1
 469 628 l 1
 252 628 l 1
 252 607 l 1
 303 607 l 1
 303 543 l 1
 40 543 l 1
 39 534 50 526 62 518 c 0
 74 510 75 505 75 474 c 2
 75 459 l 1
 75 279 l 1
 21 279 l 1
 21 259 l 1
 229 259 l 1
 229 279 l 1
 179 279 l 1
 179 522 l 1
 303 522 l 1
 303 21 l 1
 236 21 l 1
 236 0 l 1
416 352 m 1
 449 333 474 319 493 311 c 0
 512 304 534 297 559 290 c 1
 559 21 l 1
 416 21 l 1
 416 352 l 1
EndSplineSet
EndChar

StartChar: uni0466
Encoding: 1126 1126 137
Width: 744
Flags: HW
LayerCount: 2
Fore
SplineSet
472 0 m 1
 472 21 l 1
 419 21 l 1
 419 291 l 1
 488 291 l 1
 525 248 549 215 558 190 c 0
 567 165 572 138 572 107 c 0
 572 72 565 50 552 21 c 1
 504 21 l 1
 504 0 l 1
 723 0 l 1
 723 21 l 1
 668 21 l 1
 675 44 679 60 680 69 c 0
 682 79 683 95 683 118 c 0
 683 182 669 231 642 266 c 0
 615 301 579 343 533 390 c 0
 488 438 458 476 445 505 c 0
 432 534 425 568 425 607 c 1
 475 607 l 1
 475 628 l 1
 261 628 l 1
 261 607 l 1
 310 607 l 1
 310 566 304 528 292 493 c 0
 281 458 254 420 213 379 c 0
 172 338 136 299 103 260 c 0
 71 221 55 174 55 117 c 0
 55 88 59 61 75 21 c 1
 21 21 l 1
 21 0 l 1
 231 0 l 1
 231 21 l 1
 188 21 l 1
 168 50 158 70 158 106 c 0
 158 179 189 232 232 291 c 1
 316 291 l 1
 316 21 l 1
 262 21 l 1
 262 0 l 1
 472 0 l 1
245 313 m 1
 294 390 317 451 317 502 c 0
 317 506 319 526 326 526 c 0
 340 522 325 520 352 458 c 0
 372 417 398 380 421 357 c 0
 433 346 450 331 471 313 c 1
 245 313 l 1
EndSplineSet
EndChar

StartChar: uni0467
Encoding: 1127 1127 138
Width: 611
Flags: HW
LayerCount: 2
Fore
SplineSet
236 451 m 1
 240 402 l 2
 240 373 234 349 222 330 c 0
 211 311 185 281 144 240 c 0
 104 199 75 163 57 130 c 0
 40 98 31 55 31 0 c 1
 129 0 l 1
 127 42 l 2
 127 105 147 149 186 193 c 1
 246 193 l 1
 246 93 242 19 242 0 c 1
 343 0 l 1
 342 53 340 113 340 193 c 1
 390 193 l 1
 438 132 473 77 473 0 c 1
 588 0 l 1
 579 49 566 91 549 128 c 0
 532 165 503 206 462 253 c 0
 422 300 396 336 384 360 c 0
 373 384 365 414 362 451 c 1
 236 451 l 1
198 214 m 1
 272 296 270 342 282 342 c 0
 287 342 290 338 301 318 c 0
 306 308 317 292 333 269 c 0
 349 247 363 229 376 214 c 1
 198 214 l 1
EndSplineSet
EndChar

StartChar: afii10147
Encoding: 1138 1138 139
Width: 704
Flags: HW
LayerCount: 2
Fore
SplineSet
29 211 m 1
 41 183 49 160 54 141 c 0
 59 122 61 99 61 70 c 0
 61 39 58 27 53 14 c 2
 49 -3 l 2
 49 -8 53 -14 58 -14 c 0
 73 -14 90 7 109 50 c 0
 128 93 142 140 151 189 c 1
 177 189 l 1
 227 111 l 2
 248 79 265 53 265 30 c 0
 265 22 262 13 254 1 c 2
 251 -6 l 2
 251 -11 256 -14 265 -14 c 0
 314 -14 360 -2 405 23 c 0
 450 48 481 73 498 97 c 0
 515 121 531 152 546 189 c 1
 558 189 l 1
 558 142 569 96 590 53 c 0
 611 10 631 -12 650 -12 c 1
 655 -7 656 -2 655 3 c 0
 647 35 646 42 646 73 c 0
 646 129 661 171 674 211 c 1
 552 211 l 1
 552 216 556 242 556 270 c 0
 556 350 520 403 465 471 c 0
 410 539 392 567 392 594 c 2
 395 627 l 2
 395 634 390 637 380 637 c 0
 315 637 257 609 205 552 c 0
 153 495 127 430 127 356 c 0
 127 295 145 248 165 211 c 1
 29 211 l 1
445 189 m 1
 436 130 421 84 388 55 c 0
 356 26 327 8 278 8 c 1
 289 27 295 41 297 50 c 0
 299 59 300 71 300 87 c 0
 300 120 291 157 282 189 c 1
 445 189 l 1
277 211 m 1
 250 292 229 363 229 435 c 0
 229 484 243 526 271 560 c 0
 299 595 335 614 378 619 c 1
 373 604 370 592 369 585 c 0
 368 578 367 568 367 553 c 0
 367 527 372 501 382 475 c 2
 416 382 l 2
 443 309 448 268 448 211 c 1
 277 211 l 1
EndSplineSet
EndChar

StartChar: afii10195
Encoding: 1139 1139 140
Width: 796
Flags: HW
LayerCount: 2
Fore
SplineSet
535 23 m 1
 540 71 541 88 541 113 c 0
 541 190 525 271 494 357 c 0
 463 444 438 487 417 487 c 0
 396 487 369 443 338 356 c 0
 307 269 292 187 292 108 c 0
 292 105 293 92 294 71 c 0
 296 50 297 34 297 23 c 1
 44 23 l 2
 19 23 18 23 18 14 c 1
 22 7 29 2 46 -6 c 0
 65 -14 65 -13 65 -44 c 2
 65 -203 l 1
 168 -203 l 1
 168 -43 l 2
 168 -22 170 -10 175 -6 c 0
 180 -2 193 0 214 0 c 2
 303 0 l 1
 316 -63 333 -112 355 -149 c 0
 378 -186 398 -204 415 -204 c 0
 428 -204 445 -189 466 -159 c 0
 487 -129 508 -76 527 0 c 1
 633 0 l 2
 638 0 643 -1 655 -2 c 0
 658 -4 660 -13 663 -30 c 2
 684 -159 l 2
 687 -175 690 -184 698 -184 c 0
 717 -183 711 -82 772 3 c 1
 776 13 l 2
 776 20 766 23 747 23 c 2
 535 23 l 1
346 23 m 1
 344 77 l 2
 344 176 381 237 416 237 c 0
 451 237 488 182 488 75 c 1
 486 23 l 1
 346 23 l 1
351 0 m 1
 481 0 l 1
 474 -25 465 -51 455 -76 c 0
 445 -101 432 -114 416 -114 c 0
 400 -114 387 -101 377 -76 c 0
 367 -51 358 -25 351 0 c 1
EndSplineSet
EndChar

StartChar: afii10148
Encoding: 1140 1140 141
Width: 555
Flags: HW
LayerCount: 2
Fore
SplineSet
303 -2 m 1
 308 65 l 1
 308 138 311 198 317 247 c 0
 324 296 332 343 341 387 c 0
 360 475 387 513 426 513 c 0
 439 513 468 504 477 496 c 0
 488 488 487 489 494 486 c 0
 499 486 500 498 499 503 c 2
 494 530 l 1
 492 547 l 2
 492 580 500 590 525 617 c 0
 529 622 531 626 531 628 c 0
 531 637 520 639 509 639 c 0
 474 639 442 631 412 616 c 0
 382 601 358 567 339 516 c 0
 320 465 305 402 294 328 c 0
 283 254 278 156 278 34 c 1
 210 46 l 1
 211 302 l 2
 211 383 208 444 201 487 c 0
 195 530 184 577 168 628 c 1
 38 628 l 1
 38 617 l 1
 55 592 68 570 75 553 c 0
 82 536 89 505 96 460 c 0
 103 415 106 305 106 128 c 2
 106 30 l 1
 303 -2 l 1
EndSplineSet
EndChar

StartChar: afii10196
Encoding: 1141 1141 142
Width: 519
Flags: HW
LayerCount: 2
Fore
SplineSet
273 0 m 1
 285 88 302 168 323 243 c 0
 344 319 375 344 420 344 c 0
 424 344 442 342 451 339 c 2
 460 337 l 2
 467 337 470 343 467 354 c 0
 466 358 465 365 465 374 c 0
 465 402 474 427 482 435 c 0
 491 444 495 446 495 451 c 0
 495 459 485 459 477 459 c 0
 424 459 383 444 354 414 c 0
 325 384 301 322 282 227 c 2
 268 156 l 1
 258 108 l 2
 258 105 254 88 246 88 c 0
 241 88 237 94 235 106 c 0
 235 131 226 180 209 251 c 0
 192 323 172 390 150 451 c 1
 19 451 l 1
 29 426 l 2
 66 332 94 255 112 194 c 0
 131 134 140 69 140 0 c 1
 273 0 l 1
EndSplineSet
EndChar

StartChar: uni0476
Encoding: 1142 1142 143
Width: 555
Flags: HW
LayerCount: 2
Fore
SplineSet
303 -2 m 1
 308 65 l 1
 308 138 311 198 317 247 c 0
 324 296 332 343 341 387 c 0
 360 475 387 513 426 513 c 0
 439 513 468 504 477 496 c 0
 488 488 487 489 494 486 c 0
 499 486 500 498 499 503 c 2
 494 530 l 1
 492 547 l 2
 492 580 500 590 525 617 c 0
 529 622 531 626 531 628 c 0
 531 637 520 639 509 639 c 0
 474 639 442 631 412 616 c 0
 382 601 358 567 339 516 c 0
 320 465 305 402 294 328 c 0
 283 254 278 156 278 34 c 1
 210 46 l 1
 211 302 l 2
 211 383 208 444 201 487 c 0
 195 530 184 577 168 628 c 1
 38 628 l 1
 38 617 l 1
 55 592 68 570 75 553 c 0
 82 536 89 505 96 460 c 0
 103 415 106 305 106 128 c 2
 106 30 l 1
 303 -2 l 1
103 926 m 6
 97 926 94 923 94 917 c 4
 94 913 99 899 108 876 c 4
 118 853 126 836 131 825 c 6
 158 763 l 5
 177 718 l 5
 189 690 l 6
 192 683 195 679 198 678 c 6
 230 673 l 6
 239 673 243 675 243 679 c 4
 243 683 233 710 232 714 c 6
 201 801 l 5
 159 909 l 6
 156 915 151 918 143 919 c 6
 122 923 l 5
 103 926 l 6
315 718 m 5
 328 690 l 6
 330 683 333 679 336 678 c 6
 368 673 l 6
 377 673 381 675 381 679 c 4
 381 686 375 706 371 714 c 6
 339 801 l 6
 302 893 303 915 282 919 c 6
 260 923 l 5
 241 926 l 6
 235 926 232 923 232 917 c 4
 232 913 237 899 246 876 c 4
 256 853 264 836 269 825 c 6
 296 763 l 5
 315 718 l 5
EndSplineSet
Ligature2: "'ccmp' Canonical Composition and Precomposed Glyphs-1" afii10148 uni030F
EndChar

StartChar: uni0477
Encoding: 1143 1143 144
Width: 519
Flags: HW
LayerCount: 2
Fore
SplineSet
273 0 m 1
 285 88 302 168 323 243 c 0
 344 319 375 344 420 344 c 0
 424 344 442 342 451 339 c 2
 460 337 l 2
 467 337 470 343 467 354 c 0
 466 358 465 365 465 374 c 0
 465 402 474 427 482 435 c 0
 491 444 495 446 495 451 c 0
 495 459 485 459 477 459 c 0
 424 459 383 444 354 414 c 0
 325 384 301 322 282 227 c 2
 268 156 l 1
 258 108 l 2
 258 105 254 88 246 88 c 0
 241 88 237 94 235 106 c 0
 235 131 226 180 209 251 c 0
 192 323 172 390 150 451 c 1
 19 451 l 1
 29 426 l 2
 66 332 94 255 112 194 c 0
 131 134 140 69 140 0 c 1
 273 0 l 1
88 791 m 2
 82 791 79 788 79 782 c 0
 79 778 84 764 93 741 c 0
 103 718 111 701 116 690 c 2
 143 628 l 1
 162 583 l 1
 174 555 l 2
 177 548 180 544 183 543 c 2
 215 538 l 2
 224 538 228 540 228 544 c 0
 228 548 218 575 217 579 c 2
 186 666 l 1
 144 774 l 2
 141 780 136 783 128 784 c 2
 107 788 l 1
 88 791 l 2
300 583 m 1
 313 555 l 2
 315 548 318 544 321 543 c 2
 353 538 l 2
 362 538 366 540 366 544 c 0
 366 551 360 571 356 579 c 2
 324 666 l 2
 287 758 288 780 267 784 c 2
 245 788 l 1
 226 791 l 2
 220 791 217 788 217 782 c 0
 217 778 222 764 231 741 c 0
 241 718 249 701 254 690 c 2
 281 628 l 1
 300 583 l 1
EndSplineSet
Ligature2: "'ccmp' Canonical Composition and Precomposed Glyphs-1" afii10196 uni030F
EndChar

StartChar: uni047A
Encoding: 1146 1146 145
Width: 823
Flags: HW
LayerCount: 2
Fore
SplineSet
476 55 m 1
 469 84 458 100 443 104 c 0
 429 108 419 110 412 111 c 0
 384 111 358 92 347 55 c 1
 300 55 249 64 200 115 c 0
 152 167 142 242 142 314 c 0
 142 390 155 465 203 514 c 0
 251 565 295 573 347 573 c 1
 358 536 384 517 412 517 c 1
 436 521 464 526 476 573 c 1
 523 573 574 564 622 512 c 0
 671 461 681 386 681 314 c 0
 681 238 668 164 620 113 c 0
 572 64 527 55 476 55 c 1
476 30 m 1
 532 30 596 37 672 74 c 0
 710 93 740 125 763 170 c 0
 786 216 797 264 797 314 c 0
 797 365 786 413 763 458 c 0
 740 503 709 535 670 554 c 0
 591 593 539 598 476 598 c 1
 467 633 441 651 412 651 c 0
 383 651 356 631 347 598 c 1
 291 598 227 592 151 553 c 0
 113 534 83 502 60 457 c 0
 37 412 26 364 26 314 c 0
 26 265 37 217 60 171 c 0
 83 125 114 92 153 73 c 0
 232 36 284 30 347 30 c 1
 354 4 365 -11 380 -16 c 0
 395 -21 405 -23 412 -23 c 0
 441 -23 467 -5 476 30 c 1
EndSplineSet
EndChar

StartChar: uni047B
Encoding: 1147 1147 146
Width: 741
Flags: HW
LayerCount: 2
Fore
SplineSet
313 25 m 1
 270 25 237 32 194 69 c 0
 153 108 133 166 133 234 c 0
 133 303 153 360 192 395 c 0
 231 431 257 443 313 443 c 1
 322 416 334 398 369 398 c 0
 406 398 417 416 425 443 c 1
 468 443 502 435 543 398 c 0
 586 361 605 301 605 234 c 0
 605 166 586 106 543 69 c 0
 502 33 468 25 425 25 c 1
 417 49 404 69 369 69 c 0
 334 69 322 50 313 25 c 1
425 0 m 1
 500 0 566 20 623 60 c 0
 681 100 710 158 710 234 c 0
 710 310 681 368 623 407 c 0
 566 447 500 467 425 467 c 1
 414 495 404 512 369 512 c 0
 340 512 325 502 314 467 c 1
 239 467 172 447 114 407 c 0
 57 368 28 310 28 234 c 0
 28 157 57 99 114 59 c 0
 172 20 239 0 314 0 c 1
 322 -24 334 -44 369 -44 c 0
 398 -44 412 -35 425 0 c 1
EndSplineSet
EndChar

StartChar: uni0470
Encoding: 1136 1136 147
Width: 722
Flags: HW
LayerCount: 2
Fore
SplineSet
38 627 m 1
 70 560 95 486 114 407 c 0
 133 328 146 254 153 185 c 0
 161 116 165 54 165 0 c 1
 379 0 l 1
 384 -35 393 -60 404 -77 c 0
 416 -94 435 -111 460 -128 c 1
 408 -145 380 -164 353 -223 c 1
 338 -196 323 -176 310 -163 c 0
 297 -151 276 -139 248 -128 c 1
 293 -97 320 -64 327 0 c 1
 443 0 l 1
 453 84 l 2
 473 236 486 329 514 402 c 0
 520 421 531 439 546 458 c 0
 561 477 581 486 605 486 c 0
 630 486 648 478 676 463 c 2
 683 460 l 1
 685 465 l 1
 685 477 669 497 669 534 c 0
 669 565 680 604 688 613 c 0
 693 618 696 623 699 628 c 0
 699 635 684 635 675 635 c 0
 606 635 550 611 513 520 c 0
 495 475 481 431 472 387 c 0
 463 344 457 303 452 266 c 0
 447 229 438 146 423 18 c 1
 378 18 l 1
 403 624 l 1
 406 688 l 2
 406 728 416 735 464 746 c 1
 463 766 l 1
 232 718 l 1
 232 696 l 1
 239 697 252 700 261 700 c 0
 288 700 293 690 297 650 c 0
 297 633 302 594 302 563 c 2
 326 18 l 1
 271 18 l 1
 274 357 208 497 164 627 c 1
 38 627 l 1
EndSplineSet
EndChar

StartChar: uni0471
Encoding: 1137 1137 148
Width: 667
Flags: HW
LayerCount: 2
Fore
SplineSet
243 67 m 2
 219 214 193 330 145 451 c 1
 24 451 l 1
 51 396 73 339 92 278 c 0
 111 217 129 125 146 0 c 1
 292 0 l 1
 292 -196 l 2
 292 -241 303 -250 340 -250 c 0
 365 -250 377 -248 401 -241 c 1
 399 -225 l 1
 370 -229 l 2
 343 -229 346 -214 346 -163 c 2
 346 0 l 1
 408 0 l 1
 425 110 l 2
 432 153 440 194 449 233 c 0
 458 272 467 301 476 319 c 0
 493 356 507 372 535 372 c 0
 547 372 556 370 581 358 c 2
 599 349 l 1
 610 345 l 2
 614 345 616 348 616 353 c 2
 613 372 l 1
 610 390 l 1
 610 418 637 449 639 456 c 0
 639 465 623 468 603 468 c 0
 503 468 456 395 431 279 c 0
 418 221 404 134 389 19 c 1
 346 19 l 1
 346 129 348 234 352 334 c 0
 357 434 362 513 367 570 c 0
 373 628 379 660 385 665 c 0
 392 671 410 677 439 682 c 1
 434 703 l 1
 208 659 l 1
 212 639 l 1
 221 640 231 644 239 644 c 0
 260 644 264 639 268 612 c 0
 271 599 273 579 274 552 c 0
 276 525 277 498 277 473 c 0
 277 388 279 296 284 195 c 0
 289 95 292 36 292 19 c 1
 250 19 l 1
 243 67 l 2
EndSplineSet
EndChar

StartChar: uni047C
Encoding: 1148 1148 149
Width: 1041
Flags: HW
LayerCount: 2
Fore
SplineSet
486 99 m 0
 492 99 500 96 510 90 c 0
 521 85 542 71 573 50 c 0
 636 7 689 -10 734 -10 c 0
 801 -10 865 24 927 91 c 0
 990 158 1021 238 1021 331 c 0
 1021 392 1009 442 984 481 c 0
 960 520 934 551 907 574 c 0
 852 619 807 645 776 645 c 0
 752 645 733 626 673 565 c 0
 643 535 624 516 617 507 c 0
 610 498 606 493 606 490 c 0
 606 482 624 473 644 462 c 0
 664 453 675 446 683 446 c 0
 691 446 693 444 721 476 c 0
 750 509 778 533 806 533 c 0
 835 533 866 508 900 459 c 0
 934 410 951 349 951 276 c 0
 951 209 933 154 897 111 c 0
 861 68 825 46 790 46 c 0
 776 46 761 50 746 58 c 0
 731 66 705 82 666 106 c 0
 590 154 562 171 554 171 c 0
 550 171 542 169 538 166 c 2
 454 121 l 2
 409 94 341 62 282 62 c 0
 229 62 186 89 151 142 c 0
 117 196 100 251 100 306 c 0
 100 359 116 408 147 454 c 0
 179 500 211 523 242 523 c 0
 273 523 315 502 335 486 c 0
 356 470 365 464 374 464 c 0
 379 464 394 470 417 481 c 0
 441 493 453 502 453 507 c 0
 453 518 426 540 373 574 c 0
 320 609 284 626 264 626 c 0
 228 626 178 592 115 524 c 0
 52 456 20 376 20 285 c 0
 20 207 40 139 81 80 c 0
 122 22 170 -7 227 -7 c 0
 255 -7 292 5 315 14 c 0
 327 19 345 27 370 39 c 0
 444 77 472 99 486 99 c 0
639 719 m 0
 639 763 601 801 549 801 c 0
 512 801 484 785 465 754 c 0
 446 723 437 703 437 695 c 0
 437 688 440 684 447 684 c 0
 469 684 477 735 529 735 c 0
 553 735 581 721 581 684 c 0
 581 668 575 642 564 625 c 0
 553 608 550 603 550 595 c 0
 550 590 553 588 559 588 c 0
 573 588 590 603 609 633 c 0
 629 664 639 692 639 719 c 0
553 932 m 0
 519 932 478 927 431 918 c 0
 384 909 351 902 334 895 c 0
 301 882 288 854 275 823 c 0
 262 794 250 769 237 761 c 0
 224 753 226 753 226 750 c 0
 226 740 249 735 294 735 c 0
 314 735 327 736 332 739 c 0
 337 742 345 754 354 776 c 0
 363 799 384 825 415 854 c 0
 447 883 487 898 534 898 c 0
 595 898 640 857 683 820 c 0
 726 784 758 766 789 766 c 0
 804 766 831 774 870 789 c 0
 909 804 929 816 929 824 c 0
 929 831 923 833 912 831 c 0
 908 831 895 828 880 828 c 0
 854 828 834 830 819 834 c 0
 804 839 779 852 742 874 c 0
 705 896 674 911 649 919 c 0
 624 928 592 932 553 932 c 0
EndSplineSet
Ligature2: "'ccmp' Second Round of Precomposed Glyphs-1" uniA64C uniE005
EndChar

StartChar: uni047D
Encoding: 1149 1149 150
Width: 1000
Flags: HW
LayerCount: 2
Fore
SplineSet
494 150 m 1
 411 102 l 2
 360 73 304 49 260 49 c 0
 212 49 174 69 146 110 c 0
 119 151 105 197 105 250 c 0
 105 326 146 375 205 375 c 1
 252 380 306 326 327 319 c 1
 335 319 l 2
 343 319 358 324 379 335 c 0
 400 346 411 354 411 361 c 0
 411 372 384 395 331 428 c 0
 278 461 241 478 220 478 c 0
 195 478 156 453 101 404 c 0
 47 355 20 293 20 218 c 0
 20 165 36 113 67 63 c 0
 98 13 146 -12 209 -12 c 0
 277 -12 336 27 399 64 c 0
 430 83 449 93 456 96 c 0
 463 99 469 101 474 101 c 0
 481 101 505 88 546 63 c 0
 587 38 624 20 655 7 c 0
 686 -5 718 -11 751 -11 c 0
 813 -11 867 14 914 65 c 0
 961 116 984 179 984 254 c 0
 984 329 966 382 929 412 c 0
 893 442 863 464 839 478 c 0
 815 492 795 499 779 499 c 0
 756 499 729 482 696 447 c 0
 663 413 633 379 605 344 c 0
 605 339 617 331 641 320 c 0
 666 309 683 304 692 304 c 0
 711 304 765 388 806 388 c 0
 832 388 857 368 882 328 c 0
 907 289 919 244 919 195 c 0
 919 146 907 108 882 82 c 0
 858 56 831 43 802 43 c 0
 770 43 727 61 673 96 c 0
 620 132 586 154 572 163 c 0
 558 172 549 176 545 176 c 0
 540 176 531 172 519 165 c 2
 501 155 l 1
 494 150 l 1
681 645 m 6
 704 624 740 606 769 606 c 4
 790 606 818 613 854 628 c 4
 890 643 908 655 908 664 c 4
 908 671 902 673 889 671 c 6
 828 667 l 6
 817 667 806 669 793 673 c 4
 781 678 758 690 724 710 c 4
 656 751 604 772 563 772 c 4
 510 772 434 761 355 741 c 4
 316 731 293 723 286 717 c 4
 279 711 270 694 257 666 c 4
 245 638 237 620 232 613 c 4
 227 606 222 601 215 597 c 4
 208 594 205 590 205 587 c 4
 205 575 219 576 226 576 c 6
 290 575 l 6
 314 575 319 582 327 599 c 4
 332 608 340 627 353 654 c 4
 366 681 389 702 422 716 c 4
 455 730 485 737 511 737 c 4
 542 737 581 724 616 697 c 6
 681 645 l 6
531 635 m 4
 500 635 473 621 450 594 c 4
 427 567 415 548 415 535 c 4
 415 528 418 525 424 525 c 4
 429 525 434 527 454 546 c 4
 474 565 487 569 507 569 c 4
 540 569 561 546 561 513 c 4
 563 490 534 444 532 433 c 4
 535 428 537 425 540 425 c 4
 552 425 568 440 587 470 c 4
 606 500 616 529 616 557 c 4
 616 605 580 635 531 635 c 4
EndSplineSet
Ligature2: "'ccmp' Second Round of Precomposed Glyphs-1" uniA64D uniE005
EndChar

StartChar: uni047E
Encoding: 1150 1150 151
Width: 858
Flags: HW
LayerCount: 2
Fore
SplineSet
586 793 m 5
 602 724 617 690 631 690 c 4
 636 690 638 692 651 716 c 4
 664 740 690 770 715 798 c 5
 719 805 l 6
 719 813 715 814 672 814 c 6
 199 814 l 6
 183 814 161 815 161 806 c 4
 161 795 185 782 205 755 c 4
 212 746 219 735 227 722 c 4
 236 709 241 700 244 697 c 4
 247 694 250 692 254 692 c 4
 267 692 282 732 291 793 c 5
 389 793 l 5
 389 690 l 5
 482 690 l 5
 482 793 l 5
 586 793 l 5
340 339 m 1
 351 325 361 311 368 296 c 0
 375 282 383 259 392 226 c 1
 348 226 316 212 316 173 c 0
 316 122 359 115 420 115 c 1
 397 66 376 32 317 32 c 0
 270 32 229 57 195 106 c 0
 161 155 144 226 144 319 c 0
 144 415 159 488 189 539 c 0
 220 590 252 616 286 616 c 0
 297 616 303 612 303 605 c 0
 302 601 301 599 289 590 c 0
 277 581 270 568 270 547 c 0
 270 510 299 491 331 491 c 0
 370 491 400 515 400 555 c 0
 400 602 357 638 288 638 c 0
 221 638 161 607 107 546 c 0
 53 485 26 404 26 301 c 0
 26 195 53 115 108 62 c 0
 163 9 220 -17 280 -17 c 0
 308 -17 334 -10 357 5 c 0
 381 20 397 31 404 40 c 0
 419 57 426 63 429 63 c 0
 433 63 434 63 461 32 c 0
 488 3 535 -17 578 -17 c 0
 637 -17 694 10 749 63 c 0
 804 116 832 196 832 301 c 0
 832 404 805 486 750 547 c 0
 696 608 636 638 569 638 c 0
 502 638 458 603 458 555 c 0
 458 516 489 491 526 491 c 0
 563 491 588 515 588 548 c 0
 588 582 554 600 554 606 c 0
 554 613 560 616 572 616 c 0
 607 616 639 590 669 539 c 0
 699 488 714 414 714 319 c 0
 714 227 697 156 662 106 c 0
 628 57 588 32 541 32 c 0
 482 32 457 70 438 115 c 1
 495 115 541 124 541 173 c 0
 541 212 512 226 465 226 c 1
 474 259 482 282 489 295 c 0
 496 309 506 324 518 339 c 1
 340 339 l 1
EndSplineSet
EndChar

StartChar: uni047F
Encoding: 1151 1151 152
Width: 778
Flags: HW
LayerCount: 2
Fore
SplineSet
593 656 m 1
 593 541 l 2
 593 520 594 509 603 509 c 0
 613 509 612 528 640 595 c 0
 673 666 682 659 680 668 c 0
 680 679 679 678 635 678 c 2
 126 678 l 1
 115 678 l 2
 92 678 91 678 91 667 c 0
 91 659 99 658 118 653 c 0
 137 648 137 642 137 618 c 2
 137 515 l 1
 238 515 l 1
 238 656 l 1
 365 656 l 1
 365 514 l 1
 465 514 l 1
 465 656 l 1
 593 656 l 1
73 451 m 1
 63 414 56 384 52 361 c 0
 48 339 46 311 46 277 c 0
 46 193 65 124 103 70 c 0
 141 16 175 -11 205 -11 c 0
 238 -11 298 36 359 100 c 1
 388 55 416 25 443 11 c 0
 470 -3 493 -10 510 -10 c 0
 559 -10 608 21 658 84 c 0
 708 147 733 220 733 302 c 0
 733 355 719 406 706 451 c 1
 581 451 l 1
 589 432 l 2
 610 385 623 348 629 319 c 0
 636 290 639 263 639 237 c 0
 639 179 626 133 599 98 c 0
 572 63 549 46 530 46 c 0
 509 46 486 65 459 102 c 0
 433 139 420 187 420 246 c 0
 420 326 444 380 485 451 c 1
 350 451 l 1
 322 376 313 327 313 270 c 0
 313 210 327 172 347 127 c 1
 334 113 318 96 297 77 c 0
 277 58 261 48 249 48 c 0
 226 48 203 68 182 109 c 0
 161 150 151 199 151 254 c 0
 151 327 167 392 187 451 c 1
 73 451 l 1
EndSplineSet
EndChar

StartChar: uni0478
Encoding: 1144 1144 153
Width: 994
Flags: HW
LayerCount: 2
Fore
SplineSet
282 640 m 0
 231 640 177 615 120 566 c 0
 63 517 35 445 35 352 c 0
 35 321 39 293 47 266 c 0
 55 240 74 204 105 159 c 0
 136 114 155 86 162 73 c 0
 169 60 173 47 173 32 c 0
 173 26 172 20 169 14 c 2
 162 -3 l 2
 162 -9 167 -12 178 -12 c 0
 193 -12 231 -7 310 21 c 0
 350 35 386 66 418 114 c 0
 450 163 466 213 466 265 c 0
 466 325 447 374 418 411 c 0
 403 430 383 455 357 487 c 0
 306 551 296 574 296 597 c 2
 299 628 l 2
 299 636 297 640 282 640 c 0
157 293 m 2
 136 358 133 396 133 431 c 0
 133 490 148 536 178 569 c 0
 208 602 242 619 280 619 c 1
 272 587 271 581 271 562 c 0
 271 548 273 533 276 516 c 0
 280 499 290 469 305 424 c 0
 321 379 333 343 342 315 c 0
 351 287 355 254 355 216 c 0
 355 156 338 106 303 67 c 0
 268 28 229 9 186 9 c 1
 207 46 213 57 213 90 c 0
 213 115 206 144 201 161 c 2
 157 293 l 2
721 -1 m 1
 717 -41 l 2
 717 -70 714 -102 709 -139 c 0
 704 -176 698 -202 692 -218 c 2
 687 -240 l 2
 687 -247 691 -250 698 -250 c 0
 717 -250 732 -221 741 -163 c 0
 751 -106 762 -26 775 77 c 0
 788 180 807 249 831 285 c 0
 855 321 898 339 959 339 c 1
 952 364 948 379 948 392 c 0
 948 416 962 437 969 441 c 0
 972 444 975 447 978 452 c 0
 978 459 972 460 956 460 c 0
 885 460 834 429 802 367 c 0
 770 305 748 223 735 122 c 2
 724 39 l 2
 724 24 719 17 710 17 c 0
 699 17 695 28 692 44 c 2
 669 186 l 2
 654 286 637 362 613 450 c 1
 536 451 l 2
 512 451 502 451 502 439 c 0
 503 434 502 436 515 399 c 0
 522 380 531 340 544 278 c 0
 557 216 574 123 593 -1 c 1
 721 -1 l 1
EndSplineSet
EndChar

StartChar: uni0479
Encoding: 1145 1145 154
Width: 759
Flags: HW
LayerCount: 2
Fore
SplineSet
44 237 m 4
 44 172 55 115 76 64 c 4
 98 13 123 -12 152 -12 c 4
 181 -12 203 12 219 59 c 4
 235 107 243 157 243 209 c 4
 243 276 230 334 205 382 c 4
 180 430 155 454 131 454 c 4
 110 454 91 433 72 390 c 4
 53 348 44 297 44 237 c 4
86 224 m 4
 86 284 108 327 141 327 c 4
 169 327 199 296 199 216 c 4
 199 152 179 110 147 110 c 4
 115 110 86 152 86 224 c 4
497 0 m 1
 493 -43 488 -87 481 -132 c 0
 474 -177 469 -206 465 -217 c 2
 461 -236 l 2
 461 -244 465 -248 474 -248 c 0
 487 -248 493 -241 502 -206 c 0
 507 -189 512 -168 517 -142 c 0
 522 -117 529 -78 537 -27 c 0
 546 24 555 77 565 130 c 0
 575 184 586 228 597 262 c 0
 609 297 623 318 638 327 c 0
 654 336 680 341 716 341 c 0
 723 341 726 343 726 348 c 0
 729 352 716 358 714 384 c 0
 714 401 729 429 737 438 c 0
 746 447 749 450 749 454 c 0
 749 459 742 462 729 462 c 0
 567 464 538 278 514 122 c 0
 507 68 502 37 499 29 c 0
 496 22 492 18 487 18 c 0
 476 18 474 23 469 47 c 2
 463 90 l 2
 444 219 427 332 400 428 c 2
 396 444 l 2
 395 449 386 451 371 451 c 2
 305 451 l 2
 288 451 280 449 280 444 c 2
 284 426 l 1
 317 345 344 211 368 0 c 1
 497 0 l 1
EndSplineSet
Ligature2: "'ccmp' Canonical Composition and Precomposed Glyphs-1" uni1C82 afii10085
EndChar

StartChar: uni0460
Encoding: 1120 1120 155
Width: 858
Flags: HW
LayerCount: 2
Fore
SplineSet
340 339 m 1
 351 325 361 311 368 296 c 0
 375 282 383 259 392 226 c 1
 348 226 316 212 316 173 c 0
 316 122 359 115 420 115 c 1
 397 66 376 32 317 32 c 0
 270 32 229 57 195 106 c 0
 161 155 144 226 144 319 c 0
 144 415 159 488 189 539 c 0
 220 590 252 616 286 616 c 0
 297 616 303 612 303 605 c 0
 302 601 301 599 289 590 c 0
 277 581 270 568 270 547 c 0
 270 510 299 491 331 491 c 0
 370 491 400 515 400 555 c 0
 400 602 357 638 288 638 c 0
 221 638 161 607 107 546 c 0
 53 485 26 404 26 301 c 0
 26 195 53 115 108 62 c 0
 163 9 220 -17 280 -17 c 0
 308 -17 334 -10 357 5 c 0
 381 20 397 31 404 40 c 0
 419 57 426 63 429 63 c 0
 433 63 434 63 461 32 c 0
 488 3 535 -17 578 -17 c 0
 637 -17 694 10 749 63 c 0
 804 116 832 196 832 301 c 0
 832 404 805 486 750 547 c 0
 696 608 636 638 569 638 c 0
 502 638 458 603 458 555 c 0
 458 516 489 491 526 491 c 0
 563 491 588 515 588 548 c 0
 588 563 583 578 566 591 c 0
 558 598 554 603 554 606 c 0
 554 613 560 616 572 616 c 0
 607 616 639 590 669 539 c 0
 699 488 714 414 714 319 c 0
 714 227 697 156 662 106 c 0
 628 57 588 32 541 32 c 0
 482 32 457 70 438 115 c 1
 497 115 542 124 542 173 c 0
 542 212 511 226 466 226 c 1
 474 259 482 282 489 295 c 0
 496 309 506 324 518 339 c 1
 340 339 l 1
EndSplineSet
EndChar

StartChar: uni0461
Encoding: 1121 1121 156
Width: 778
Flags: HW
LayerCount: 2
Fore
SplineSet
69 451 m 1
 52 392 42 344 42 277 c 0
 42 193 61 124 99 70 c 0
 137 16 171 -11 200 -11 c 0
 235 -11 292 36 355 100 c 1
 383 55 411 26 438 11 c 0
 466 -3 488 -10 505 -10 c 0
 554 -10 604 21 653 84 c 0
 703 147 728 219 728 302 c 0
 728 357 718 400 702 451 c 1
 577 451 l 1
 585 432 l 2
 606 385 619 348 625 319 c 0
 632 290 635 263 635 237 c 0
 635 179 621 133 594 98 c 0
 567 63 545 46 526 46 c 0
 505 46 482 65 455 102 c 0
 428 140 415 188 415 246 c 0
 415 287 420 321 431 350 c 0
 442 379 459 412 481 451 c 1
 346 451 l 1
 323 391 308 341 308 270 c 0
 308 223 315 188 343 127 c 1
 330 113 314 96 293 77 c 0
 273 58 257 48 245 48 c 0
 221 48 199 68 178 109 c 0
 157 150 147 199 147 254 c 0
 147 327 163 392 183 451 c 1
 69 451 l 1
EndSplineSet
EndChar

StartChar: uni046E
Encoding: 1134 1134 157
Width: 574
Flags: HW
LayerCount: 2
Fore
SplineSet
56 130 m 1
 274 130 l 1
 274 152 l 1
 219 152 l 1
 216 194 l 1
 216 273 249 328 310 328 c 0
 374 328 403 282 403 174 c 0
 403 131 398 93 387 62 c 0
 376 31 353 15 318 15 c 0
 303 15 269 29 242 40 c 0
 217 51 185 60 162 60 c 0
 109 60 63 15 63 -57 c 0
 63 -90 73 -120 94 -145 c 0
 115 -170 141 -183 172 -183 c 0
 199 -183 231 -170 280 -137 c 0
 331 -105 354 -93 378 -93 c 0
 414 -93 417 -104 417 -141 c 0
 417 -176 424 -203 473 -203 c 0
 506 -203 528 -173 528 -142 c 0
 528 -91 481 -60 426 -60 c 0
 373 -60 327 -83 275 -114 c 0
 250 -130 233 -140 225 -143 c 0
 217 -146 209 -148 202 -148 c 0
 173 -148 157 -114 157 -57 c 0
 157 -4 167 24 202 24 c 0
 211 24 236 20 265 9 c 0
 294 0 315 -9 343 -9 c 0
 384 -9 424 7 461 38 c 0
 498 69 517 115 517 176 c 0
 517 259 482 312 391 345 c 1
 446 372 481 401 481 480 c 0
 481 543 462 586 425 607 c 0
 388 628 349 639 306 639 c 1
 311 667 322 695 351 695 c 0
 363 695 378 689 395 681 c 2
 405 678 l 2
 406 678 409 680 412 684 c 1
 409 690 l 2
 402 701 399 713 399 724 c 0
 404 756 422 755 420 762 c 0
 420 773 410 773 393 773 c 0
 337 773 318 743 294 668 c 1
 256 772 l 1
 203 772 l 2
 174 772 167 770 167 757 c 0
 167 744 192 740 196 737 c 0
 198 736 200 732 203 727 c 2
 205 722 l 1
 209 715 l 1
 243 636 l 1
 188 621 152 594 134 554 c 0
 116 515 107 473 107 428 c 1
 55 428 l 1
 55 407 l 1
 273 407 l 1
 273 428 l 1
 216 428 l 1
 216 573 242 622 299 622 c 0
 362 622 377 565 377 492 c 0
 377 448 370 393 353 374 c 0
 336 355 333 356 300 356 c 2
 284 356 l 2
 231 356 193 339 171 304 c 0
 149 269 129 219 111 152 c 1
 56 152 l 1
 56 130 l 1
EndSplineSet
EndChar

StartChar: uni046F
Encoding: 1135 1135 158
Width: 481
Flags: HW
LayerCount: 2
Fore
SplineSet
311 249 m 1
 341 256 367 266 390 281 c 0
 413 296 424 319 424 352 c 0
 424 393 409 420 380 434 c 0
 351 448 316 457 277 460 c 1
 288 532 321 568 357 577 c 0
 394 586 394 589 394 596 c 0
 394 607 374 615 353 615 c 0
 296 615 277 575 261 516 c 1
 207 609 l 1
 149 609 l 2
 134 609 127 607 127 602 c 0
 127 600 130 594 136 584 c 2
 143 574 l 1
 193 496 l 1
 202 480 l 2
 203 479 204 476 207 473 c 0
 207 472 207 470 208 468 c 0
 208 463 207 460 166 452 c 0
 145 449 123 436 99 414 c 0
 75 392 63 357 63 308 c 1
 164 308 l 1
 164 401 193 440 253 440 c 0
 296 440 333 414 333 346 c 0
 333 309 325 285 308 273 c 0
 292 261 272 254 248 252 c 0
 195 252 157 244 134 229 c 0
 111 214 89 177 66 118 c 1
 170 118 l 1
 170 150 175 177 186 200 c 0
 197 223 218 234 251 234 c 0
 296 234 321 219 328 189 c 0
 335 160 339 136 339 118 c 0
 339 41 305 13 268 13 c 0
 245 13 224 24 192 37 c 0
 179 41 164 43 147 43 c 0
 119 43 96 32 78 9 c 0
 60 -14 51 -39 51 -68 c 0
 51 -97 60 -123 77 -146 c 0
 95 -169 119 -181 149 -181 c 0
 176 -181 218 -168 263 -152 c 0
 286 -144 302 -140 311 -140 c 0
 327 -140 330 -145 330 -168 c 2
 330 -179 l 2
 330 -202 342 -217 369 -217 c 0
 396 -217 407 -199 407 -179 c 0
 407 -150 379 -123 328 -123 c 0
 303 -123 273 -132 237 -141 c 0
 202 -152 195 -155 180 -155 c 0
 140 -155 124 -110 124 -65 c 0
 124 -17 146 17 179 17 c 0
 187 17 201 12 209 11 c 0
 240 0 271 -13 306 -13 c 0
 389 -13 433 47 433 120 c 0
 433 161 420 190 395 206 c 0
 370 223 342 234 311 241 c 1
 311 249 l 1
EndSplineSet
EndChar

StartChar: afii10053
Encoding: 1028 1028 159
Width: 536
Flags: HW
LayerCount: 2
Fore
SplineSet
457 100 m 1
 426 109 394 120 362 133 c 0
 331 146 307 156 290 165 c 1
 281 144 l 1
 288 140 l 2
 301 133 315 124 315 120 c 0
 315 107 301 86 273 57 c 0
 246 28 210 13 166 13 c 0
 150 13 140 14 128 17 c 1
 157 61 175 100 175 173 c 0
 175 189 172 226 169 245 c 2
 166 268 l 2
 166 274 167 279 170 284 c 2
 206 325 l 2
 231 350 266 380 307 380 c 0
 348 380 377 347 377 286 c 1
 374 245 l 1
 335 245 l 1
 334 223 l 1
 510 223 l 1
 510 245 l 1
 476 245 l 1
 476 376 435 432 344 432 c 0
 263 432 213 383 160 311 c 1
 156 336 l 2
 153 352 148 372 142 395 c 0
 138 416 136 439 136 465 c 0
 136 525 151 566 180 587 c 0
 210 609 239 620 268 620 c 0
 325 620 354 594 362 527 c 1
 323 519 l 1
 327 497 l 1
 354 502 378 506 406 506 c 0
 423 506 449 504 484 499 c 2
 500 496 l 1
 501 518 l 1
 470 524 l 1
 449 596 392 639 279 639 c 0
 184 639 119 612 84 559 c 0
 49 506 31 452 31 397 c 0
 31 361 35 331 44 307 c 0
 53 284 65 254 80 217 c 0
 112 145 121 102 121 78 c 0
 121 53 110 26 82 5 c 1
 113 -7 140 -15 193 -15 c 0
 269 -15 348 9 380 48 c 0
 413 88 414 89 419 89 c 0
 422 89 439 83 451 79 c 1
 457 100 l 1
EndSplineSet
EndChar

StartChar: uni0482
Encoding: 1154 1154 160
Width: 426
Flags: HW
LayerCount: 2
Fore
SplineSet
36 -180 m 1
 107 -212 l 1
 186 -35 l 1
 269 -92 l 1
 299 -25 l 1
 217 34 l 1
 271 153 l 1
 353 97 l 1
 383 163 l 1
 301 221 l 1
 399 434 l 1
 328 467 l 1
 236 267 l 1
 143 331 l 1
 113 265 l 1
 206 200 l 1
 152 79 l 1
 59 143 l 1
 29 77 l 1
 122 11 l 1
 36 -180 l 1
EndSplineSet
EndChar

StartChar: underscore
Encoding: 95 95 161
Width: 352
Flags: HW
LayerCount: 2
Fore
SplineSet
325 0 m 1
 325 76 l 1
 25 76 l 1
 25 0 l 1
 325 0 l 1
EndSplineSet
EndChar

StartChar: afii10085
Encoding: 1091 1091 162
Width: 500
Flags: HW
LayerCount: 2
Fore
SplineSet
219 -1 m 1
 215 -41 l 2
 215 -70 212 -102 207 -139 c 0
 202 -176 196 -202 190 -218 c 2
 185 -240 l 2
 185 -247 189 -250 196 -250 c 0
 215 -250 230 -221 239 -163 c 0
 249 -106 260 -26 273 77 c 0
 286 180 305 249 329 285 c 0
 353 321 396 339 457 339 c 1
 450 364 446 379 446 392 c 0
 446 416 460 437 467 441 c 0
 470 444 473 447 476 452 c 0
 476 459 470 460 454 460 c 0
 383 460 332 429 300 367 c 0
 268 305 246 223 233 122 c 2
 222 39 l 2
 222 24 217 17 208 17 c 0
 197 17 193 28 190 44 c 2
 167 186 l 2
 152 286 135 362 111 450 c 1
 34 451 l 2
 10 451 0 451 0 439 c 0
 1 434 0 436 13 399 c 0
 20 380 29 340 42 278 c 0
 55 216 72 123 91 -1 c 1
 219 -1 l 1
EndSplineSet
EndChar

StartChar: afii10037
Encoding: 1059 1059 163
Width: 528
Flags: HW
LayerCount: 2
Fore
SplineSet
315 148 m 1
 315 179 317.01719092 236.125248135 324 287 c 0
 331 338 337 377 343 406 c 0
 356 463 387 498 434 498 c 0
 452 501 478 485 493 483 c 0
 499 486 502 488 502 491 c 2
 499 501 l 2
 490 518 485 543 485 559 c 0
 485 584 498 618 503 623 c 0
 506 628 508 633 508 636 c 0
 508 640 505 642 499 642 c 0
 450 642 410 625 367 566 c 0
 346 537 330 499 320 451 c 0
 311 403 302 335 294 248 c 1
 234 248 l 1
 232 282 l 1
 232 393 213 513 182 628 c 1
 50 628 l 1
 78 560 97 504 108 460 c 0
 119 417 125 338 125 224 c 1
 292 224 l 1
 288 148 l 1
 285 117 276 38 269 31 c 0
 262.48046875 24.48046875 246 21 218 21 c 1
 218 0 l 1
 381 0 l 1
 381 22 l 1
 333 22 315 93 315 148 c 1
EndSplineSet
EndChar

StartChar: afii10056
Encoding: 1031 1031 164
Width: 296
Flags: HW
LayerCount: 2
Fore
SplineSet
131 714 m 5
 112 831 l 5
 17 831 l 5
 36 714 l 5
 131 714 l 5
181 250 m 1
 217 259 233 290 233 315 c 0
 233 340 217 370 181 379 c 1
 181 431 l 2
 181 531 192 575 235 595 c 0
 257 605 268 613 268 620 c 0
 268 628 266 628 246 628 c 2
 54 628 l 1
 24 627 l 2
 21 626 20 624 20 619 c 0
 20 613 31 605 53 595 c 0
 75 585 89 568 96 544 c 0
 103 520 107 482 107 431 c 2
 107 379 l 1
 71 370 55 340 55 315 c 0
 55 288 70 261 107 250 c 1
 107 199 l 2
 107 100 96 54 52 34 c 0
 31 24 20 16 20 10 c 0
 20 1 21 0 48 0 c 2
 242 0 l 2
 266 0 268 1 268 10 c 0
 268 17 257 25 235 34 c 0
 213 44 198 61 191 85 c 0
 184 109 181 147 181 199 c 2
 181 250 l 1
282 714 m 5
 263 831 l 5
 168 831 l 5
 187 714 l 5
 282 714 l 5
EndSplineSet
Ligature2: "'ccmp' Canonical Composition and Precomposed Glyphs-1" afii10055 uni0308
EndChar

StartChar: afii10104
Encoding: 1111 1111 165
Width: 278
Flags: HW
LayerCount: 2
Fore
SplineSet
198 0 m 1
 198 11 197 37 195 79 c 0
 193 121 192 162 192 202 c 0
 192 255 193 296 194 327 c 0
 195 358 198 400 203 451 c 1
 92 451 l 1
 88 407 85 365 83 326 c 0
 81 287 80 238 80 179 c 0
 80 159 81 128 82 85 c 0
 84 43 85 15 85 0 c 1
 198 0 l 1
31 540 m 5
 120 540 l 5
 100 651 l 5
 13 651 l 5
 31 540 l 5
178 540 m 5
 264 540 l 5
 247 651 l 5
 158 651 l 5
 178 540 l 5
EndSplineSet
Ligature2: "'ccmp' Canonical Composition and Precomposed Glyphs-1" afii10103 uni0308
EndChar

StartChar: uni0450
Encoding: 1104 1104 166
Width: 315
Flags: HW
LayerCount: 2
Fore
SplineSet
62 -1 m 1
 95 -3 l 2
 139 -3 174 10 199 35 c 0
 225 61 238 83 238 100 c 0
 238 109 234 114 227 114 c 0
 224 114 218 111 207 106 c 2
 199 102 l 1
 151 78 l 1
 151 172 l 1
 216 195 l 2
 251 208 255 213 255 237 c 2
 255 299 l 1
 150 259 l 1
 150 287 l 2
 150 350 171 380 224 385 c 0
 251 388 264 393 265 399 c 2
 265 462 l 1
 228 462 200 461 182 458 c 0
 165 455 144 449 121 438 c 0
 74 418 62 374 62 265 c 2
 62 -1 l 1
112 687 m 6
 131 656 144 638 151 632 c 4
 158 626 169 623 185 623 c 4
 196 623 201 625 201 630 c 6
 199 637 l 5
 180 673 l 5
 166 703 l 5
 157 720 l 5
 118 795 l 6
 110 810 107 811 74 815 c 6
 49 817 l 6
 42 817 38 816 38 809 c 4
 38 806 48 789 65 761 c 6
 112 687 l 6
EndSplineSet
Ligature2: "'ccmp' Canonical Composition and Precomposed Glyphs-1" afii10070 gravecomb
EndChar

StartChar: uni0400
Encoding: 1024 1024 167
Width: 536
Flags: HW
LayerCount: 2
Back
SplineSet
189 0 m 1
 189 21 l 1
 159 21 139 29 129 46 c 0
 119 63 114 81 114 98 c 1
 151 106 170 126 170 157 c 0
 170 184 156 214 115 221 c 1
 115 228 l 1
 150 233 179 241 208 272 c 0
 239 304 256 337 275 388 c 1
 275 21 l 1
 225 21 l 1
 225 0 l 1
 437 0 l 1
 437 21 l 1
 387 21 l 1
 387 607 l 1
 437 607 l 1
 438 628 l 1
 224 628 l 1
 224 607 l 1
 273 607 l 1
 273 575 275 542 280 508 c 1
 272 507 l 1
 256 552 229 576 190 576 c 0
 155 576 132 550 132 518 c 0
 132 489 151 465 184 465 c 0
 207 465 221 478 234 493 c 0
 239 500 243 503 247 503 c 0
 256 503 261 496 261 482 c 0
 261 429 213 410 137 387 c 0
 62 364 29 341 29 297 c 0
 29 268 48 241 88 230 c 1
 88 221 l 1
 47 214 33 184 33 157 c 0
 33 117 61 105 89 98 c 1
 89 81 84 64 73 47 c 0
 63 30 43 21 14 21 c 1
 14 0 l 1
 189 0 l 1
85 287 m 0
 85 301 89 312 97 319 c 0
 105 326 127 339 162 357 c 0
 197 375 223 395 240 416 c 2
 248 427 l 2
 251 431 254 433 258 433 c 0
 264 433 267 429 267 421 c 0
 267 398 253 365 224 322 c 0
 196 279 163 258 125 258 c 0
 102 258 85 275 85 287 c 0
292 691 m 0
 306 691 320 701 334 721 c 0
 348 741 355 763 355 788 c 0
 355 841 312 867 271 867 c 0
 240 867 214 854 192 829 c 0
 170 804 159 785 159 772 c 0
 159 763 163 759 170 759 c 1
 172 752 218 806 256 804 c 0
 280 804 304 786 304 758 c 0
 304 748 301 737 295 726 c 2
 284 707 l 1
 282 700 l 2
 282 693 287 692 292 691 c 0
431 711 m 5
 497 852 l 5
 502 866 l 6
 502 871 499 873 494 873 c 6
 447 868 l 6
 442 867 438 864 435 857 c 6
 424 828 l 5
 412 795 l 5
 386 723 l 5
 375 694 l 5
 373 686 l 6
 373 684 375 682 379 680 c 4
 400 680 417 683 424 698 c 6
 431 711 l 5
EndSplineSet
Fore
SplineSet
221 746 m 6
 240 715 253 697 260 691 c 4
 267 685 278 682 294 682 c 4
 305 682 310 684 310 689 c 6
 308 696 l 5
 289 732 l 5
 275 762 l 5
 266 779 l 5
 227 854 l 6
 219 869 216 870 183 874 c 6
 158 876 l 6
 151 876 147 875 147 868 c 4
 147 865 157 848 174 820 c 6
 221 746 l 6
457 100 m 1
 426 109 394 120 362 133 c 0
 331 146 307 156 290 165 c 1
 281 144 l 1
 288 140 l 2
 301 133 315 124 315 120 c 0
 315 107 301 86 273 57 c 0
 246 28 210 13 166 13 c 0
 150 13 140 14 128 17 c 1
 157 61 175 100 175 173 c 0
 175 189 172 226 169 245 c 2
 166 268 l 2
 166 274 167 279 170 284 c 2
 206 325 l 2
 231 350 266 380 307 380 c 0
 348 380 377 347 377 286 c 1
 374 245 l 1
 335 245 l 1
 334 223 l 1
 510 223 l 1
 510 245 l 1
 476 245 l 1
 476 376 435 432 344 432 c 0
 263 432 213 383 160 311 c 1
 156 336 l 2
 153 352 148 372 142 395 c 0
 138 416 136 439 136 465 c 0
 136 525 151 566 180 587 c 0
 210 609 239 620 268 620 c 0
 325 620 354 594 362 527 c 1
 323 519 l 1
 327 497 l 1
 354 502 378 506 406 506 c 0
 423 506 449 504 484 499 c 2
 500 496 l 1
 501 518 l 1
 470 524 l 1
 449 596 392 639 279 639 c 0
 184 639 119 612 84 559 c 0
 49 506 31 452 31 397 c 0
 31 361 35 331 44 307 c 0
 53 284 65 254 80 217 c 0
 112 145 121 102 121 78 c 0
 121 53 110 26 82 5 c 1
 113 -7 140 -15 193 -15 c 0
 269 -15 348 9 380 48 c 0
 413 88 414 89 419 89 c 0
 422 89 439 83 451 79 c 1
 457 100 l 1
EndSplineSet
Ligature2: "'ccmp' Canonical Composition and Precomposed Glyphs-1" afii10022 gravecomb
EndChar

StartChar: afii10023
Encoding: 1025 1025 168
Width: 536
Flags: HW
LayerCount: 2
Fore
SplineSet
246 714 m 5
 227 831 l 5
 132 831 l 5
 151 714 l 5
 246 714 l 5
397 714 m 5
 378 831 l 5
 283 831 l 5
 302 714 l 5
 397 714 l 5
457 100 m 1
 426 109 394 120 362 133 c 0
 331 146 307 156 290 165 c 1
 281 144 l 1
 288 140 l 2
 301 133 315 124 315 120 c 0
 315 107 301 86 273 57 c 0
 246 28 210 13 166 13 c 0
 150 13 140 14 128 17 c 1
 157 61 175 100 175 173 c 0
 175 189 172 226 169 245 c 2
 166 268 l 2
 166 274 167 279 170 284 c 2
 206 325 l 2
 231 350 266 380 307 380 c 0
 348 380 377 347 377 286 c 1
 374 245 l 1
 335 245 l 1
 334 223 l 1
 510 223 l 1
 510 245 l 1
 476 245 l 1
 476 376 435 432 344 432 c 0
 263 432 213 383 160 311 c 1
 156 336 l 2
 153 352 148 372 142 395 c 0
 138 416 136 439 136 465 c 0
 136 525 151 566 180 587 c 0
 210 609 239 620 268 620 c 0
 325 620 354 594 362 527 c 1
 323 519 l 1
 327 497 l 1
 354 502 378 506 406 506 c 0
 423 506 449 504 484 499 c 2
 500 496 l 1
 501 518 l 1
 470 524 l 1
 449 596 392 639 279 639 c 0
 184 639 119 612 84 559 c 0
 49 506 31 452 31 397 c 0
 31 361 35 331 44 307 c 0
 53 284 65 254 80 217 c 0
 112 145 121 102 121 78 c 0
 121 53 110 26 82 5 c 1
 113 -7 140 -15 193 -15 c 0
 269 -15 348 9 380 48 c 0
 413 88 414 89 419 89 c 0
 422 89 439 83 451 79 c 1
 457 100 l 1
EndSplineSet
Ligature2: "'ccmp' Canonical Composition and Precomposed Glyphs-1" afii10022 uni0308
EndChar

StartChar: afii10052
Encoding: 1027 1027 169
Width: 407
Flags: HW
LayerCount: 2
Fore
SplineSet
214 711 m 5
 280 852 l 5
 285 866 l 6
 285 871 282 873 277 873 c 6
 230 868 l 6
 225 867 221 864 218 857 c 6
 207 828 l 5
 195 795 l 5
 169 723 l 5
 158 694 l 5
 156 686 l 6
 156 684 158 682 162 680 c 4
 183 680 200 683 207 698 c 6
 214 711 l 5
270 607 m 1
 279 583 294 553 315 518 c 0
 336 483 350 466 356 466 c 0
 359 466 361 470 361 478 c 0
 361 483 362 497 365 520 c 0
 368 543 371 559 373 568 c 0
 377 587 384 605 397 628 c 1
 42 628 l 1
 42 607 l 1
 95 607 l 1
 95 21 l 1
 42 21 l 1
 42 0 l 1
 260 0 l 1
 260 21 l 1
 209 21 l 1
 209 607 l 1
 270 607 l 1
EndSplineSet
Ligature2: "'ccmp' Canonical Composition and Precomposed Glyphs-1" afii10020 acutecomb
EndChar

StartChar: afii10061
Encoding: 1036 1036 170
Width: 556
Flags: HW
LayerCount: 2
Fore
SplineSet
292 711 m 1
 358 852 l 1
 363 866 l 2
 363 871 360 873 355 873 c 2
 308 868 l 2
 303 867 299 864 296 857 c 2
 285 828 l 1
 273 795 l 1
 247 723 l 1
 236 694 l 1
 234 686 l 2
 234 684 236 682 240 680 c 0
 261 680 278 683 285 698 c 2
 292 711 l 1
198 21 m 1
 198 328 l 1
 267 328 313 313 336 283 c 0
 359 254 371 197 371 114 c 0
 371 87 370 47 367 34 c 0
 366 28 361 24 354 22 c 2
 306 21 l 1
 306 0 l 1
 534 0 l 1
 534 21 l 1
 508 21 l 2
 485 21 486 22 486 62 c 0
 486 174 476 244 456 272 c 0
 436 300 388 321 311 336 c 1
 311 345 l 1
 377 356 419 376 436 406 c 0
 454 436 463 498 463 592 c 0
 463 601 469 606 480 607 c 2
 520 607 l 1
 520 628 l 1
 303 628 l 1
 303 607 l 1
 329 607 l 2
 356 607 357 605 357 580 c 0
 357 488 352 432 323 397 c 0
 308 380 293 368 276 361 c 0
 260 354 234 351 198 351 c 1
 198 607 l 1
 248 607 l 1
 248 628 l 1
 34 628 l 1
 34 607 l 1
 84 607 l 1
 84 21 l 1
 34 21 l 1
 34 0 l 1
 248 0 l 1
 248 21 l 1
 198 21 l 1
EndSplineSet
Ligature2: "'ccmp' Canonical Composition and Precomposed Glyphs-1" afii10028 acutecomb
EndChar

StartChar: uni040D
Encoding: 1037 1037 171
Width: 556
Flags: HW
LayerCount: 2
Fore
SplineSet
221 746 m 2
 240 715 253 697 260 691 c 0
 267 685 278 682 294 682 c 0
 305 682 310 684 310 689 c 2
 308 696 l 1
 289 732 l 1
 275 762 l 1
 266 779 l 1
 227 854 l 2
 219 869 216 870 183 874 c 2
 158 876 l 2
 151 876 147 875 147 868 c 0
 147 865 157 848 174 820 c 2
 221 746 l 2
31 0 m 1
 255 0 l 1
 255 21 l 1
 200 21 l 1
 200 305 l 1
 355 391 l 1
 355 21 l 1
 300 21 l 1
 300 0 l 1
 525 0 l 1
 525 21 l 1
 469 21 l 1
 469 607 l 1
 525 607 l 1
 525 628 l 1
 300 628 l 1
 300 607 l 1
 355 607 l 1
 355 415 l 1
 200 329 l 1
 200 607 l 1
 255 607 l 1
 255 628 l 1
 31 628 l 1
 31 607 l 1
 86 607 l 1
 86 21 l 1
 31 21 l 1
 31 0 l 1
EndSplineSet
Ligature2: "'ccmp' Canonical Composition and Precomposed Glyphs-1" afii10026 gravecomb
EndChar

StartChar: afii10062
Encoding: 1038 1038 172
Width: 528
Flags: HW
LayerCount: 2
Fore
SplineSet
341 820 m 4
 341 793 324 765 287 765 c 4
 260 765 228 783 228 820 c 4
 232 857 246 861 243 863 c 4
 243 871 239 875 231 875 c 4
 223 875 214 865 203 846 c 4
 193 827 188 805 188 782 c 4
 188 729 233 693 280 693 c 4
 303 693 325 701 345 718 c 4
 366 735 376 758 376 788 c 4
 376 809 371 828 362 847 c 4
 353 866 345 876 338 876 c 4
 332 876 329 873 329 867 c 6
 333 851 l 6
 338 841 341 831 341 820 c 4
315 148 m 1
 315 179 317.01719092 236.125248135 324 287 c 0
 331 338 337 377 343 406 c 0
 356 463 387 498 434 498 c 0
 452 501 478 485 493 483 c 0
 499 486 502 488 502 491 c 2
 499 501 l 2
 490 518 485 543 485 559 c 0
 485 584 498 618 503 623 c 0
 506 628 508 633 508 636 c 0
 508 640 505 642 499 642 c 0
 450 642 410 625 367 566 c 0
 346 537 330 499 320 451 c 0
 311 403 302 335 294 248 c 1
 234 248 l 1
 232 282 l 1
 232 393 213 513 182 628 c 1
 50 628 l 1
 78 560 97 504 108 460 c 0
 119 417 125 338 125 224 c 1
 292 224 l 1
 288 148 l 1
 285 117 276 38 269 31 c 0
 262.48046875 24.48046875 246 21 218 21 c 1
 218 0 l 1
 381 0 l 1
 381 22 l 1
 333 22 315 93 315 148 c 1
EndSplineSet
Ligature2: "'ccmp' Canonical Composition and Precomposed Glyphs-1" afii10037 uni0306
EndChar

StartChar: afii10047
Encoding: 1069 1069 173
Width: 536
Flags: HW
LayerCount: 2
Fore
SplineSet
84 100 m 1
 115 109 147 120 179 133 c 0
 210 146 234 156 251 165 c 1
 260 144 l 1
 253 140 l 2
 240 133 226 124 226 120 c 0
 226 107 240 86 268 57 c 0
 295 28 331 13 375 13 c 0
 391 13 401 14 413 17 c 1
 384 61 366 100 366 173 c 0
 366 189 369 226 372 245 c 2
 375 268 l 2
 375 274 374 279 371 284 c 2
 335 325 l 2
 310 350 275 380 234 380 c 0
 193 380 164 347 164 286 c 1
 167 245 l 1
 206 245 l 1
 207 223 l 1
 31 223 l 1
 31 245 l 1
 65 245 l 1
 65 376 106 432 197 432 c 0
 278 432 328 383 381 311 c 1
 385 336 l 2
 388 352 393 372 399 395 c 0
 403 416 405 439 405 465 c 0
 405 525 390 566 361 587 c 0
 331 609 302 620 273 620 c 0
 216 620 187 594 179 527 c 1
 218 519 l 1
 214 497 l 1
 187 502 163 506 135 506 c 0
 118 506 92 504 57 499 c 2
 41 496 l 1
 40 518 l 1
 71 524 l 1
 92 596 149 639 262 639 c 0
 357 639 422 612 457 559 c 0
 492 506 510 452 510 397 c 0
 510 361 506 331 497 307 c 0
 488 284 476 254 461 217 c 0
 429 145 420 102 420 78 c 0
 420 53 431 26 459 5 c 1
 428 -7 401 -15 348 -15 c 0
 272 -15 193 9 161 48 c 0
 128 88 127 89 122 89 c 0
 119 89 102 83 90 79 c 1
 84 100 l 1
EndSplineSet
EndChar

StartChar: afii10049
Encoding: 1071 1071 174
Width: 751
Flags: HW
LayerCount: 2
Fore
SplineSet
46 0 m 1
 705 0 l 1
 705 751 l 1
 46 751 l 1
 46 0 l 1
659 46 m 1
 92 46 l 1
 92 705 l 1
 659 705 l 1
 659 46 l 1
EndSplineSet
EndChar

StartChar: afii10097
Encoding: 1103 1103 175
Width: 751
Flags: HW
LayerCount: 2
Fore
SplineSet
46 0 m 1
 705 0 l 1
 705 751 l 1
 46 751 l 1
 46 0 l 1
659 46 m 1
 92 46 l 1
 92 705 l 1
 659 705 l 1
 659 46 l 1
EndSplineSet
EndChar

StartChar: afii10095
Encoding: 1101 1101 176
Width: 556
Flags: HW
LayerCount: 2
Fore
SplineSet
155 -127 m 1
 162 -133 l 2
 206 -169 242 -191 269 -191 c 0
 292 -191 319 -174 349 -140 c 0
 379 -106 404 -48 425 35 c 1
 424 35 402 49 358 78 c 0
 313 107 283 122 268 122 c 0
 252 122 239 110 212 73 c 0
 185 37 179 29 163 29 c 2
 144 31 l 2
 121 34 98 33 59 33 c 0
 46 33 33 36 33 45 c 0
 33 50 47 66 55 73 c 0
 58 76 70 89 89 112 c 0
 147 187 168 221 192 216 c 0
 208 216 220 211 253 191 c 0
 285 171 337 132 389 95 c 2
 431 65 l 1
 438 102 442 132 442 163 c 0
 442 229 426 284 393 327 c 0
 360 370 324 392 287 392 c 0
 248 392 210 366 210 329 c 0
 210 317 204 313 192 316 c 2
 66 344 l 2
 55 346 50 350 50 355 c 0
 50 359 55 365 65 372 c 2
 80 386 l 2
 111 418 158 452 234 452 c 0
 258 452 285 447 314 437 c 0
 343 428 378 405 421 370 c 0
 506 299 540 215 540 120 c 0
 540 75 532 27 517 -22 c 0
 501 -72 483 -113 463 -144 c 0
 423 -208 388 -244 324 -244 c 0
 280 -244 218 -221 138 -150 c 1
 155 -127 l 1
EndSplineSet
EndChar

StartChar: afii10071
Encoding: 1105 1105 177
Width: 315
Flags: HW
LayerCount: 2
Fore
SplineSet
54 540 m 5
 143 540 l 5
 123 651 l 5
 36 651 l 5
 54 540 l 5
201 540 m 1
 287 540 l 1
 270 651 l 1
 181 651 l 1
 201 540 l 1
62 -1 m 1
 95 -3 l 2
 139 -3 174 10 199 35 c 0
 225 61 238 83 238 100 c 0
 238 109 234 114 227 114 c 0
 224 114 218 111 207 106 c 2
 199 102 l 1
 151 78 l 1
 151 172 l 1
 216 195 l 2
 251 208 255 213 255 237 c 2
 255 299 l 1
 150 259 l 1
 150 287 l 2
 150 350 171 380 224 385 c 0
 251 388 264 393 265 399 c 2
 265 462 l 1
 228 462 200 461 182 458 c 0
 165 455 144 449 121 438 c 0
 74 418 62 374 62 265 c 2
 62 -1 l 1
EndSplineSet
Ligature2: "'ccmp' Canonical Composition and Precomposed Glyphs-1" afii10070 uni0308
EndChar

StartChar: afii10100
Encoding: 1107 1107 178
Width: 389
Flags: HW
LayerCount: 2
Back
SplineSet
62 -1 m 5
 95 -3 l 6
 139 -3 174 10 199 35 c 4
 225 61 238 83 238 100 c 4
 238 109 234 114 227 114 c 4
 224 114 218 111 207 106 c 6
 199 102 l 5
 151 78 l 5
 151 172 l 5
 216 195 l 6
 251 208 255 213 255 237 c 6
 255 299 l 5
 150 259 l 5
 150 287 l 6
 150 350 171 380 224 385 c 4
 251 388 264 393 265 399 c 6
 265 462 l 5
 228 462 200 461 182 458 c 4
 165 455 144 449 121 438 c 4
 74 418 62 374 62 265 c 6
 62 -1 l 5
112 687 m 6
 131 656 144 638 151 632 c 4
 158 626 169 623 185 623 c 4
 196 623 201 625 201 630 c 6
 199 637 l 5
 180 673 l 5
 166 703 l 5
 157 720 l 5
 118 795 l 6
 110 810 107 811 74 815 c 6
 49 817 l 6
 42 817 38 816 38 809 c 4
 38 806 48 789 65 761 c 6
 112 687 l 6
EndSplineSet
Fore
SplineSet
214 655 m 5
 280 796 l 5
 285 810 l 6
 285 815 282 817 277 817 c 6
 230 812 l 6
 225 811 221 808 218 801 c 6
 207 772 l 5
 195 739 l 5
 169 667 l 5
 158 638 l 5
 156 630 l 6
 156 628 158 626 162 624 c 4
 183 624 200 627 207 642 c 6
 214 655 l 5
176 0 m 1
 163 79 157 155 157 229 c 0
 157 281 158 320 160 345 c 0
 162 370 165 398 169 427 c 1
 238 427 l 2
 244 427 248 425 251 422 c 0
 254 419 261 406 272 383 c 0
 293 336 309 308 325 308 c 0
 330 308 332 313 332 324 c 0
 332 348 342 388 357 417 c 2
 369 444 l 2
 369 449 364 451 353 451 c 2
 297 451 l 1
 62 451 l 1
 58 406 55 372 54 349 c 0
 53 326 52 289 52 239 c 0
 52 159 56 71 65 0 c 1
 176 0 l 1
EndSplineSet
Ligature2: "'ccmp' Canonical Composition and Precomposed Glyphs-1" afii10068 acutecomb
EndChar

StartChar: afii10109
Encoding: 1116 1116 179
Width: 537
Flags: HW
LayerCount: 2
Fore
SplineSet
295 655 m 5
 361 796 l 5
 366 810 l 6
 366 815 363 817 358 817 c 6
 311 812 l 6
 306 811 302 808 299 801 c 6
 288 772 l 5
 276 739 l 5
 250 667 l 5
 239 638 l 5
 237 630 l 6
 237 628 239 626 243 624 c 4
 264 624 281 627 288 642 c 6
 295 655 l 5
172 0 m 1
 170 113 l 2
 170 123 170 140 171 165 c 0
 172 190 172 210 172 225 c 2
 179 397 l 1
 181 451 l 1
 74 451 l 1
 70 268 l 2
 69 209 68 154 67 103 c 0
 66 52 66 18 66 0 c 1
 172 0 l 1
504 0 m 1
 483 100 451 166 409 197 c 0
 368 228 318 244 261 244 c 1
 252 247 l 1
 266 276 283 305 302 334 c 0
 321 363 345 377 372 377 c 0
 393 377 414 372 435 361 c 2
 452 354 l 2
 457 354 459 356 459 361 c 2
 457 371 l 2
 453 380 451 391 451 402 c 0
 445 431 488 464 489 476 c 0
 489 483 480 487 463 487 c 0
 387 487 347 446 306 389 c 0
 286 360 268 330 252 298 c 0
 237 267 229 243 229 227 c 0
 229 216 237 215 281 199 c 0
 303 192 326 177 349 154 c 0
 373 131 385 93 385 39 c 2
 383 9 l 2
 383 4 387 1 395 0 c 2
 504 0 l 1
EndSplineSet
Ligature2: "'ccmp' Canonical Composition and Precomposed Glyphs-1" afii10076 acutecomb
EndChar

StartChar: uni045D
Encoding: 1117 1117 180
Width: 500
Flags: HW
LayerCount: 2
Fore
SplineSet
194 687 m 6
 213 656 226 638 233 632 c 4
 240 626 251 623 267 623 c 4
 278 623 283 625 283 630 c 6
 281 637 l 5
 262 673 l 5
 248 703 l 5
 239 720 l 5
 200 795 l 6
 192 810 189 811 156 815 c 6
 131 817 l 6
 124 817 120 816 120 809 c 4
 120 806 130 789 147 761 c 6
 194 687 l 6
173 0 m 1
 171 67 l 2
 171 81 171 110 172 153 c 0
 173 196 173 225 173 239 c 1
 321 307 l 1
 317 169 l 2
 317 153 318 126 321 88 c 0
 324 50 325 21 325 0 c 1
 433 0 l 1
 428 38 425 66 424 84 c 0
 423 102 423 143 423 208 c 0
 423 249 424 292 425 337 c 0
 426 383 429 421 432 451 c 1
 329 451 l 1
 329 432 328 408 325 381 c 0
 323 354 322 338 322 332 c 1
 173 264 l 1
 173 301 174 330 176 349 c 0
 178 368 182 402 188 451 c 1
 89 451 l 1
 73 378 69 315 69 235 c 2
 68 0 l 1
 173 0 l 1
EndSplineSet
EndChar

StartChar: afii10110
Encoding: 1118 1118 181
Width: 500
Flags: HW
LayerCount: 2
Fore
SplineSet
235 541 m 4
 255 541 276 551 297 571 c 4
 319 592 330 623 330 665 c 4
 330 682 326 715 313 715 c 4
 305 715 301 706 301 688 c 4
 301 636 268 609 239 609 c 4
 219 609 201 621 201 648 c 4
 201 657 203 666 207 675 c 6
 217 697 l 5
 220 707 l 6
 220 714 215 716 210 717 c 4
 200 717 187 705 172 682 c 4
 157 659 150 636 150 613 c 4
 150 572 174 541 235 541 c 4
219 -1 m 1
 215 -41 l 2
 215 -70 212 -102 207 -139 c 0
 202 -176 196 -202 190 -218 c 2
 185 -240 l 2
 185 -247 189 -250 196 -250 c 0
 215 -250 230 -221 239 -163 c 0
 249 -106 260 -26 273 77 c 0
 286 180 305 249 329 285 c 0
 353 321 396 339 457 339 c 1
 450 364 446 379 446 392 c 0
 446 416 460 437 467 441 c 0
 470 444 473 447 476 452 c 0
 476 459 470 460 454 460 c 0
 383 460 332 429 300 367 c 0
 268 305 246 223 233 122 c 2
 222 39 l 2
 222 24 217 17 208 17 c 0
 197 17 193 28 190 44 c 2
 167 186 l 2
 152 286 135 362 111 450 c 1
 34 451 l 2
 10 451 0 451 0 439 c 0
 1 434 0 436 13 399 c 0
 20 380 29 340 42 278 c 0
 55 216 72 123 91 -1 c 1
 219 -1 l 1
EndSplineSet
Ligature2: "'ccmp' Canonical Composition and Precomposed Glyphs-1" afii10085 uni0306
EndChar

StartChar: uni0485
Encoding: 1157 1157 182
Width: 2
Flags: HW
AnchorPoint: "Above" -199 566 mark 0
LayerCount: 2
Fore
SplineSet
-226 782 m 0
 -199 782 -173 770 -148 746 c 0
 -123 722 -110 700 -110 681 c 0
 -110 673 -114 669 -122 669 c 0
 -136 669 -159 719 -204 715 c 0
 -228 715 -256 697 -256 665 c 0
 -256 641 -243 613 -235 601 c 0
 -227 589 -225 584 -225 580 c 0
 -225 573 -228 570 -235 570 c 0
 -248 570 -264 584 -283 613 c 0
 -302 642 -312 672 -312 703 c 0
 -312 748 -275 782 -226 782 c 0
EndSplineSet
EndChar

StartChar: uni0487
Encoding: 1159 1159 183
Width: 1
Flags: HW
AnchorPoint: "Above" -287 590 mark 0
LayerCount: 2
Fore
SplineSet
-113 645 m 2
 -90 624 -54 606 -25 606 c 0
 -4 606 24 613 60 628 c 0
 96 643 114 655 114 664 c 0
 114 671 108 673 95 671 c 2
 34 667 l 2
 23 667 12 669 -1 673 c 0
 -13 678 -36 690 -70 710 c 0
 -138 751 -190 772 -231 772 c 0
 -284 772 -360 761 -439 741 c 0
 -478 731 -501 723 -508 717 c 0
 -515 711 -524 694 -537 666 c 0
 -549 638 -557 620 -562 613 c 0
 -567 606 -572 601 -579 597 c 0
 -586 594 -589 590 -589 587 c 0
 -589 575 -575 576 -568 576 c 2
 -504 575 l 2
 -480 575 -475 582 -467 599 c 0
 -462 608 -454 627 -441 654 c 0
 -428 681 -405 702 -372 716 c 0
 -339 730 -309 737 -283 737 c 0
 -252 737 -213 724 -178 697 c 2
 -113 645 l 2
EndSplineSet
EndChar

StartChar: uniA64C
Encoding: 42572 42572 184
Width: 1041
Flags: HW
LayerCount: 2
Fore
SplineSet
486 99 m 0
 492 99 500 96 510 90 c 0
 521 85 542 71 573 50 c 0
 636 7 689 -10 734 -10 c 0
 801 -10 865 24 927 91 c 0
 990 158 1021 238 1021 331 c 0
 1021 392 1009 442 984 481 c 0
 960 520 934 551 907 574 c 0
 852 619 807 645 776 645 c 0
 752 645 733 626 673 565 c 0
 643 535 624 516 617 507 c 0
 610 498 606 493 606 490 c 0
 606 482 624 473 644 462 c 0
 664 453 675 446 683 446 c 0
 691 446 693 444 721 476 c 0
 750 509 778 533 806 533 c 0
 835 533 866 508 900 459 c 0
 934 410 951 349 951 276 c 0
 951 209 933 154 897 111 c 0
 861 68 825 46 790 46 c 0
 776 46 761 50 746 58 c 0
 731 66 705 82 666 106 c 0
 590 154 562 171 554 171 c 0
 550 171 542 169 538 166 c 2
 454 121 l 2
 409 94 341 62 282 62 c 0
 229 62 186 89 151 142 c 0
 117 196 100 251 100 306 c 0
 100 359 116 408 147 454 c 0
 179 500 211 523 242 523 c 0
 273 523 315 502 335 486 c 0
 356 470 365 464 374 464 c 0
 379 464 394 470 417 481 c 0
 441 493 453 502 453 507 c 0
 453 518 426 540 373 574 c 0
 320 609 284 626 264 626 c 0
 228 626 178 592 115 524 c 0
 52 456 20 376 20 285 c 0
 20 207 40 139 81 80 c 0
 122 22 170 -7 227 -7 c 0
 255 -7 292 5 315 14 c 0
 327 19 345 27 370 39 c 0
 444 77 472 99 486 99 c 0
EndSplineSet
EndChar

StartChar: uniA64D
Encoding: 42573 42573 185
Width: 1000
Flags: HW
LayerCount: 2
Fore
SplineSet
494 150 m 1
 411 102 l 2
 360 73 304 49 260 49 c 0
 212 49 174 69 146 110 c 0
 119 151 105 197 105 250 c 0
 105 326 146 375 205 375 c 1
 252 380 306 326 327 319 c 1
 335 319 l 2
 343 319 358 324 379 335 c 0
 400 346 411 354 411 361 c 0
 411 372 384 395 331 428 c 0
 278 461 241 478 220 478 c 0
 195 478 156 453 101 404 c 0
 47 355 20 293 20 218 c 0
 20 165 36 113 67 63 c 0
 98 13 146 -12 209 -12 c 0
 277 -12 336 27 399 64 c 0
 430 83 449 93 456 96 c 0
 463 99 469 101 474 101 c 0
 481 101 505 88 546 63 c 0
 587 38 624 20 655 7 c 0
 686 -5 718 -11 751 -11 c 0
 813 -11 867 14 914 65 c 0
 961 116 984 179 984 254 c 0
 984 329 966 382 929 412 c 0
 893 442 863 464 839 478 c 0
 815 492 795 499 779 499 c 0
 756 499 729 482 696 447 c 0
 663 413 633 379 605 344 c 0
 605 339 617 331 641 320 c 0
 666 309 683 304 692 304 c 0
 711 304 765 388 806 388 c 0
 832 388 857 368 882 328 c 0
 907 289 919 244 919 195 c 0
 919 146 907 108 882 82 c 0
 858 56 831 43 802 43 c 0
 770 43 727 61 673 96 c 0
 620 132 586 154 572 163 c 0
 558 172 549 176 545 176 c 0
 540 176 531 172 519 165 c 2
 501 155 l 1
 494 150 l 1
EndSplineSet
EndChar

StartChar: uniA673
Encoding: 42611 42611 186
Width: 387
Flags: HW
DStem2: 233 620 223 600 0.900159 0.435561<0 58.3361> 68 539 21 539 0.942627 -0.333847<0 57.5395> 105 631 71 665 0.431455 -0.902134<0 56.6383> 73 412 105 445 0.427668 0.903936<43.5153 102.883> 71 665 105 631 0.900159 -0.435561<45.4145 103.315> 105 445 73 412 0.896389 0.443269<0 58.2062> 164 620 173 599 0.333847 0.942627<0 57.5395> 173 478 164 457 0.333847 -0.942627<16.7905 74.3301> 198 716 198 669 0.342529 -0.939507<44.1568 102.181> 280 573 258 564 0.942627 -0.333847<0 57.5395> 258 564 280 573 0.447214 0.894427<17.8885 76.0263> 223 478 233 457 0.900159 -0.435561<18.1484 76.4845> 280 505 258 513 0.443354 -0.896347<0 59.101> 258 513 280 505 0.942627 0.333847<18.067 75.6066>
LayerCount: 2
Fore
SplineSet
280 505 m 1
 326 412 l 1
 233 457 l 1
 198 361 l 1
 164 457 l 1
 73 412 l 1
 117 505 l 1
 21 539 l 1
 115 573 l 1
 71 665 l 1
 164 620 l 1
 198 716 l 1
 233 620 l 1
 326 665 l 1
 280 573 l 1
 376 539 l 1
 280 505 l 1
258 564 m 1
 292 632 l 1
 223 600 l 1
 198 669 l 1
 173 599 l 1
 105 631 l 1
 137 564 l 1
 68 539 l 1
 138 513 l 1
 105 445 l 1
 173 478 l 1
 198 408 l 1
 223 478 l 1
 292 445 l 1
 258 513 l 1
 329 539 l 1
 258 564 l 1
EndSplineSet
EndChar

StartChar: uniA67D
Encoding: 42621 42621 187
Width: 0
Flags: W
HStem: 600 226
VStem: -221 69<772.564 823.938>
LayerCount: 2
Fore
SplineSet
-144 600 m 0
 -159 600 -172 597 -179 597 c 0
 -184 597 -183 603 -181 608 c 0
 -172 641 -160 694 -140 734 c 1
 -172 739 -191 751 -205 767 c 0
 -216 779 -221 796 -221 802 c 0
 -221 815 -220 828 -212 826 c 0
 -202 825 -189 824 -176 824 c 0
 -169 824 -163 824 -157 825 c 0
 -151 825 -152 818 -152 812 c 0
 -152 798 -149 784 -136 772 c 0
 -133 770 -130 769 -128 769 c 0
 -125 769 -123 778 -121 782 c 0
 -111 802 -105 811 -98 818 c 0
 -93 822 -89 823 -83 823 c 0
 -80 823 -77 823 -73 823 c 0
 -59 823 -34 829 -28 829 c 0
 -27 829 l 0
 -23 829 -21 827 -21 824 c 0
 -21 822 -22 820 -23 817 c 2
 -23 817 -36 805 -42 796 c 0
 -49 784 -63 757 -84 694 c 0
 -95 662 -102 626 -105 607 c 0
 -106 603 -106 597 -111 597 c 0
 -116 597 -134 600 -144 600 c 0
EndSplineSet
EndChar

StartChar: uniA67F
Encoding: 42623 42623 188
Width: 250
Flags: HW
HStem: 600 226
VStem: 25 69<772.564 823.938>
LayerCount: 2
Fore
SplineSet
102 600 m 0
 87 600 74 597 67 597 c 0
 62 597 63 603 65 608 c 0
 74 641 86 694 106 734 c 1
 74 739 55 751 41 767 c 0
 30 779 25 796 25 802 c 0
 25 815 26 828 34 826 c 0
 44 825 57 824 70 824 c 0
 77 824 83 824 89 825 c 0
 95 825 94 818 94 812 c 0
 94 798 97 784 110 772 c 0
 113 770 116 769 118 769 c 0
 121 769 123 778 125 782 c 0
 135 802 141 811 148 818 c 0
 153 822 157 823 163 823 c 0
 166 823 169 823 173 823 c 0
 187 823 212 829 218 829 c 0
 219 829 l 0
 223 829 225 827 225 824 c 0
 225 822 224 820 223 817 c 2
 223 817 210 805 204 796 c 0
 197 784 183 757 162 694 c 0
 151 662 144 626 141 607 c 0
 140 603 140 597 135 597 c 0
 130 597 112 600 102 600 c 0
EndSplineSet
EndChar

StartChar: uniA67E
Encoding: 42622 42622 189
Width: 370
Flags: HW
LayerCount: 2
Fore
SplineSet
279 765 m 1
 279 684 237 654 185 654 c 0
 136 654 91 685 91 765 c 1
 31 765 l 1
 31 657 82 590 185 590 c 0
 238 590 289 613 310 653 c 0
 333 694 339 717 339 765 c 1
 279 765 l 1
EndSplineSet
EndChar

StartChar: uni0001
Encoding: 1 1 190
Width: 751
Flags: HW
LayerCount: 2
Fore
SplineSet
46 0 m 1
 705 0 l 1
 705 751 l 1
 46 751 l 1
 46 0 l 1
659 46 m 1
 92 46 l 1
 92 705 l 1
 659 705 l 1
 659 46 l 1
EndSplineSet
EndChar

StartChar: uni0002
Encoding: 2 2 191
Width: 751
Flags: HW
LayerCount: 2
Fore
SplineSet
46 0 m 1
 705 0 l 1
 705 751 l 1
 46 751 l 1
 46 0 l 1
659 46 m 1
 92 46 l 1
 92 705 l 1
 659 705 l 1
 659 46 l 1
EndSplineSet
EndChar

StartChar: uni0003
Encoding: 3 3 192
Width: 751
Flags: HW
LayerCount: 2
Fore
SplineSet
46 0 m 1
 705 0 l 1
 705 751 l 1
 46 751 l 1
 46 0 l 1
659 46 m 1
 92 46 l 1
 92 705 l 1
 659 705 l 1
 659 46 l 1
EndSplineSet
EndChar

StartChar: uni0004
Encoding: 4 4 193
Width: 751
Flags: HW
LayerCount: 2
Fore
SplineSet
46 0 m 1
 705 0 l 1
 705 751 l 1
 46 751 l 1
 46 0 l 1
659 46 m 1
 92 46 l 1
 92 705 l 1
 659 705 l 1
 659 46 l 1
EndSplineSet
EndChar

StartChar: uni0005
Encoding: 5 5 194
Width: 751
Flags: HW
LayerCount: 2
Fore
SplineSet
46 0 m 1
 705 0 l 1
 705 751 l 1
 46 751 l 1
 46 0 l 1
659 46 m 1
 92 46 l 1
 92 705 l 1
 659 705 l 1
 659 46 l 1
EndSplineSet
EndChar

StartChar: uni0006
Encoding: 6 6 195
Width: 751
Flags: HW
LayerCount: 2
Fore
SplineSet
46 0 m 1
 705 0 l 1
 705 751 l 1
 46 751 l 1
 46 0 l 1
659 46 m 1
 92 46 l 1
 92 705 l 1
 659 705 l 1
 659 46 l 1
EndSplineSet
EndChar

StartChar: uni0007
Encoding: 7 7 196
Width: 751
Flags: HW
LayerCount: 2
Fore
SplineSet
46 0 m 1
 705 0 l 1
 705 751 l 1
 46 751 l 1
 46 0 l 1
659 46 m 1
 92 46 l 1
 92 705 l 1
 659 705 l 1
 659 46 l 1
EndSplineSet
EndChar

StartChar: uni000B
Encoding: 11 11 200
Width: 751
Flags: HW
LayerCount: 2
Fore
SplineSet
46 0 m 1
 705 0 l 1
 705 751 l 1
 46 751 l 1
 46 0 l 1
659 46 m 1
 92 46 l 1
 92 705 l 1
 659 705 l 1
 659 46 l 1
EndSplineSet
EndChar

StartChar: uni000C
Encoding: 12 12 201
Width: 751
Flags: HW
LayerCount: 2
Fore
SplineSet
46 0 m 1
 705 0 l 1
 705 751 l 1
 46 751 l 1
 46 0 l 1
659 46 m 1
 92 46 l 1
 92 705 l 1
 659 705 l 1
 659 46 l 1
EndSplineSet
EndChar

StartChar: uni000E
Encoding: 14 14 203
Width: 751
Flags: HW
LayerCount: 2
Fore
SplineSet
46 0 m 1
 705 0 l 1
 705 751 l 1
 46 751 l 1
 46 0 l 1
659 46 m 1
 92 46 l 1
 92 705 l 1
 659 705 l 1
 659 46 l 1
EndSplineSet
EndChar

StartChar: uni000F
Encoding: 15 15 204
Width: 751
Flags: HW
LayerCount: 2
Fore
SplineSet
46 0 m 1
 705 0 l 1
 705 751 l 1
 46 751 l 1
 46 0 l 1
659 46 m 1
 92 46 l 1
 92 705 l 1
 659 705 l 1
 659 46 l 1
EndSplineSet
EndChar

StartChar: uni0010
Encoding: 16 16 205
Width: 751
Flags: HW
LayerCount: 2
Fore
SplineSet
46 0 m 1
 705 0 l 1
 705 751 l 1
 46 751 l 1
 46 0 l 1
659 46 m 1
 92 46 l 1
 92 705 l 1
 659 705 l 1
 659 46 l 1
EndSplineSet
EndChar

StartChar: uni0011
Encoding: 17 17 206
Width: 751
Flags: HW
LayerCount: 2
Fore
SplineSet
46 0 m 1
 705 0 l 1
 705 751 l 1
 46 751 l 1
 46 0 l 1
659 46 m 1
 92 46 l 1
 92 705 l 1
 659 705 l 1
 659 46 l 1
EndSplineSet
EndChar

StartChar: uni0012
Encoding: 18 18 207
Width: 751
Flags: HW
LayerCount: 2
Fore
SplineSet
46 0 m 1
 705 0 l 1
 705 751 l 1
 46 751 l 1
 46 0 l 1
659 46 m 1
 92 46 l 1
 92 705 l 1
 659 705 l 1
 659 46 l 1
EndSplineSet
EndChar

StartChar: uni0013
Encoding: 19 19 208
Width: 751
Flags: HW
LayerCount: 2
Fore
SplineSet
46 0 m 1
 705 0 l 1
 705 751 l 1
 46 751 l 1
 46 0 l 1
659 46 m 1
 92 46 l 1
 92 705 l 1
 659 705 l 1
 659 46 l 1
EndSplineSet
EndChar

StartChar: uni0014
Encoding: 20 20 209
Width: 751
Flags: HW
LayerCount: 2
Fore
SplineSet
46 0 m 1
 705 0 l 1
 705 751 l 1
 46 751 l 1
 46 0 l 1
659 46 m 1
 92 46 l 1
 92 705 l 1
 659 705 l 1
 659 46 l 1
EndSplineSet
EndChar

StartChar: uni0015
Encoding: 21 21 210
Width: 751
Flags: HW
LayerCount: 2
Fore
SplineSet
46 0 m 1
 705 0 l 1
 705 751 l 1
 46 751 l 1
 46 0 l 1
659 46 m 1
 92 46 l 1
 92 705 l 1
 659 705 l 1
 659 46 l 1
EndSplineSet
EndChar

StartChar: uni0016
Encoding: 22 22 211
Width: 751
Flags: HW
LayerCount: 2
Fore
SplineSet
46 0 m 1
 705 0 l 1
 705 751 l 1
 46 751 l 1
 46 0 l 1
659 46 m 1
 92 46 l 1
 92 705 l 1
 659 705 l 1
 659 46 l 1
EndSplineSet
EndChar

StartChar: uni0017
Encoding: 23 23 212
Width: 751
Flags: HW
LayerCount: 2
Fore
SplineSet
46 0 m 1
 705 0 l 1
 705 751 l 1
 46 751 l 1
 46 0 l 1
659 46 m 1
 92 46 l 1
 92 705 l 1
 659 705 l 1
 659 46 l 1
EndSplineSet
EndChar

StartChar: uni0018
Encoding: 24 24 213
Width: 751
Flags: HW
LayerCount: 2
Fore
SplineSet
46 0 m 1
 705 0 l 1
 705 751 l 1
 46 751 l 1
 46 0 l 1
659 46 m 1
 92 46 l 1
 92 705 l 1
 659 705 l 1
 659 46 l 1
EndSplineSet
EndChar

StartChar: uni0019
Encoding: 25 25 214
Width: 751
Flags: HW
LayerCount: 2
Fore
SplineSet
46 0 m 1
 705 0 l 1
 705 751 l 1
 46 751 l 1
 46 0 l 1
659 46 m 1
 92 46 l 1
 92 705 l 1
 659 705 l 1
 659 46 l 1
EndSplineSet
EndChar

StartChar: uni001A
Encoding: 26 26 215
Width: 751
Flags: HW
LayerCount: 2
Fore
SplineSet
46 0 m 1
 705 0 l 1
 705 751 l 1
 46 751 l 1
 46 0 l 1
659 46 m 1
 92 46 l 1
 92 705 l 1
 659 705 l 1
 659 46 l 1
EndSplineSet
EndChar

StartChar: uni001B
Encoding: 27 27 216
Width: 751
Flags: HW
LayerCount: 2
Fore
SplineSet
46 0 m 1
 705 0 l 1
 705 751 l 1
 46 751 l 1
 46 0 l 1
659 46 m 1
 92 46 l 1
 92 705 l 1
 659 705 l 1
 659 46 l 1
EndSplineSet
EndChar

StartChar: uni001C
Encoding: 28 28 217
Width: 751
Flags: HW
LayerCount: 2
Fore
SplineSet
46 0 m 1
 705 0 l 1
 705 751 l 1
 46 751 l 1
 46 0 l 1
659 46 m 1
 92 46 l 1
 92 705 l 1
 659 705 l 1
 659 46 l 1
EndSplineSet
EndChar

StartChar: uni001E
Encoding: 30 30 219
Width: 751
Flags: HW
LayerCount: 2
Fore
SplineSet
46 0 m 1
 705 0 l 1
 705 751 l 1
 46 751 l 1
 46 0 l 1
659 46 m 1
 92 46 l 1
 92 705 l 1
 659 705 l 1
 659 46 l 1
EndSplineSet
EndChar

StartChar: uni001F
Encoding: 31 31 220
Width: 751
Flags: HW
LayerCount: 2
Fore
SplineSet
46 0 m 1
 705 0 l 1
 705 751 l 1
 46 751 l 1
 46 0 l 1
659 46 m 1
 92 46 l 1
 92 705 l 1
 659 705 l 1
 659 46 l 1
EndSplineSet
EndChar

StartChar: uni1C82
Encoding: 7298 7298 221
Width: 759
Flags: HW
LayerCount: 2
Fore
SplineSet
44 237 m 4
 44 172 55 115 76 64 c 4
 98 13 123 -12 152 -12 c 4
 181 -12 203 12 219 59 c 4
 235 107 243 157 243 209 c 4
 243 276 230 334 205 382 c 4
 180 430 155 454 131 454 c 4
 110 454 91 433 72 390 c 4
 53 348 44 297 44 237 c 4
86 224 m 4
 86 284 108 327 141 327 c 4
 169 327 199 296 199 216 c 4
 199 152 179 110 147 110 c 4
 115 110 86 152 86 224 c 4
EndSplineSet
EndChar

StartChar: uni2DEE
Encoding: 11758 11758 222
Width: 0
Flags: HW
AnchorPoint: "Above" -213 687 mark 0
LayerCount: 2
Fore
SplineSet
-67 793 m 1
 -51 724 -36 690 -22 690 c 0
 -17 690 -15 692 -2 716 c 0
 11 740 37 770 62 798 c 1
 66 805 l 2
 66 813 62 814 19 814 c 2
 -454 814 l 2
 -470 814 -492 815 -492 806 c 0
 -492 795 -468 782 -448 755 c 0
 -441 746 -434 735 -426 722 c 0
 -417 709 -412 700 -409 697 c 0
 -406 694 -403 692 -399 692 c 0
 -386 692 -371 732 -362 793 c 1
 -264 793 l 1
 -264 690 l 1
 -171 690 l 1
 -171 793 l 1
 -67 793 l 1
EndSplineSet
EndChar

StartChar: uniE005
Encoding: 57349 57349 223
Width: 0
GlyphClass: 4
Flags: HW
AnchorPoint: "Above" -227 488 mark 0
LayerCount: 2
Fore
SplineSet
-73 709 m 2
 -50 688 -14 670 15 670 c 0
 36 670 64 677 100 692 c 0
 136 707 154 719 154 728 c 0
 154 735 148 737 135 735 c 2
 74 731 l 2
 63 731 52 733 39 737 c 0
 27 742 4 754 -30 774 c 0
 -98 815 -150 836 -191 836 c 0
 -244 836 -320 825 -399 805 c 0
 -438 795 -461 787 -468 781 c 0
 -475 775 -484 758 -497 730 c 0
 -509 702 -517 684 -522 677 c 0
 -527 670 -532 665 -539 661 c 0
 -546 658 -549 654 -549 651 c 0
 -549 639 -535 640 -528 640 c 2
 -464 639 l 2
 -440 639 -435 646 -427 663 c 0
 -422 672 -414 691 -401 718 c 0
 -388 745 -365 766 -332 780 c 0
 -299 794 -269 801 -243 801 c 0
 -212 801 -173 788 -138 761 c 2
 -73 709 l 2
-223 699 m 0
 -254 699 -281 685 -304 658 c 0
 -327 631 -339 612 -339 599 c 0
 -339 592 -336 589 -330 589 c 0
 -325 589 -320 591 -300 610 c 0
 -280 629 -267 633 -247 633 c 0
 -214 633 -193 610 -193 577 c 0
 -191 554 -220 508 -222 497 c 0
 -219 492 -217 489 -214 489 c 0
 -202 489 -186 504 -167 534 c 0
 -148 564 -138 593 -138 621 c 0
 -138 669 -174 699 -223 699 c 0
EndSplineSet
LCarets2: 1 0
Ligature2: "'ccmp' Canonical Composition and Precomposed Glyphs-1" uni0486 uni0311
EndChar

StartChar: uni0306
Encoding: 774 774 224
Width: 0
Flags: HW
AnchorPoint: "Above" -219 692 mark 0
LayerCount: 2
Fore
SplineSet
-159 820 m 0
 -159 793 -176 765 -213 765 c 0
 -240 765 -272 783 -272 820 c 0
 -268 857 -254 861 -257 863 c 0
 -257 871 -261 875 -269 875 c 0
 -277 875 -286 865 -297 846 c 0
 -307 827 -312 805 -312 782 c 0
 -312 729 -267 693 -220 693 c 0
 -197 693 -175 701 -155 718 c 0
 -134 735 -124 758 -124 788 c 0
 -124 809 -129 828 -138 847 c 0
 -147 866 -155 876 -162 876 c 0
 -168 876 -171 873 -171 867 c 2
 -167 851 l 2
 -162 841 -159 831 -159 820 c 0
EndSplineSet
EndChar

StartChar: uni0307
Encoding: 775 775 225
Width: 1
Flags: HW
AnchorPoint: "Above" -175 712 mark 0
LayerCount: 2
Fore
SplineSet
-126 714 m 1
 -145 831 l 1
 -240 831 l 1
 -221 714 l 1
 -126 714 l 1
EndSplineSet
EndChar

StartChar: uni0308
Encoding: 776 776 226
Width: 1
Flags: HW
AnchorPoint: "Above" -251 712 mark 0
LayerCount: 2
Fore
SplineSet
-277 714 m 1
 -296 831 l 1
 -391 831 l 1
 -372 714 l 1
 -277 714 l 1
-126 714 m 1
 -145 831 l 1
 -240 831 l 1
 -221 714 l 1
 -126 714 l 1
EndSplineSet
EndChar

StartChar: uni030F
Encoding: 783 783 227
Width: 1
Flags: HW
AnchorPoint: "Above" -167 672 mark 0
LayerCount: 2
Fore
SplineSet
-350 926 m 2
 -356 926 -359 923 -359 917 c 0
 -359 913 -354 899 -345 876 c 0
 -335 853 -327 836 -322 825 c 2
 -295 763 l 1
 -276 718 l 1
 -264 690 l 2
 -261 683 -258 679 -255 678 c 2
 -223 673 l 2
 -214 673 -210 675 -210 679 c 0
 -210 683 -220 710 -221 714 c 2
 -252 801 l 1
 -294 909 l 2
 -297 915 -302 918 -310 919 c 2
 -331 923 l 1
 -350 926 l 2
-138 718 m 1
 -125 690 l 2
 -123 683 -120 679 -117 678 c 2
 -85 673 l 2
 -76 673 -72 675 -72 679 c 0
 -72 686 -78 706 -82 714 c 2
 -114 801 l 2
 -151 893 -150 915 -171 919 c 2
 -193 923 l 1
 -212 926 l 2
 -218 926 -221 923 -221 917 c 0
 -221 913 -216 899 -207 876 c 0
 -197 853 -189 836 -184 825 c 2
 -157 763 l 1
 -138 718 l 1
EndSplineSet
EndChar

StartChar: uni2DE10487
Encoding: 62689 62689 228
Width: 0
GlyphClass: 4
Flags: HW
AnchorPoint: "Above" -118 506 mark 0
LayerCount: 2
Fore
SplineSet
-126 821 m 0
 -159 817 -199 809 -226 794 c 0
 -253 781 -265 755 -265 735 c 0
 -265 726 -262 721 -257 720 c 2
 -239 720 l 2
 -236 720 -228 720 -216 721 c 0
 -205 722 -198 723 -197 725 c 0
 -196 728 -195 732 -195 738 c 2
 -195 750 l 2
 -195 779 -186 793 -169 793 c 0
 -156 793 -129 775 -97 746 c 0
 -66 717 -52 709 -32 709 c 0
 -13 711 5 713 23 716 c 0
 41 719 50 724 50 731 c 0
 50 733 48 735 43 737 c 2
 21 741 l 2
 12 742 4 745 -3 750 c 0
 -10 755 -25 766 -48 783 c 0
 -71 801 -87 811 -95 814 c 0
 -103 817 -113 819 -126 821 c 0
-29 681 m 1
 -197 681 l 1
 -197 674 -198 661 -199 643 c 0
 -200 625 -201 610 -201 598 c 0
 -201 592 -200 578 -199 555 c 0
 -198 533 -197 518 -197 509 c 1
 -31 509 l 1
 -32 517 -33 527 -35 539 c 2
 -35 592 l 2
 -35 617 -33 647 -29 681 c 1
-148 530 m 1
 -150 598 l 1
 -147 660 l 1
 -83 660 l 1
 -86 639 -87 618 -87 598 c 0
 -87 574 -86 553 -83 530 c 1
 -148 530 l 1
EndSplineSet
LCarets2: 1 0
Ligature2: "'ccmp' Second Round of Precomposed Glyphs-1" uni2DE1 uni0487
EndChar

StartChar: uni2DE20487
Encoding: 62690 62690 229
Width: 0
GlyphClass: 4
Flags: HW
AnchorPoint: "Above" -219 508 mark 0
LayerCount: 2
Fore
SplineSet
-250 509 m 1
 -251 538 -254 564 -254 592 c 0
 -254 628 -251 641 -250 661 c 1
 -215 661 l 2
 -206 661 -192 662 -187 653 c 0
 -176 640 -157 615 -152 615 c 0
 -148 616 -144 619 -139 638 c 0
 -135 658 -121 666 -121 674 c 0
 -121 677 -125 679 -133 681 c 2
 -301 681 l 1
 -301 674 -302 661 -303 643 c 0
 -304 625 -305 610 -305 598 c 0
 -305 592 -304 578 -303 555 c 0
 -302 533 -301 518 -301 509 c 1
 -250 509 l 1
-230 821 m 0
 -263 817 -303 809 -330 794 c 0
 -357 781 -369 755 -369 735 c 0
 -369 726 -366 721 -361 720 c 2
 -343 720 l 2
 -340 720 -332 720 -320 721 c 0
 -309 722 -302 723 -301 725 c 0
 -300 728 -299 732 -299 738 c 2
 -299 750 l 2
 -299 779 -290 793 -273 793 c 0
 -260 793 -233 775 -201 746 c 0
 -170 717 -156 709 -136 709 c 0
 -117 711 -99 713 -81 716 c 0
 -63 719 -54 724 -54 731 c 0
 -54 733 -56 735 -61 737 c 2
 -83 741 l 2
 -92 742 -100 745 -107 750 c 0
 -114 755 -129 766 -152 783 c 0
 -175 801 -191 811 -199 814 c 0
 -207 817 -217 819 -230 821 c 0
EndSplineSet
LCarets2: 1 0
Ligature2: "'ccmp' Second Round of Precomposed Glyphs-1" uni2DE2 uni0487
EndChar

StartChar: uni2DE90487
Encoding: 62697 62697 230
Width: 0
GlyphClass: 4
Flags: HW
AnchorPoint: "Above" -271 506 mark 0
LayerCount: 2
Fore
SplineSet
-281 821 m 0
 -314 817 -354 809 -381 794 c 0
 -408 781 -420 755 -420 735 c 0
 -420 726 -417 721 -412 720 c 2
 -394 720 l 2
 -391 720 -383 720 -371 721 c 0
 -360 722 -353 723 -352 725 c 0
 -351 728 -350 732 -350 738 c 2
 -350 750 l 2
 -350 779 -341 793 -324 793 c 0
 -311 793 -284 775 -252 746 c 0
 -221 717 -207 709 -187 709 c 0
 -168 711 -150 713 -132 716 c 0
 -114 719 -105 724 -105 731 c 0
 -105 733 -107 735 -112 737 c 2
 -134 741 l 2
 -143 742 -151 745 -158 750 c 0
 -165 755 -180 766 -203 783 c 0
 -226 801 -242 811 -250 814 c 0
 -258 817 -268 819 -281 821 c 0
-186 509 m 1
 -187 517 -188 527 -190 539 c 2
 -190 592 l 2
 -190 617 -188 647 -184 681 c 1
 -235 681 l 1
 -239 644 l 1
 -241 606 l 1
 -305 606 l 1
 -303 643 l 1
 -299 681 l 1
 -352 681 l 1
 -352 674 -353 661 -354 643 c 0
 -355 625 -356 610 -356 598 c 0
 -356 592 -355 578 -354 555 c 0
 -353 533 -352 518 -352 509 c 1
 -301 509 l 1
 -304 548 l 1
 -305 586 l 1
 -241 586 l 1
 -240 550 l 1
 -237 509 l 1
 -186 509 l 1
EndSplineSet
LCarets2: 1 0
Ligature2: "'ccmp' Second Round of Precomposed Glyphs-1" uni2DE9 uni0487
EndChar

StartChar: uni2DEA0487
Encoding: 62698 62698 231
Width: 0
GlyphClass: 4
Flags: HW
AnchorPoint: "Above" -152 513 mark 0
LayerCount: 2
Fore
SplineSet
-240 600 m 0
 -240 548 -200 515 -151 515 c 0
 -104 515 -66 550 -66 601 c 0
 -66 652 -102 690 -153 690 c 0
 -205 690 -240 651 -240 600 c 0
-204 600 m 0
 -204 644 -187 666 -152 666 c 0
 -119 666 -99 641 -99 605 c 0
 -99 568 -119 538 -152 538 c 0
 -187 538 -204 564 -204 600 c 0
-234 717 m 2
 -225 717 -219 721 -218 729 c 2
 -218 750 l 2
 -218 770 -208 792 -191 792 c 0
 -176 792 -161 781 -122 746 c 0
 -83 713 -67 703 -44 703 c 0
 -33 703 -18 705 1 710 c 0
 20 715 29 720 29 725 c 0
 29 730 3 737 -12 742 c 0
 -19 745 -35 756 -58 773 c 0
 -81 791 -98 803 -109 810 c 0
 -120 817 -133 821 -150 821 c 0
 -181 821 -210 814 -236 801 c 0
 -263 788 -278 775 -282 762 c 0
 -286 749 -288 738 -288 728 c 0
 -288 720 -283 716 -274 716 c 2
 -234 717 l 2
EndSplineSet
LCarets2: 1 0
Ligature2: "'ccmp' Second Round of Precomposed Glyphs-1" uni2DEA uni0487
EndChar

StartChar: uni2DEC0487
Encoding: 62700 62700 232
Width: 0
GlyphClass: 4
Flags: HW
AnchorPoint: "Above" -255 503 mark 0
LayerCount: 2
Fore
SplineSet
-325 505 m 1
 -272 505 l 1
 -272 586 l 1
 -217 586 -176 595 -176 639 c 0
 -176 666 -197 692 -246 692 c 0
 -281 692 -302 684 -311 668 c 0
 -320 652 -325 631 -325 606 c 2
 -325 505 l 1
-272 640 m 2
 -272 657 -265 674 -245 674 c 0
 -230 674 -216 665 -216 645 c 0
 -216 614 -240 609 -272 609 c 1
 -272 640 l 2
-249 821 m 0
 -282 817 -322 809 -349 794 c 0
 -376 781 -388 755 -388 735 c 0
 -388 726 -385 721 -380 720 c 2
 -362 720 l 2
 -359 720 -351 720 -339 721 c 0
 -328 722 -321 723 -320 725 c 0
 -319 728 -318 732 -318 738 c 2
 -318 750 l 2
 -318 779 -309 793 -292 793 c 0
 -279 793 -252 775 -220 746 c 0
 -189 717 -175 709 -155 709 c 0
 -136 711 -118 713 -100 716 c 0
 -82 719 -73 724 -73 731 c 0
 -73 733 -75 735 -80 737 c 2
 -102 741 l 2
 -111 742 -119 745 -126 750 c 0
 -133 755 -148 766 -171 783 c 0
 -194 801 -210 811 -218 814 c 0
 -226 817 -236 819 -249 821 c 0
EndSplineSet
LCarets2: 1 0
Ligature2: "'ccmp' Second Round of Precomposed Glyphs-1" uni2DEC uni0487
EndChar

StartChar: uni2DED0487
Encoding: 62701 62701 233
Width: 0
GlyphClass: 4
Flags: HW
AnchorPoint: "Above" -269 670 mark 0
LayerCount: 2
Fore
SplineSet
-354 674 m 1
 -325 674 l 2
 -306 674 -297 675 -278 680 c 0
 -261 687 -242 713 -242 724 c 0
 -242 727 -244 730 -249 733 c 1
 -257 731 -283 702 -294 706 c 0
 -299 706 -301 710 -301 719 c 2
 -301 746 l 2
 -301 778 -295 780 -267 785 c 0
 -239 790 -244 791 -244 808 c 2
 -244 827 l 1
 -296 827 -327 821 -338 809 c 0
 -349 797 -354 771 -354 731 c 2
 -354 674 l 1
-382 810 m 2
 -373 810 -367 813 -366 820 c 2
 -366 837 l 2
 -366 845 -359 854 -345 863 c 0
 -331 873 -320 878 -311 878 c 0
 -304 878 -295 875 -285 870 c 0
 -275 865 -254 854 -223 838 c 0
 -192 823 -171 812 -160 807 c 0
 -149 802 -137 800 -126 800 c 0
 -115 800 -100 802 -81 806 c 0
 -62 811 -53 815 -53 818 c 0
 -47 823 -69 824 -94 832 c 0
 -101 835 -116 843 -139 856 c 0
 -162 870 -186 881 -209 889 c 0
 -233 898 -253 902 -269 902 c 0
 -282 902 -304 901 -334 898 c 0
 -365 895 -387 888 -402 877 c 0
 -431 856 -436 835 -436 819 c 0
 -436 812 -431 809 -422 809 c 2
 -382 810 l 2
EndSplineSet
LCarets2: 1 0
Ligature2: "'ccmp' Second Round of Precomposed Glyphs-1" uni2DED uni0487
EndChar

StartChar: uni2DF10487
Encoding: 62705 62705 234
Width: 0
GlyphClass: 4
Flags: HW
AnchorPoint: "Above" -167 514 mark 0
LayerCount: 2
Fore
SplineSet
-248 717 m 2
 -239 717 -233 721 -232 729 c 2
 -232 750 l 2
 -232 770 -222 792 -205 792 c 0
 -190 792 -173 780 -136 747 c 0
 -99 714 -80 703 -57 703 c 0
 -46 703 -31 705 -12 710 c 0
 7 715 16 720 16 725 c 0
 22 731 0 732 -25 742 c 0
 -32 745 -47 756 -70 773 c 0
 -93 790 -111 803 -122 810 c 0
 -133 817 -147 821 -163 821 c 0
 -190 821 -236 808 -267 792 c 0
 -298 776 -302 748 -302 728 c 0
 -302 720 -297 716 -288 716 c 2
 -248 717 l 2
-100 513 m 1
 -107 544 -106 569 -106 597 c 0
 -106 599 -106 612 -105 635 c 0
 -104 659 -103 678 -101 693 c 1
 -144 693 l 1
 -145 689 -146 684 -147 677 c 2
 -147 642 l 2
 -147 633 -149 628 -153 628 c 0
 -161 626 -199 634 -198 693 c 1
 -245 693 l 1
 -245 632 -203 616 -147 616 c 1
 -147 579 l 1
 -147 513 l 1
 -100 513 l 1
EndSplineSet
LCarets2: 1 0
Ligature2: "'ccmp' Second Round of Precomposed Glyphs-1" uni2DF1 uni0487
EndChar

StartChar: uni2010
Encoding: 8208 8208 235
Width: 352
Flags: HW
LayerCount: 2
Fore
SplineSet
325 229 m 5
 325 283 l 5
 25 283 l 5
 25 229 l 5
 325 229 l 5
EndSplineSet
Substitution2: "'ss01' Church Slavonic Hyphenation-1" underscore
EndChar

StartChar: uni2011
Encoding: 8209 8209 236
Width: 352
Flags: HW
LayerCount: 2
Fore
SplineSet
325 229 m 5
 325 283 l 5
 25 283 l 5
 25 229 l 5
 325 229 l 5
EndSplineSet
EndChar

